<svg xmlns="http://www.w3.org/2000/svg" xmlns:xlink="http://www.w3.org/1999/xlink" version="1.1"><metadata>Created by FontForge 20170924 at Wed Nov 30 05:14:04 2011 By www-data Font data copyright Google 2011</metadata><defs><font id="Roboto-Black" horiz-adv-x="1151"><font-face x-height="1082" ascent="1536" bbox="-1063 -555 2477 2179" cap-height="1456" descent="-512" font-family="Roboto Bk" font-stretch="normal" font-weight="400" panose-1="0 0 0 0 0 0 0 0 0 0" underline-position="-200" underline-thickness="100" unicode-range="U+0009-FFFD" units-per-em="2048"/><glyph d="M173 0v848h-157v234h157v52q0 216 133 331.5t378 115.5q84 0 167 -15t185 -43l-46 -266q-86 22 -143.5 33t-142.5 11q-93 0 -143 -43.5t-50 -123.5v-52h212v-234h-212v-848h-338zM1191 0h-339v1082h339v-1082z" glyph-name="fi" horiz-adv-x="1302" unicode="fi"/><glyph glyph-name="NULL" horiz-adv-x="510"/><glyph glyph-name="uni0002" horiz-adv-x="0"/><glyph glyph-name="uni0002" horiz-adv-x="0"/><glyph glyph-name="nonmarkingreturn" horiz-adv-x="510"/><glyph glyph-name="space" horiz-adv-x="510"/><glyph d="M454 516h-339v940h339v-940zM454 0h-339v283h339v-283z" glyph-name="exclam" horiz-adv-x="565" unicode="!"/><glyph d="M395 1181l-102 -249h-144v524h246v-275zM751 1181l-102 -249h-143v524h245v-275z" glyph-name="quotedbl" horiz-adv-x="881" unicode="&quot;"/><glyph d="M619 410h-161l-67 -410h-199l67 410h-222v183h252l44 264h-221v183h251l69 416h198l-68 -416h161l69 416h199l-69 -416h231v-183h-261l-44 -264h229v-183h-259l-67 -410h-199zM488 593h161l44 264h-161z" glyph-name="numbersign" horiz-adv-x="1190" unicode="#"/><glyph d="M792 386q0 80 -38.5 121.5t-146.5 86.5q-239 84 -350.5 184t-111.5 290q0 171 116 280.5t314 125.5v211h158v-214q187 -25 294 -141t104 -299l-2 -5h-330q0 100 -43.5 148t-122.5 48q-82 0 -116 -42.5t-34 -113.5q0 -67 36.5 -106.5t147.5 -92.5q231 -74 346.5 -182 t115.5 -297q0 -175 -111 -281t-304 -124v-201h-159v201q-202 17 -332 128.5t-125 329.5l2 6h329q0 -115 55.5 -164t149.5 -49q83 0 120.5 41.5t37.5 110.5z" glyph-name="dollar" horiz-adv-x="1227" unicode="$"/><glyph d="M91 1176q0 130 84 215.5t239 85.5q157 0 241 -85.5t84 -215.5v-77q0 -130 -84 -214.5t-239 -84.5q-156 0 -240.5 85t-84.5 214v77zM307 1099q0 -50 28 -83.5t81 -33.5q51 0 78.5 33.5t27.5 83.5v77q0 50 -28 84.5t-80 34.5q-51 0 -79 -34.5t-28 -84.5v-77zM782 357 q0 129 85 214.5t240 85.5q157 0 240.5 -85t83.5 -215v-77q0 -131 -83.5 -215.5t-238.5 -84.5q-156 0 -241.5 85t-85.5 215v77zM999 280q0 -48 32 -83t78 -35q62 0 84 31t22 87v77q0 49 -28.5 83.5t-79.5 34.5q-52 0 -80 -34.5t-28 -83.5v-77zM462 109l-157 79l711 1138 l157 -79z" glyph-name="percent" horiz-adv-x="1521" unicode="%"/><glyph d="M308 777q-61 86 -90.5 159t-29.5 148q0 189 110 291t302 102q159 0 258.5 -102t99.5 -248q0 -107 -36.5 -184.5t-110.5 -137.5l-100 -70l235 -271q34 57 53.5 124t19.5 140h260q0 -147 -34 -268.5t-109 -214.5l209 -240l-2 -5h-369l-74 84q-87 -54 -173.5 -79.5 t-190.5 -25.5q-218 0 -347 114t-129 298q0 116 56.5 197.5t173.5 176.5zM559 239q43 0 87 9t85 28l-257 292q-41 -36 -58 -73t-17 -81q0 -77 46.5 -126t113.5 -49zM480 1088q0 -37 17 -75.5t51 -82.5l45 28q56 36 75.5 70t19.5 75q0 46 -25.5 80t-74.5 34t-78.5 -37.5 t-29.5 -91.5z" glyph-name="ampersand" horiz-adv-x="1380" unicode="&amp;"/><glyph d="M365 1164l-102 -283h-189v575h291v-292z" glyph-name="quotesingle" horiz-adv-x="440" unicode="'"/><glyph d="M120 592q0 389 148 659.5t348 347.5h6l61 -159q-128 -94 -211 -304t-83 -542v-32q0 -333 83 -542.5t211 -303.5l-61 -159h-6q-200 77 -348 347t-148 660v28z" glyph-name="parenleft" horiz-adv-x="727" unicode="("/><glyph d="M630 564q0 -374 -157 -652.5t-362 -354.5h-6l-61 159q126 95 210 304.5t84 541.5v32q0 332 -84 542t-210 304l61 159h6q205 -76 362 -355t157 -652v-28z" glyph-name="parenright" horiz-adv-x="726" unicode=")"/><glyph d="M256 649l-226 82l56 175l243 -72l8 248h182l15 -258l229 73l56 -177l-230 -85l131 -205l-149 -109l-153 204l-151 -195l-150 105z" glyph-name="asterisk" horiz-adv-x="843" unicode="*"/><glyph d="M702 826h341v-289h-341v-391h-315v391h-342v289h342v380h315v-380z" glyph-name="plus" horiz-adv-x="1094" unicode="+"/><glyph d="M467 -8l-163 -318h-233l70 327v263h326v-272z" glyph-name="comma" horiz-adv-x="590" unicode=","/><glyph d="M724 497h-589v261h589v-261z" glyph-name="hyphen" horiz-adv-x="875" unicode="-"/><glyph d="M473 0h-337v284h337v-284z" glyph-name="period" horiz-adv-x="619" unicode="."/><glyph d="M312 -125h-341l497 1581h341z" glyph-name="slash" horiz-adv-x="811" unicode="/"/><glyph d="M1100 535q0 -261 -139 -408.5t-367 -147.5q-230 0 -369 147.5t-139 408.5v386q0 261 138 408.5t368 147.5q228 0 368 -148t140 -408v-386zM763 944q0 133 -45.5 203t-125.5 70q-81 0 -125 -70t-44 -203v-430q0 -136 44.5 -205.5t126.5 -69.5q80 0 124.5 69.5t44.5 205.5 v430z" glyph-name="zero" horiz-adv-x="1186" unicode="0"/><glyph d="M839 0h-338v1167h-293v258l631 52v-1477z" glyph-name="one" horiz-adv-x="1186" unicode="1"/><glyph d="M1113 0h-1012v220l448 492q90 102 132 182t42 139q0 85 -38 134.5t-122 49.5q-79 0 -122.5 -64.5t-43.5 -164.5h-331l-2 6q-5 202 133 342.5t366 140.5q239 0 369 -117.5t130 -323.5q0 -138 -72 -244.5t-264 -314.5l-177 -212l2 -5h562v-260z" glyph-name="two" horiz-adv-x="1186" unicode="2"/><glyph d="M578 869q91 0 140 49t49 136q0 68 -50 115.5t-135 47.5q-64 0 -108.5 -37.5t-44.5 -98.5h-328l-2 6q-6 174 136.5 282t346.5 108q237 0 379.5 -108.5t142.5 -307.5q0 -99 -60 -182t-163 -131q118 -43 182 -129.5t64 -210.5q0 -200 -153.5 -314.5t-391.5 -114.5 q-206 0 -358 107.5t-147 311.5l2 6h329q0 -71 49 -118t125 -47q91 0 149.5 50.5t58.5 125.5q0 106 -55.5 154.5t-156.5 48.5h-160v251h160z" glyph-name="three" horiz-adv-x="1186" unicode="3"/><glyph d="M985 569h147v-262h-147v-307h-338v307h-579l-20 208l599 938v3h338v-887zM338 569h309v453l-6 1l-37 -75z" glyph-name="four" horiz-adv-x="1186" unicode="4"/><glyph d="M121 640l84 816h853v-262h-579l-37 -303q41 29 104.5 47t138.5 20q203 4 312.5 -124.5t109.5 -364.5q0 -211 -122 -350.5t-384 -139.5q-208 0 -361.5 109.5t-147.5 289.5l1 6l331 20q0 -77 48.5 -121t128.5 -44q94 0 131 57t37 171q0 120 -43 189t-136 69 q-67 0 -108.5 -29t-57.5 -73z" glyph-name="five" horiz-adv-x="1186" unicode="5"/><glyph d="M683 1477q84 0 150 -14.5t147 -46.5l-57 -246q-70 21 -121 31.5t-117 10.5q-124 0 -199 -88.5t-75 -262.5v-14q56 55 135.5 85t180.5 30q187 0 289.5 -136t102.5 -354q0 -215 -143 -354t-367 -139q-240 0 -387.5 157t-147.5 430v293q0 288 170.5 453t438.5 165zM614 704 q-72 0 -123 -19t-80 -54v-65q0 -158 52 -242.5t146 -84.5q76 0 124 67.5t48 165.5q0 110 -46 171t-121 61z" glyph-name="six" horiz-adv-x="1186" unicode="6"/><glyph d="M1111 1196q-232 -264 -317.5 -486.5t-85.5 -518.5v-191h-338v191q0 292 106 535.5t311 469.5h-729v260h1053v-260z" glyph-name="seven" horiz-adv-x="1186" unicode="7"/><glyph d="M1079 1075q0 -105 -53 -187t-146 -131q116 -50 184 -140.5t68 -206.5q0 -204 -146 -317.5t-373 -113.5q-236 0 -388.5 114t-152.5 317q0 116 70 206.5t192 140.5q-99 48 -154.5 130.5t-55.5 187.5q0 193 135 297.5t352 104.5q210 0 339 -104t129 -298zM794 428 q0 87 -52.5 142t-130.5 55q-86 0 -143 -55t-57 -142q0 -86 57 -137.5t145 -51.5q78 0 129.5 51t51.5 138zM742 1057q0 76 -35 118t-96 42q-69 0 -108.5 -41.5t-39.5 -118.5q0 -79 40.5 -125.5t109.5 -46.5q60 0 94.5 46.5t34.5 125.5z" glyph-name="eight" horiz-adv-x="1186" unicode="8"/><glyph d="M548 239q92 0 151 72.5t59 200.5v84q-49 -60 -114 -90.5t-139 -30.5q-198 0 -311.5 133.5t-113.5 358.5q0 216 142 363t367 147q221 0 363.5 -153.5t142.5 -422.5v-366q0 -252 -155.5 -404t-391.5 -152q-74 0 -154.5 16.5t-153.5 46.5l58 241q64 -23 121 -33.5t129 -10.5 zM579 718q58 0 103.5 22t75.5 60v163q0 124 -47.5 189t-122.5 65q-79 0 -125 -75t-46 -175q0 -112 41.5 -180.5t120.5 -68.5z" glyph-name="nine" horiz-adv-x="1186" unicode="9"/><glyph d="M473 0h-337v284h337v-284zM473 876h-337v284h337v-284z" glyph-name="colon" horiz-adv-x="613" unicode=":"/><glyph d="M474 876h-337v284h337v-284zM518 -8l-163 -318h-233l70 327v263h326v-272z" glyph-name="semicolon" horiz-adv-x="579" unicode=";"/><glyph d="M378 544v-6l552 -181v-307l-884 360v266l884 360v-306z" glyph-name="less" horiz-adv-x="1044" unicode="&lt;"/><glyph d="M1054 732h-926v260h926v-260zM1054 293h-926v260h926v-260z" glyph-name="equal" horiz-adv-x="1195" unicode="="/><glyph d="M658 540v6l-547 182v306l879 -360v-266l-879 -360v306z" glyph-name="greater" horiz-adv-x="1050" unicode="&gt;"/><glyph d="M308 416q1 139 50 209t179 161q67 42 105.5 104t38.5 143q0 84 -45 134t-128 50q-67 0 -112 -41t-47 -122h-329l-2 6q-3 208 132.5 312.5t357.5 104.5q238 0 374.5 -120t136.5 -324q0 -125 -74.5 -230t-189.5 -165q-64 -42 -86.5 -90.5t-22.5 -131.5h-338zM645 0h-336 v270h336v-270z" glyph-name="question" horiz-adv-x="1043" unicode="?"/><glyph d="M1729 520q-9 -220 -132 -380.5t-367 -160.5q-81 0 -140 45.5t-83 128.5q-41 -85 -103.5 -127.5t-146.5 -42.5q-149 0 -228 118.5t-58 314.5q26 251 146.5 402t292.5 151q121 0 194.5 -26t161.5 -80l-3 -4h5l-51 -566q-5 -87 11.5 -119.5t44.5 -32.5q112 0 179.5 107.5 t75.5 271.5q16 339 -133 528.5t-460 189.5q-302 0 -480 -204t-193 -556q-17 -343 144.5 -542t463.5 -199q84 0 174.5 18.5t156.5 46.5l38 -166q-67 -42 -170.5 -65.5t-202.5 -23.5q-404 0 -622 249t-201 682q18 429 258 680.5t638 251.5q391 0 598.5 -238t191.5 -652z M719 416q-9 -120 17.5 -181.5t86.5 -61.5q54 0 96.5 30t74.5 111l40 452q-22 5 -43 8.5t-42 3.5q-104 0 -158.5 -90.5t-71.5 -271.5z" glyph-name="at" horiz-adv-x="1809" unicode="@"/><glyph d="M878 283h-433l-84 -283h-356l475 1456h181v-1l1 1h181l476 -1456h-356zM523 543h277l-136 452h-6z" glyph-name="A" horiz-adv-x="1307" unicode="A"/><glyph d="M116 0v1456h477q271 0 422.5 -100.5t151.5 -299.5q0 -104 -48 -184.5t-150 -121.5q130 -28 192.5 -116t62.5 -203q0 -213 -143 -322t-410 -109h-555zM454 625v-365h217q108 0 162 42.5t54 130.5q0 93 -47.5 141t-156.5 51h-11h-218zM454 849h133q122 0 182 42.5t60 126.5 q0 93 -58 135.5t-178 42.5h-139v-347z" glyph-name="B" horiz-adv-x="1306" unicode="B"/><glyph d="M1234 491l2 -6q4 -249 -140.5 -377.5t-409.5 -128.5q-270 0 -433.5 165t-163.5 432v304q0 266 157.5 431.5t416.5 165.5q277 0 428.5 -129t147.5 -375l-3 -6h-329q0 134 -57 192t-187 58q-114 0 -175 -91.5t-61 -243.5v-306q0 -153 67 -245t192 -92q116 0 167.5 58 t51.5 194h329z" glyph-name="C" horiz-adv-x="1307" unicode="C"/><glyph d="M116 0v1456h533q257 0 430 -167.5t173 -429.5v-262q0 -263 -173 -430t-430 -167h-533zM454 1196v-936h195q115 0 189.5 94t74.5 243v264q0 147 -74.5 241t-189.5 94h-195z" glyph-name="D" horiz-adv-x="1338" unicode="D"/><glyph d="M967 623h-513v-363h615v-260h-953v1456h954v-260h-616v-313h513v-260z" glyph-name="E" horiz-adv-x="1143" unicode="E"/><glyph d="M987 586h-533v-586h-338v1456h973v-260h-635v-350h533v-260z" glyph-name="F" horiz-adv-x="1143" unicode="F"/><glyph d="M1266 201q-76 -92 -214 -157t-355 -65q-271 0 -440 166t-169 431v304q0 263 164.5 430t423.5 167q279 0 421.5 -124.5t137.5 -340.5l-2 -6h-317q0 107 -57 159t-172 52q-118 0 -190 -93t-72 -242v-306q0 -152 71.5 -244.5t200.5 -92.5q93 0 146.5 15t84.5 40v260h-258 v224h596v-577z" glyph-name="G" horiz-adv-x="1353" unicode="G"/><glyph d="M1330 0h-337v586h-539v-586h-338v1456h338v-610h539v610h337v-1456z" glyph-name="H" horiz-adv-x="1446" unicode="H"/><glyph d="M474 0h-337v1456h337v-1456z" glyph-name="I" horiz-adv-x="611" unicode="I"/><glyph d="M692 1456h338v-989q0 -223 -137 -355.5t-351 -132.5q-246 0 -389.5 118t-138.5 343l3 6h330q0 -107 54 -157t141 -50q66 0 108 60.5t42 167.5v989z" glyph-name="J" horiz-adv-x="1144" unicode="J"/><glyph d="M548 584h-94v-584h-338v1456h338v-570h70l329 570h425l-458 -662l497 -794h-434z" glyph-name="K" horiz-adv-x="1306" unicode="K"/><glyph d="M454 260h625v-260h-963v1456h338v-1196z" glyph-name="L" horiz-adv-x="1144" unicode="L"/><glyph d="M885 437h6l329 1019h447v-1456h-338v938l-6 1l-321 -939h-227l-315 925l-6 -1v-924h-338v1456h443z" glyph-name="M" horiz-adv-x="1783" unicode="M"/><glyph d="M1330 0h-337l-533 916l-6 -2v-914h-338v1456h338l533 -915l6 2v913h337v-1456z" glyph-name="N" horiz-adv-x="1446" unicode="N"/><glyph d="M1326 597q0 -269 -170.5 -443.5t-445.5 -174.5q-277 0 -449 174.5t-172 443.5v262q0 268 171.5 443t447.5 175q274 0 446 -175t172 -443v-262zM989 861q0 156 -73.5 256t-207.5 100q-137 0 -209.5 -99.5t-72.5 -256.5v-264q0 -158 73.5 -258t210.5 -100q133 0 206 100 t73 258v264z" glyph-name="O" horiz-adv-x="1416" unicode="O"/><glyph d="M454 499v-499h-338v1456h556q259 0 411 -132t152 -347t-152 -346.5t-411 -131.5h-218zM454 759h218q110 0 168 60.5t58 155.5q0 97 -57.5 159t-168.5 62h-218v-437z" glyph-name="P" horiz-adv-x="1306" unicode="P"/><glyph d="M1326 597q0 -107 -29 -201.5t-83 -171.5l218 -222l-217 -167l-210 210q-65 -33 -139 -49.5t-156 -16.5q-277 0 -449 174.5t-172 443.5v262q0 268 171.5 443t447.5 175q274 0 446 -175t172 -443v-262zM989 861q0 156 -73.5 256t-207.5 100q-137 0 -209.5 -99.5 t-72.5 -256.5v-264q0 -158 73.5 -258t210.5 -100q133 0 206 100t73 258v264z" glyph-name="Q" horiz-adv-x="1447" unicode="Q"/><glyph d="M454 558v-558h-338v1456h507q253 0 401 -117t148 -320q0 -113 -59.5 -194t-175.5 -132q134 -38 192.5 -126.5t58.5 -220.5v-92q0 -57 17 -130t59 -104v-20h-349q-40 31 -52 109t-12 147v88q0 104 -55 159t-161 55h-181zM454 818h171q102 0 156 46.5t54 133.5 q0 89 -55.5 143.5t-156.5 54.5h-169v-378z" glyph-name="R" horiz-adv-x="1306" unicode="R"/><glyph d="M867 386q0 78 -51 119.5t-185 88.5q-271 88 -402.5 187.5t-131.5 286.5q0 183 153 296t389 113q249 0 401 -116.5t147 -328.5l-2 -6h-328q0 103 -56 149.5t-169 46.5q-92 0 -145 -45t-53 -111q0 -64 54.5 -102.5t203.5 -96.5q253 -75 383 -183t130 -296 q0 -192 -150 -300.5t-398 -108.5q-247 0 -418.5 116.5t-166.5 366.5l2 6h329q0 -127 62.5 -180.5t191.5 -53.5q106 0 158 42t52 110z" glyph-name="S" horiz-adv-x="1273" unicode="S"/><glyph d="M1129 1196h-385v-1196h-338v1196h-378v260h1101v-260z" glyph-name="T" horiz-adv-x="1150" unicode="T"/><glyph d="M1309 1456v-944q0 -250 -166 -391.5t-433 -141.5q-269 0 -436 141.5t-167 391.5v944h339v-944q0 -135 70 -204t194 -69q123 0 191.5 68.5t68.5 204.5v944h339z" glyph-name="U" horiz-adv-x="1417" unicode="U"/><glyph d="M638 395l10 -53h6l10 49l289 1065h354l-472 -1456h-365l-470 1456h353z" glyph-name="V" horiz-adv-x="1307" unicode="V"/><glyph d="M1287 512h6l176 944h342l-334 -1456h-318l-245 899h-6l-243 -899h-318l-335 1456h343l176 -945l6 -1l247 946h255z" glyph-name="W" horiz-adv-x="1825" unicode="W"/><glyph d="M648 965l240 491h390l-417 -722l449 -734h-410l-248 501l-248 -501h-390l428 734l-417 722h387z" glyph-name="X" horiz-adv-x="1307" unicode="X"/><glyph d="M650 820h6l290 636h366l-494 -944v-512h-337v527l-486 929h366z" glyph-name="Y" horiz-adv-x="1307" unicode="Y"/><glyph d="M467 260h600v-260h-1000v152l588 1044h-591v260h994v-146z" glyph-name="Z" horiz-adv-x="1131" unicode="Z"/><glyph d="M564 1460h-118v-1564h118v-245h-456v2055h456v-246z" glyph-name="bracketleft" horiz-adv-x="577" unicode="["/><glyph d="M-16 1456h338l608 -1581h-339z" glyph-name="backslash" horiz-adv-x="871" unicode="\"/><glyph d="M14 1706h456v-2055h-456v245h119v1564h-119v246z" glyph-name="bracketright" horiz-adv-x="577" unicode="]"/><glyph d="M289 729h-253l299 727h249l300 -727h-254l-165 413l-4 18h-6l-4 -18z" glyph-name="asciicircum" horiz-adv-x="916" unicode="^"/><glyph d="M903 -251h-903v251h903v-251z" glyph-name="underscore" horiz-adv-x="904" unicode="_"/><glyph d="M620 1252h-297l-283 260l2 6h370z" glyph-name="grave" horiz-adv-x="695" unicode="`"/><glyph d="M721 1q-19 34 -32.5 77t-20.5 90q-44 -86 -108.5 -137.5t-168.5 -51.5q-170 0 -264.5 87.5t-94.5 238.5q0 161 121 248.5t367 87.5h139v77q0 69 -33 106t-101 37q-59 0 -87.5 -27.5t-28.5 -85.5l-328 1l-2 6q-7 148 123.5 247.5t344.5 99.5q201 0 325.5 -100t124.5 -286 v-408q0 -86 14.5 -160t43.5 -148zM483 220q62 0 109.5 29t66.5 69v143h-136q-81 0 -117 -39t-36 -99q0 -46 31.5 -74.5t81.5 -28.5z" glyph-name="a" horiz-adv-x="1086" unicode="a"/><glyph d="M1098 518q0 -247 -106 -393t-314 -146q-88 0 -154 38t-113 110l-20 -127h-295v1560h338v-583q45 60 104.5 92.5t137.5 32.5q209 0 315.5 -153t106.5 -410v-21zM761 539q0 144 -36 223.5t-134 79.5q-55 0 -94.5 -20.5t-62.5 -59.5v-455q24 -34 63.5 -51t95.5 -17 q100 0 134 69.5t34 209.5v21z" glyph-name="b" unicode="b"/><glyph d="M559 239q69 0 103 37.5t34 108.5h308l2 -6q4 -177 -122.5 -288.5t-324.5 -111.5q-247 0 -380.5 152.5t-133.5 397.5v23q0 244 133 397t379 153q206 0 329.5 -114.5t119.5 -313.5l-2 -6h-308q0 77 -35 125.5t-104 48.5q-98 0 -136.5 -78.5t-38.5 -211.5v-23 q0 -136 38.5 -213t138.5 -77z" glyph-name="c" horiz-adv-x="1048" unicode="c"/><glyph d="M51 539q0 253 110.5 408t311.5 155q75 0 135.5 -34.5t108.5 -98.5v591h338v-1560h-296l-23 132q-49 -74 -114.5 -113.5t-150.5 -39.5q-200 0 -310 148t-110 391v21zM389 518q0 -132 38.5 -205.5t129.5 -73.5q53 0 93.5 19.5t66.5 57.5v437q-26 43 -66 66t-92 23 q-90 0 -130 -83t-40 -220v-21z" glyph-name="d" unicode="d"/><glyph d="M576 -21q-246 0 -385.5 149t-139.5 377v38q0 248 131.5 404t380.5 155q219 0 339.5 -131t120.5 -359v-177h-620l-2 -6q8 -85 63 -137.5t158 -52.5q97 0 161.5 16t147.5 51l81 -206q-70 -51 -188 -86t-248 -35zM563 842q-81 0 -119.5 -51.5t-44.5 -139.5l2 -5h292v26 q0 84 -29.5 127t-100.5 43z" glyph-name="e" horiz-adv-x="1070" unicode="e"/><glyph d="M169 0v848h-156v234h156v112q0 186 112 286.5t317 100.5q39 0 78.5 -5.5t88.5 -15.5l-25 -249q-28 5 -49 7.5t-51 2.5q-64 0 -98 -33t-34 -94v-112h214v-234h-214v-848h-339z" glyph-name="f" horiz-adv-x="734" unicode="f"/><glyph d="M50 539q0 253 110.5 408t311.5 155q85 0 150 -40.5t112 -114.5l22 135h298v-1070q0 -214 -146.5 -331.5t-403.5 -117.5q-84 0 -176 23t-176 62l58 250q73 -32 139.5 -47.5t152.5 -15.5q108 0 160.5 43t52.5 136v84q-46 -59 -106.5 -89t-138.5 -30q-200 0 -310 148 t-110 391v21zM387 518q0 -132 38.5 -205.5t130.5 -73.5q55 0 94.5 17t64.5 51v455q-25 39 -64 59.5t-93 20.5q-90 0 -130.5 -83.5t-40.5 -219.5v-21z" glyph-name="g" unicode="g"/><glyph d="M424 948q49 73 119.5 113.5t155.5 40.5q168 0 264 -117t96 -363v-622h-338v624q0 124 -32 171t-97 47q-57 0 -99 -16.5t-69 -46.5v-779h-338v1560h338v-612z" glyph-name="h" unicode="h"/><glyph d="M450 0h-339v1082h339v-1082zM450 1333h-339v227h339v-227z" glyph-name="i" horiz-adv-x="561" unicode="i"/><glyph d="M454 1082v-1097q0 -202 -108.5 -312t-301.5 -110q-44 0 -80.5 4t-78.5 13l14 255q29 -6 49.5 -9t51.5 -3q56 0 85.5 41t29.5 121v1097h339zM448 1334h-339v226h339v-226z" glyph-name="j" horiz-adv-x="548" unicode="j"/><glyph d="M495 430h-61v-430h-338v1560h338v-875h48l228 397h387l-333 -488l388 -594h-385z" glyph-name="k" horiz-adv-x="1119" unicode="k"/><glyph d="M450 0h-339v1560h339v-1560z" glyph-name="l" horiz-adv-x="561" unicode="l"/><glyph d="M414 1082l12 -143q51 78 128.5 120.5t177.5 42.5q101 0 174 -44t110 -134q50 85 128.5 131.5t183.5 46.5q158 0 248.5 -113.5t90.5 -349.5v-639h-339v639q0 116 -32.5 159.5t-97.5 43.5q-49 0 -86.5 -17.5t-63.5 -48.5q0 -17 1 -29.5t1 -24.5v-722h-338v639 q0 117 -32 160t-99 43q-46 0 -83.5 -17.5t-63.5 -48.5v-776h-338v1082h318z" glyph-name="m" horiz-adv-x="1764" unicode="m"/><glyph d="M407 1082l13 -152q53 81 131 126.5t174 45.5q159 0 248.5 -108t89.5 -343v-651h-338v652q0 103 -33 146.5t-96 43.5q-54 0 -97 -19t-72 -54v-769h-337v1082h317z" glyph-name="n" unicode="n"/><glyph d="M51 551q0 244 138 397.5t385 153.5q248 0 386 -153.5t138 -397.5v-21q0 -245 -138 -398t-384 -153q-249 0 -387 153t-138 398v21zM389 530q0 -136 42.5 -213.5t144.5 -77.5q99 0 142 78t43 213v21q0 132 -43 211.5t-144 79.5q-100 0 -142.5 -80t-42.5 -211v-21z" glyph-name="o" unicode="o"/><glyph d="M1098 518q0 -244 -110 -391.5t-310 -147.5q-78 0 -138.5 30t-105.5 87v-512h-338v1498h319l10 -118q45 66 107.5 102t143.5 36q201 0 311.5 -155t110.5 -408v-21zM761 539q0 137 -40 220t-128 83q-57 0 -96.5 -21t-62.5 -61v-452q24 -35 63.5 -52t97.5 -17 q89 0 127.5 73.5t38.5 205.5v21z" glyph-name="p" unicode="p"/><glyph d="M51 539q0 253 110.5 408t311.5 155q85 0 150 -40.5t112 -114.5l26 135h295v-1498h-338v516q-46 -59 -107.5 -90t-139.5 -31q-200 0 -310 148t-110 391v21zM389 518q0 -132 38.5 -205.5t129.5 -73.5q56 0 96 17.5t65 52.5v450q-25 41 -64.5 62t-94.5 21q-90 0 -130 -83 t-40 -220v-21z" glyph-name="q" unicode="q"/><glyph d="M694 794l-110 1q-58 0 -95 -21.5t-55 -60.5v-713h-338v1082h318l12 -159q34 85 90 132t131 47q23 0 41 -3t38 -9z" glyph-name="r" horiz-adv-x="722" unicode="r"/><glyph d="M660 304q0 40 -45.5 71.5t-165.5 56.5q-189 37 -285 114.5t-96 213.5q0 143 120 242.5t325 99.5q216 0 344 -96.5t122 -249.5l-2 -6h-328q0 64 -32 97t-105 33q-53 0 -89 -29t-36 -74q0 -43 41.5 -73t167.5 -54q199 -39 294 -116.5t95 -219.5q0 -146 -129.5 -240.5 t-342.5 -94.5q-221 0 -349.5 112t-122.5 250l2 6h306q2 -77 46.5 -111t126.5 -34q68 0 103 26.5t35 75.5z" glyph-name="s" horiz-adv-x="1048" unicode="s"/><glyph d="M484 1351v-269h171v-234h-171v-496q0 -58 23.5 -83.5t63.5 -25.5q26 0 41.5 2t39.5 8l23 -250q-51 -13 -92 -18.5t-97 -5.5q-167 0 -253.5 89t-86.5 282v498h-151v234h151v269h338z" glyph-name="t" horiz-adv-x="723" unicode="t"/><glyph d="M748 162q-48 -88 -124.5 -135.5t-176.5 -47.5q-168 0 -263.5 118t-95.5 365v620h337v-622q0 -127 32.5 -174t100.5 -47q54 0 95 15t70 45v783h338v-1082h-272z" glyph-name="u" unicode="u"/><glyph d="M501 446l20 -115l6 -1l22 116l143 636h355l-352 -1082h-343l-352 1082h356z" glyph-name="v" horiz-adv-x="1053" unicode="v"/><glyph d="M1025 477h6l107 605h322l-254 -1082h-286l-176 554h-6l-177 -554h-285l-255 1082h322l108 -609h6l177 609h213z" glyph-name="w" horiz-adv-x="1485" unicode="w"/><glyph d="M524 763h6l137 319h379l-314 -535l325 -547h-379l-144 329h-6l-144 -329h-379l325 547l-315 535h377z" glyph-name="x" horiz-adv-x="1053" unicode="x"/><glyph d="M515 477l1 -8h6l179 613h360l-431 -1243q-50 -120 -129 -198t-251 -78q-44 0 -72 5.5t-88 20.5l41 241l21 -4.5t18 -1.5q80 0 117 23.5t55 70.5l27 70l-374 1094h359z" glyph-name="y" horiz-adv-x="1053" unicode="y"/><glyph d="M492 260h492v-260h-919v188l481 634h-460v260h888v-182z" glyph-name="z" horiz-adv-x="1053" unicode="z"/><glyph d="M562 -360q-195 55 -277.5 175t-82.5 291v203q0 92 -40 144t-122 52v227q82 0 122 51.5t40 145.5v203q0 171 82.5 290.5t277.5 174.5l63 -176q-73 -29 -102 -103t-29 -186v-203q0 -104 -46 -184.5t-139 -125.5q93 -47 139 -127.5t46 -182.5v-203q0 -112 29 -186t102 -103z" glyph-name="braceleft" horiz-adv-x="665" unicode="{"/><glyph d="M388 -270h-246v1726h246v-1726z" glyph-name="bar" horiz-adv-x="523" unicode="|"/><glyph d="M41 -183q72 29 101.5 103t29.5 186v203q0 103 45.5 183.5t140.5 126.5q-95 45 -140.5 125.5t-45.5 184.5v203q0 112 -29.5 186t-101.5 103l63 176q194 -55 277 -174.5t83 -290.5v-203q0 -94 39.5 -145.5t122.5 -51.5v-227q-83 0 -122.5 -52t-39.5 -144v-203 q0 -171 -83 -291t-277 -175z" glyph-name="braceright" horiz-adv-x="665" unicode="}"/><glyph d="M1197 769q0 -175 -88.5 -288.5t-226.5 -113.5q-83 0 -154 30.5t-146 99.5q-47 43 -79.5 61t-73.5 18q-43 0 -73.5 -50t-30.5 -121l-231 30q0 175 87 288t226 113q81 0 156 -32.5t147 -96.5q43 -42 76.5 -60.5t72.5 -18.5q43 0 74.5 50t31.5 122z" glyph-name="asciitilde" horiz-adv-x="1295" unicode="~"/><glyph glyph-name="nonbreakingspace" horiz-adv-x="510"/><glyph d="M480 -374h-339v940h339v-940zM480 799h-339v283h339v-283z" glyph-name="exclamdown" horiz-adv-x="615" unicode="¡"/><glyph d="M559 239q69 0 103 37.5t34 108.5h316q0 -144 -82 -246t-219 -140v-244h-200v226q-225 16 -345.5 166t-120.5 382v23q0 231 120.5 381.5t345.5 166.5v218h200v-235q141 -39 221 -146.5t80 -268.5h-316q0 77 -35 125.5t-104 48.5q-98 0 -136.5 -78.5t-38.5 -211.5v-23 q0 -136 38.5 -213t138.5 -77z" glyph-name="cent" horiz-adv-x="1210" unicode="¢"/><glyph d="M610 575l3 -51q0 -73 -34.5 -141t-98.5 -123h692v-260h-1006v260h10q47 12 70.5 86.5t23.5 156.5l-3 72h-164v261h154l-7 185q0 213 124.5 334.5t333.5 121.5q223 0 345 -115t118 -304l-2 -6h-330q0 85 -37.5 125t-94.5 40t-88 -51t-31 -145l9 -185h325v-261h-312z" glyph-name="sterling" horiz-adv-x="1227" unicode="£"/><glyph d="M1061 107q-77 -62 -169 -94.5t-192 -32.5q-101 0 -193.5 32.5t-167.5 93.5l-129 -132l-141 144l135 137q-49 76 -74.5 165.5t-25.5 187.5q0 101 28 194t81 171l-144 147l141 144l142 -145q74 55 162.5 85t185.5 30q96 0 185 -30.5t164 -86.5l144 148l142 -145l-148 -151 q51 -78 79 -169.5t28 -191.5q0 -97 -25.5 -185.5t-72.5 -163.5l139 -141l-142 -145zM290 608q0 -184 119 -309.5t291 -125.5q170 0 289.5 125.5t119.5 309.5q0 183 -119.5 308.5t-289.5 125.5q-172 0 -291 -125.5t-119 -308.5z" glyph-name="currency" horiz-adv-x="1397" unicode="¤"/><glyph d="M628 877h6l244 579h366l-366 -714h213v-184h-295v-106h295v-183h-295v-269h-337v269h-323v183h323v106h-323v184h249l-367 714h367z" glyph-name="yen" horiz-adv-x="1258" unicode="¥"/><glyph d="M119 -270v795h292v-795h-292zM411 698h-292v758h292v-758z" glyph-name="brokenbar" horiz-adv-x="524" unicode="¦"/><glyph d="M1196 500q0 -90 -40 -157t-115 -111q69 -53 103.5 -123.5t34.5 -169.5q0 -180 -143.5 -281t-387.5 -101q-238 0 -395 98t-151 314l1 6h329q0 -87 60 -122t156 -35q94 0 143.5 32.5t49.5 87.5q0 56 -55 91.5t-207 79.5q-247 64 -366 157t-119 262q0 88 40 156.5t117 113.5 q-71 52 -106 122.5t-35 169.5q0 175 145.5 281t388.5 106q249 0 389.5 -110.5t135.5 -309.5l-2 -6h-328q0 73 -51 119.5t-144 46.5q-99 0 -147 -35t-48 -90q0 -63 49.5 -96.5t209.5 -75.5q249 -62 368.5 -156.5t119.5 -263.5zM597 652q-31 8 -60.5 17t-56.5 19 q-25 -21 -37 -51.5t-12 -68.5q0 -71 48.5 -107t210.5 -85q33 -9 62 -17.5t56 -16.5q27 21 41.5 51.5t14.5 68.5q0 62 -56.5 102t-210.5 88z" glyph-name="section" horiz-adv-x="1301" unicode="§"/><glyph d="M953 1252h-290v204h290v-204zM438 1252h-290v204h290v-204z" glyph-name="dieresis" horiz-adv-x="1123" unicode="¨"/><glyph d="M1108 596l2 -6q4 -151 -84 -229.5t-245 -78.5q-160 0 -254.5 106t-94.5 281v119q0 173 94.5 280t254.5 107q157 0 245.5 -79.5t84.5 -228.5l-2 -6h-148q0 94 -45 136.5t-135 42.5q-94 0 -144 -69t-50 -182v-120q0 -115 50 -183.5t144 -68.5q90 0 134.5 41.5t44.5 137.5 h148zM207 729q0 -264 171.5 -444.5t416.5 -180.5q244 0 415.5 180.5t171.5 444.5q0 263 -171.5 442.5t-415.5 179.5q-246 0 -417 -179.5t-171 -442.5zM85 729q0 315 207 531t503 216q295 0 502.5 -216t207.5 -531q0 -316 -208 -533t-502 -217q-296 0 -503 217t-207 533z" glyph-name="copyright" horiz-adv-x="1608" unicode="©"/><glyph d="M600 706q-8 21 -13 44.5t-8 49.5q-33 -47 -88.5 -77.5t-133.5 -30.5q-119 0 -184 61t-65 167q0 111 84.5 171t246.5 60h137v51q0 62 -29.5 94.5t-86.5 32.5q-66 0 -102 -26t-36 -73l-165 13l-1 6q-6 98 79 163t225 65q134 0 212.5 -71t78.5 -205v-314q0 -51 6 -95t20 -86 h-177zM400 836q51 0 105 30t71 65v103h-136q-74 0 -115.5 -32t-41.5 -78q0 -43 29 -65.5t88 -22.5z" glyph-name="ordfeminine" horiz-adv-x="904" unicode="ª"/><glyph d="M343 515l232 -399h-206l-272 390v19l272 390h206zM678 515l232 -399h-206l-272 390v19l272 390h206z" glyph-name="guillemotleft" horiz-adv-x="1054" unicode="«"/><glyph d="M960 374h-200v260h-635v171h835v-431z" glyph-name="logicalnot" horiz-adv-x="1124" unicode="¬"/><glyph d="M724 497h-589v261h589v-261z" glyph-name="uni00AD" horiz-adv-x="875" unicode="­"/><glyph d="M85 729q0 315 207 531t503 216q295 0 502.5 -216t207.5 -531q0 -316 -208 -533t-502 -217q-296 0 -503 217t-207 533zM207 729q0 -264 171.5 -444.5t416.5 -180.5q244 0 415.5 180.5t171.5 444.5q0 263 -171.5 442.5t-415.5 179.5q-246 0 -417 -179.5t-171 -442.5z M651 653v-337h-151v850h281q151 0 238 -69t87 -195q0 -56 -27.5 -98.5t-79.5 -71.5q55 -31 79.5 -86.5t24.5 -130.5v-56q0 -41 3.5 -73.5t13.5 -53.5v-16h-155q-9 21 -11 61.5t-2 82.5v54q0 71 -33.5 105t-109.5 34h-158zM651 787h128q74 0 125.5 30t51.5 86q0 72 -39 101 t-136 29h-130v-246z" glyph-name="registered" horiz-adv-x="1608" unicode="®"/><glyph d="M895 1285h-734v173h734v-173z" glyph-name="macron" horiz-adv-x="1065" unicode="¯"/><glyph d="M895 1285h-734v173h734v-173z" glyph-name="macron" horiz-adv-x="1065" unicode="ˉ"/><glyph d="M125 1197q0 115 82.5 198t198.5 83q113 0 194 -83t81 -198q0 -116 -81 -196.5t-194 -80.5q-116 0 -198.5 80.5t-82.5 196.5zM280 1197q0 -53 37 -88.5t89 -35.5q51 0 86 35t35 89t-35 91t-86 37q-52 0 -89 -37t-37 -91z" glyph-name="degree" horiz-adv-x="813" unicode="°"/><glyph d="M688 994h312v-271h-312v-368h-293v368h-311v271h311v339h293v-339zM937 -66h-834v264h834v-264z" glyph-name="plusminus" horiz-adv-x="1103" unicode="±"/><glyph d="M746 667h-637v167l313 247q56 46 72 78t16 72q0 35 -21.5 58.5t-67.5 23.5q-49 0 -73 -28.5t-24 -75.5h-219l-2 6q-6 109 84.5 186.5t241.5 77.5q148 0 228.5 -65.5t80.5 -183.5q0 -84 -58.5 -150.5t-186.5 -166.5l-86 -73l2 -6h337v-167z" glyph-name="twosuperior" horiz-adv-x="856" unicode="²"/><glyph d="M400 1139q60 0 88.5 23t28.5 67q0 35 -24.5 59t-73.5 24t-74 -21t-25 -48h-218l-2 6q-6 105 83.5 167t227.5 62q154 0 245 -59.5t91 -169.5q0 -55 -35.5 -100.5t-96.5 -70.5q71 -24 108.5 -71.5t37.5 -115.5q0 -113 -89 -174.5t-245 -61.5q-155 0 -250.5 65t-89.5 180 l2 6h219q0 -41 28.5 -62.5t87.5 -21.5q48 0 78.5 21.5t30.5 63.5q0 45 -34.5 71.5t-98.5 26.5h-101v134h101z" glyph-name="threesuperior" horiz-adv-x="846" unicode="³"/><glyph d="M313 1518h371l2 -6l-281 -260h-298z" glyph-name="acute" horiz-adv-x="762" unicode="´"/><glyph d="M470 1082v-620q0 -127 39.5 -173t123.5 -46q65 0 110 23t71 68v748h337v-1082h-317l-5 53q-43 -37 -96 -55.5t-114 -18.5q-43 0 -80 8.5t-69 25.5v-429h-338v1498h338z" glyph-name="mu" horiz-adv-x="1313" unicode="µ"/><glyph d="M635 0v520h-83q-233 0 -362.5 129.5t-129.5 338.5q0 207 129.5 337.5t362.5 130.5h422v-1456h-339z" glyph-name="paragraph" horiz-adv-x="1113" unicode="¶"/><glyph d="M496 539h-338v284h338v-284z" glyph-name="periodcentered" horiz-adv-x="657" unicode="·"/><glyph d="M373 10l-10 -61q64 -11 107 -52t43 -121q0 -114 -97 -181t-277 -67l-7 186q41 0 64.5 19t23.5 58q0 38 -30.5 53.5t-103.5 19.5l31 146h256z" glyph-name="cedilla" horiz-adv-x="569" unicode="¸"/><glyph d="M425 665h-228v619h-127v170l355 23v-812z" glyph-name="onesuperior" horiz-adv-x="579" unicode="¹"/><glyph d="M117 1142q0 148 94 241.5t252 93.5t252.5 -93.5t94.5 -241.5v-117q0 -149 -94 -241.5t-251 -92.5q-159 0 -253.5 92.5t-94.5 241.5v117zM292 1025q0 -85 44 -136.5t129 -51.5q82 0 126 51.5t44 136.5v117q0 83 -44.5 135t-127.5 52q-84 0 -127.5 -52t-43.5 -135v-117z" glyph-name="ordmasculine" horiz-adv-x="938" unicode="º"/><glyph d="M330 550l-232 400h207l272 -390v-19l-272 -390h-207zM676 550l-232 400h207l272 -390v-19l-272 -390h-207z" glyph-name="guillemotright" horiz-adv-x="1054" unicode="»"/><glyph d="M514 664h-228v619h-127v170l355 23v-812zM452 117l-157 79l711 1138l157 -79zM1404 302h89v-168h-89v-134h-230v134h-407l-16 137l423 527v3h230v-499zM986 307l3 -5h185v234l-6 2l-14 -20z" glyph-name="onequarter" horiz-adv-x="1441" unicode="¼"/><glyph d="M465 117l-157 79l711 1138l157 -79zM514 664h-228v619h-127v170l355 23v-812zM1557 0h-637v167l313 247q56 46 72 78t16 72q0 35 -21.5 58.5t-67.5 23.5q-49 0 -73 -28.5t-24 -75.5h-219l-2 6q-6 109 84.5 186.5t241.5 77.5q148 0 228.5 -65.5t80.5 -183.5 q0 -84 -58.5 -150.5t-186.5 -166.5l-86 -73l2 -6h337v-167z" glyph-name="onehalf" horiz-adv-x="1473" unicode="½"/><glyph d="M635 117l-157 79l711 1138l157 -79zM1593 302h89v-168h-89v-134h-230v134h-407l-16 137l423 527v3h230v-499zM1175 307l3 -5h185v234l-6 2l-14 -20zM416 1140q60 0 88.5 23t28.5 67q0 35 -24.5 59t-73.5 24t-74 -21t-25 -48h-218l-2 6q-6 105 83.5 167t227.5 62 q154 0 245 -59.5t91 -169.5q0 -55 -35.5 -100.5t-96.5 -70.5q71 -24 108.5 -71.5t37.5 -115.5q0 -113 -89 -174.5t-245 -61.5q-155 0 -250.5 65t-89.5 180l2 6h219q0 -41 28.5 -62.5t87.5 -21.5q48 0 78.5 21.5t30.5 63.5q0 45 -34.5 71.5t-98.5 26.5h-101v134h101z" glyph-name="threequarters" horiz-adv-x="1683" unicode="¾"/><glyph d="M766 666q-2 -140 -51 -210t-178 -160q-68 -43 -106 -105t-38 -142q0 -84 44.5 -134t129.5 -50q66 0 110.5 41t47.5 122h329l2 -6q2 -208 -133.5 -312.5t-355.5 -104.5q-240 0 -376 120t-136 324q0 124 74.5 229t189.5 166q63 41 86 89.5t23 132.5h338zM429 1082h336v-270 h-336v270z" glyph-name="questiondown" horiz-adv-x="1047" unicode="¿"/><glyph d="M878 283h-433l-84 -283h-356l475 1456h181v-1l1 1h181l476 -1456h-356zM523 543h277l-136 452h-6zM824 1599h-297l-283 260l2 6h370z" glyph-name="Agrave" horiz-adv-x="1307" unicode="À"/><glyph d="M878 283h-433l-84 -283h-356l475 1456h181v-1l1 1h181l476 -1456h-356zM523 543h277l-136 452h-6zM695 1867h371l2 -6l-281 -260h-298z" glyph-name="Aacute" horiz-adv-x="1307" unicode="Á"/><glyph d="M878 283h-433l-84 -283h-356l475 1456h181v-1l1 1h181l476 -1456h-356zM523 543h277l-136 452h-6zM1057 1609v-22h-265l-137 126l-136 -126h-260v26l300 240h193z" glyph-name="Acircumflex" horiz-adv-x="1307" unicode="Â"/><glyph d="M878 283h-433l-84 -283h-356l475 1456h181v-1l1 1h181l476 -1456h-356zM523 543h277l-136 452h-6zM1043 1861q0 -96 -60 -164.5t-150 -68.5q-70 0 -164.5 42t-146.5 42q-33 0 -55 -32.5t-22 -77.5l-178 50q0 94 59.5 163.5t149.5 69.5q56 0 157.5 -41.5t153.5 -41.5 q31 0 54.5 32t23.5 78z" glyph-name="Atilde" horiz-adv-x="1307" unicode="Ã"/><glyph d="M878 283h-433l-84 -283h-356l475 1456h181v-1l1 1h181l476 -1456h-356zM523 543h277l-136 452h-6zM1058 1601h-290v204h290v-204zM543 1601h-290v204h290v-204z" glyph-name="Adieresis" horiz-adv-x="1307" unicode="Ä"/><glyph d="M878 283h-433l-84 -283h-356l475 1456h181v-1l1 1h181l476 -1456h-356zM523 543h277l-136 452h-6zM464 1751q0 73 55.5 123t138.5 50q81 0 136 -50t55 -123q0 -74 -55 -122t-136 -48q-83 0 -138.5 48t-55.5 122zM587 1751q0 -31 20 -50.5t51 -19.5q29 0 47.5 19t18.5 51 t-18.5 52t-47.5 20q-31 0 -51 -20t-20 -52z" glyph-name="Aring" horiz-adv-x="1307" unicode="Å"/><glyph d="M1847 0h-897l-14 329h-383l-152 -329h-390l735 1456h1040v-264h-549l13 -316h455v-264h-444l15 -348h571v-264zM678 599h247l-20 475l-6 1z" glyph-name="AE" horiz-adv-x="1916" unicode="Æ"/><glyph d="M1234 491l2 -6q4 -249 -140.5 -377.5t-409.5 -128.5q-270 0 -433.5 165t-163.5 432v304q0 266 157.5 431.5t416.5 165.5q277 0 428.5 -129t147.5 -375l-3 -6h-329q0 134 -57 192t-187 58q-114 0 -175 -91.5t-61 -243.5v-306q0 -153 67 -245t192 -92q116 0 167.5 58 t51.5 194h329zM793 10l-10 -61q64 -11 107 -52t43 -121q0 -114 -97 -181t-277 -67l-7 186q41 0 64.5 19t23.5 58q0 38 -30.5 53.5t-103.5 19.5l31 146h256z" glyph-name="Ccedilla" horiz-adv-x="1307" unicode="Ç"/><glyph d="M967 623h-513v-363h615v-260h-953v1456h954v-260h-616v-313h513v-260zM762 1599h-297l-283 260l2 6h370z" glyph-name="Egrave" horiz-adv-x="1143" unicode="È"/><glyph d="M967 623h-513v-363h615v-260h-953v1456h954v-260h-616v-313h513v-260zM633 1867h371l2 -6l-281 -260h-298z" glyph-name="Eacute" horiz-adv-x="1143" unicode="É"/><glyph d="M967 623h-513v-363h615v-260h-953v1456h954v-260h-616v-313h513v-260zM995 1609v-22h-265l-137 126l-136 -126h-260v26l300 240h193z" glyph-name="Ecircumflex" horiz-adv-x="1143" unicode="Ê"/><glyph d="M967 623h-513v-363h615v-260h-953v1456h954v-260h-616v-313h513v-260zM996 1601h-290v204h290v-204zM481 1601h-290v204h290v-204z" glyph-name="Edieresis" horiz-adv-x="1143" unicode="Ë"/><glyph d="M474 0h-337v1456h337v-1456zM475 1599h-297l-283 260l2 6h370z" glyph-name="Igrave" horiz-adv-x="611" unicode="Ì"/><glyph d="M474 0h-337v1456h337v-1456zM345 1867h371l2 -6l-281 -260h-298z" glyph-name="Iacute" horiz-adv-x="611" unicode="Í"/><glyph d="M474 0h-337v1456h337v-1456zM708 1609v-22h-265l-137 126l-136 -126h-260v26l300 240h193z" glyph-name="Icircumflex" horiz-adv-x="611" unicode="Î"/><glyph d="M474 0h-337v1456h337v-1456zM709 1601h-290v204h290v-204zM194 1601h-290v204h290v-204z" glyph-name="Idieresis" horiz-adv-x="611" unicode="Ï"/><glyph d="M116 0v647h-120v191h120v618h533q257 0 430 -167.5t173 -429.5v-262q0 -263 -173 -430t-430 -167h-533zM682 647h-228v-387h195q115 0 189.5 94t74.5 243v264q0 147 -74.5 241t-189.5 94h-195v-358h228v-191z" glyph-name="Eth" horiz-adv-x="1338" unicode="Ð"/><glyph d="M1330 0h-337l-533 916l-6 -2v-914h-338v1456h338l533 -915l6 2v913h337v-1456zM1111 1861q0 -96 -60 -164.5t-150 -68.5q-70 0 -164.5 42t-146.5 42q-33 0 -55 -32.5t-22 -77.5l-178 50q0 94 59.5 163.5t149.5 69.5q56 0 157.5 -41.5t153.5 -41.5q31 0 54.5 32t23.5 78z" glyph-name="Ntilde" horiz-adv-x="1446" unicode="Ñ"/><glyph d="M1326 597q0 -269 -170.5 -443.5t-445.5 -174.5q-277 0 -449 174.5t-172 443.5v262q0 268 171.5 443t447.5 175q274 0 446 -175t172 -443v-262zM989 861q0 156 -73.5 256t-207.5 100q-137 0 -209.5 -99.5t-72.5 -256.5v-264q0 -158 73.5 -258t210.5 -100q133 0 206 100 t73 258v264zM877 1620h-297l-283 260l2 6h370z" glyph-name="Ograve" horiz-adv-x="1416" unicode="Ò"/><glyph d="M1326 597q0 -269 -170.5 -443.5t-445.5 -174.5q-277 0 -449 174.5t-172 443.5v262q0 268 171.5 443t447.5 175q274 0 446 -175t172 -443v-262zM989 861q0 156 -73.5 256t-207.5 100q-137 0 -209.5 -99.5t-72.5 -256.5v-264q0 -158 73.5 -258t210.5 -100q133 0 206 100 t73 258v264zM748 1888h371l2 -6l-281 -260h-298z" glyph-name="Oacute" horiz-adv-x="1416" unicode="Ó"/><glyph d="M1326 597q0 -269 -170.5 -443.5t-445.5 -174.5q-277 0 -449 174.5t-172 443.5v262q0 268 171.5 443t447.5 175q274 0 446 -175t172 -443v-262zM989 861q0 156 -73.5 256t-207.5 100q-137 0 -209.5 -99.5t-72.5 -256.5v-264q0 -158 73.5 -258t210.5 -100q133 0 206 100 t73 258v264zM1110 1630v-22h-265l-137 126l-136 -126h-260v26l300 240h193z" glyph-name="Ocircumflex" horiz-adv-x="1416" unicode="Ô"/><glyph d="M1326 597q0 -269 -170.5 -443.5t-445.5 -174.5q-277 0 -449 174.5t-172 443.5v262q0 268 171.5 443t447.5 175q274 0 446 -175t172 -443v-262zM989 861q0 156 -73.5 256t-207.5 100q-137 0 -209.5 -99.5t-72.5 -256.5v-264q0 -158 73.5 -258t210.5 -100q133 0 206 100 t73 258v264zM1096 1882q0 -96 -60 -164.5t-150 -68.5q-70 0 -164.5 42t-146.5 42q-33 0 -55 -32.5t-22 -77.5l-178 50q0 94 59.5 163.5t149.5 69.5q56 0 157.5 -41.5t153.5 -41.5q31 0 54.5 32t23.5 78z" glyph-name="Otilde" horiz-adv-x="1416" unicode="Õ"/><glyph d="M1326 597q0 -269 -170.5 -443.5t-445.5 -174.5q-277 0 -449 174.5t-172 443.5v262q0 268 171.5 443t447.5 175q274 0 446 -175t172 -443v-262zM989 861q0 156 -73.5 256t-207.5 100q-137 0 -209.5 -99.5t-72.5 -256.5v-264q0 -158 73.5 -258t210.5 -100q133 0 206 100 t73 258v264zM1111 1622h-290v204h290v-204zM596 1622h-290v204h290v-204z" glyph-name="Odieresis" horiz-adv-x="1416" unicode="Ö"/><glyph d="M53 381l299 305l-299 306l193 183l293 -299l293 299l193 -183l-300 -306l300 -305l-193 -183l-293 298l-293 -298z" glyph-name="multiply" horiz-adv-x="1083" unicode="×"/><glyph d="M1326 597q0 -269 -170.5 -443.5t-445.5 -174.5q-78 0 -149 15t-133 44l-77 -133h-140l112 194q-112 83 -173 212.5t-61 285.5v262q0 268 171.5 443t447.5 175q101 0 190.5 -26t163.5 -74l82 141h140l-127 -219q81 -84 125 -196.5t44 -243.5v-262zM426 597q0 -66 13 -123 t38 -97l6 -1l430 744q-37 46 -88.5 71.5t-116.5 25.5q-137 0 -209.5 -99.5t-72.5 -256.5v-264zM989 861q0 31 -3.5 61.5t-9.5 52.5l-6 1l-404 -698q30 -20 66 -29.5t78 -9.5q133 0 206 100t73 258v264z" glyph-name="Oslash" horiz-adv-x="1416" unicode="Ø"/><glyph d="M1309 1456v-944q0 -250 -166 -391.5t-433 -141.5q-269 0 -436 141.5t-167 391.5v944h339v-944q0 -135 70 -204t194 -69q123 0 191.5 68.5t68.5 204.5v944h339zM877 1599h-297l-283 260l2 6h370z" glyph-name="Ugrave" horiz-adv-x="1417" unicode="Ù"/><glyph d="M1309 1456v-944q0 -250 -166 -391.5t-433 -141.5q-269 0 -436 141.5t-167 391.5v944h339v-944q0 -135 70 -204t194 -69q123 0 191.5 68.5t68.5 204.5v944h339zM748 1867h371l2 -6l-281 -260h-298z" glyph-name="Uacute" horiz-adv-x="1417" unicode="Ú"/><glyph d="M1309 1456v-944q0 -250 -166 -391.5t-433 -141.5q-269 0 -436 141.5t-167 391.5v944h339v-944q0 -135 70 -204t194 -69q123 0 191.5 68.5t68.5 204.5v944h339zM1110 1609v-22h-265l-137 126l-136 -126h-260v26l300 240h193z" glyph-name="Ucircumflex" horiz-adv-x="1417" unicode="Û"/><glyph d="M1309 1456v-944q0 -250 -166 -391.5t-433 -141.5q-269 0 -436 141.5t-167 391.5v944h339v-944q0 -135 70 -204t194 -69q123 0 191.5 68.5t68.5 204.5v944h339zM1111 1601h-290v204h290v-204zM596 1601h-290v204h290v-204z" glyph-name="Udieresis" horiz-adv-x="1417" unicode="Ü"/><glyph d="M650 820h6l290 636h366l-494 -944v-512h-337v527l-486 929h366zM702 1867h371l2 -6l-281 -260h-298z" glyph-name="Yacute" horiz-adv-x="1307" unicode="Ý"/><glyph d="M455 1456v-258h198q266 0 413.5 -126.5t147.5 -333.5t-148 -333.5t-413 -126.5h-198v-278h-339v1456h339zM455 938v-400h198q112 0 167 56t55 142q0 87 -55 144.5t-167 57.5h-198z" glyph-name="Thorn" horiz-adv-x="1266" unicode="Þ"/><glyph d="M472 0h-338v1112q0 226 134 347.5t377 121.5q190 0 317.5 -100.5t127.5 -279.5q0 -102 -47.5 -192.5t-47.5 -166.5q0 -43 138 -184t138 -281q0 -200 -120 -299t-357 -99q-80 0 -154.5 12.5t-113.5 35.5l59 256q36 -19 89.5 -31.5t121.5 -12.5q61 0 100 33t39 92 q0 65 -138.5 194.5t-138.5 268.5q0 96 47 190.5t47 169.5q0 53 -43 94t-97 41q-62 0 -101 -59t-39 -157v-1106z" glyph-name="germandbls" horiz-adv-x="1330" unicode="ß"/><glyph d="M721 1q-19 34 -32.5 77t-20.5 90q-44 -86 -108.5 -137.5t-168.5 -51.5q-170 0 -264.5 87.5t-94.5 238.5q0 161 121 248.5t367 87.5h139v77q0 69 -33 106t-101 37q-59 0 -87.5 -27.5t-28.5 -85.5l-328 1l-2 6q-7 148 123.5 247.5t344.5 99.5q201 0 325.5 -100t124.5 -286 v-408q0 -86 14.5 -160t43.5 -148zM483 220q62 0 109.5 29t66.5 69v143h-136q-81 0 -117 -39t-36 -99q0 -46 31.5 -74.5t81.5 -28.5zM710 1277h-297l-283 260l2 6h370z" glyph-name="agrave" horiz-adv-x="1086" unicode="à"/><glyph d="M721 1q-19 34 -32.5 77t-20.5 90q-44 -86 -108.5 -137.5t-168.5 -51.5q-170 0 -264.5 87.5t-94.5 238.5q0 161 121 248.5t367 87.5h139v77q0 69 -33 106t-101 37q-59 0 -87.5 -27.5t-28.5 -85.5l-328 1l-2 6q-7 148 123.5 247.5t344.5 99.5q201 0 325.5 -100t124.5 -286 v-408q0 -86 14.5 -160t43.5 -148zM483 220q62 0 109.5 29t66.5 69v143h-136q-81 0 -117 -39t-36 -99q0 -46 31.5 -74.5t81.5 -28.5zM581 1545h371l2 -6l-281 -260h-298z" glyph-name="aacute" horiz-adv-x="1086" unicode="á"/><glyph d="M721 1q-19 34 -32.5 77t-20.5 90q-44 -86 -108.5 -137.5t-168.5 -51.5q-170 0 -264.5 87.5t-94.5 238.5q0 161 121 248.5t367 87.5h139v77q0 69 -33 106t-101 37q-59 0 -87.5 -27.5t-28.5 -85.5l-328 1l-2 6q-7 148 123.5 247.5t344.5 99.5q201 0 325.5 -100t124.5 -286 v-408q0 -86 14.5 -160t43.5 -148zM483 220q62 0 109.5 29t66.5 69v143h-136q-81 0 -117 -39t-36 -99q0 -46 31.5 -74.5t81.5 -28.5zM943 1287v-22h-265l-137 126l-136 -126h-260v26l300 240h193z" glyph-name="acircumflex" horiz-adv-x="1086" unicode="â"/><glyph d="M721 1q-19 34 -32.5 77t-20.5 90q-44 -86 -108.5 -137.5t-168.5 -51.5q-170 0 -264.5 87.5t-94.5 238.5q0 161 121 248.5t367 87.5h139v77q0 69 -33 106t-101 37q-59 0 -87.5 -27.5t-28.5 -85.5l-328 1l-2 6q-7 148 123.5 247.5t344.5 99.5q201 0 325.5 -100t124.5 -286 v-408q0 -86 14.5 -160t43.5 -148zM483 220q62 0 109.5 29t66.5 69v143h-136q-81 0 -117 -39t-36 -99q0 -46 31.5 -74.5t81.5 -28.5zM929 1539q0 -96 -60 -164.5t-150 -68.5q-70 0 -164.5 42t-146.5 42q-33 0 -55 -32.5t-22 -77.5l-178 50q0 94 59.5 163.5t149.5 69.5 q56 0 157.5 -41.5t153.5 -41.5q31 0 54.5 32t23.5 78z" glyph-name="atilde" horiz-adv-x="1086" unicode="ã"/><glyph d="M721 1q-19 34 -32.5 77t-20.5 90q-44 -86 -108.5 -137.5t-168.5 -51.5q-170 0 -264.5 87.5t-94.5 238.5q0 161 121 248.5t367 87.5h139v77q0 69 -33 106t-101 37q-59 0 -87.5 -27.5t-28.5 -85.5l-328 1l-2 6q-7 148 123.5 247.5t344.5 99.5q201 0 325.5 -100t124.5 -286 v-408q0 -86 14.5 -160t43.5 -148zM483 220q62 0 109.5 29t66.5 69v143h-136q-81 0 -117 -39t-36 -99q0 -46 31.5 -74.5t81.5 -28.5zM945 1279h-290v204h290v-204zM430 1279h-290v204h290v-204z" glyph-name="adieresis" horiz-adv-x="1086" unicode="ä"/><glyph d="M721 1q-19 34 -32.5 77t-20.5 90q-44 -86 -108.5 -137.5t-168.5 -51.5q-170 0 -264.5 87.5t-94.5 238.5q0 161 121 248.5t367 87.5h139v77q0 69 -33 106t-101 37q-59 0 -87.5 -27.5t-28.5 -85.5l-328 1l-2 6q-7 148 123.5 247.5t344.5 99.5q201 0 325.5 -100t124.5 -286 v-408q0 -86 14.5 -160t43.5 -148zM483 220q62 0 109.5 29t66.5 69v143h-136q-81 0 -117 -39t-36 -99q0 -46 31.5 -74.5t81.5 -28.5zM350 1429q0 73 55.5 123t138.5 50q81 0 136 -50t55 -123q0 -74 -55 -122t-136 -48q-83 0 -138.5 48t-55.5 122zM473 1429q0 -31 20 -50.5 t51 -19.5q29 0 47.5 19t18.5 51t-18.5 52t-47.5 20q-31 0 -51 -20t-20 -52z" glyph-name="aring" horiz-adv-x="1086" unicode="å"/><glyph d="M1275 -21q-126 0 -224.5 37.5t-165.5 107.5q-60 -64 -157 -104.5t-227 -40.5q-203 0 -313.5 92.5t-110.5 252.5q0 159 132.5 245t387.5 86h157v46q0 66 -35 103.5t-98 37.5q-70 0 -109.5 -29t-39.5 -73l-329 18l-1 6q-7 147 127 242.5t356 95.5q97 0 179 -22.5t143 -66.5 q61 43 140.5 66t176.5 23q211 0 334.5 -132.5t123.5 -357.5v-177h-620l-2 -6q4 -88 58 -139t163 -51q87 0 148.5 16t136.5 51l81 -206q-67 -51 -179.5 -86t-232.5 -35zM565 211q49 0 102.5 24t86.5 58v158h-155q-87 0 -135.5 -38.5t-48.5 -92.5q0 -52 37 -80.5t113 -28.5z M1264 842q-86 0 -124 -50.5t-42 -140.5l2 -5h293v26q0 80 -34 125t-95 45z" glyph-name="ae" horiz-adv-x="1763" unicode="æ"/><glyph d="M559 239q69 0 103 37.5t34 108.5h308l2 -6q4 -177 -122.5 -288.5t-324.5 -111.5q-247 0 -380.5 152.5t-133.5 397.5v23q0 244 133 397t379 153q206 0 329.5 -114.5t119.5 -313.5l-2 -6h-308q0 77 -35 125.5t-104 48.5q-98 0 -136.5 -78.5t-38.5 -211.5v-23 q0 -136 38.5 -213t138.5 -77zM689 10l-10 -61q64 -11 107 -52t43 -121q0 -114 -97 -181t-277 -67l-7 186q41 0 64.5 19t23.5 58q0 38 -30.5 53.5t-103.5 19.5l31 146h256z" glyph-name="ccedilla" horiz-adv-x="1048" unicode="ç"/><glyph d="M576 -21q-246 0 -385.5 149t-139.5 377v38q0 248 131.5 404t380.5 155q219 0 339.5 -131t120.5 -359v-177h-620l-2 -6q8 -85 63 -137.5t158 -52.5q97 0 161.5 16t147.5 51l81 -206q-70 -51 -188 -86t-248 -35zM563 842q-81 0 -119.5 -51.5t-44.5 -139.5l2 -5h292v26 q0 84 -29.5 127t-100.5 43zM708 1278h-297l-283 260l2 6h370z" glyph-name="egrave" horiz-adv-x="1070" unicode="è"/><glyph d="M576 -21q-246 0 -385.5 149t-139.5 377v38q0 248 131.5 404t380.5 155q219 0 339.5 -131t120.5 -359v-177h-620l-2 -6q8 -85 63 -137.5t158 -52.5q97 0 161.5 16t147.5 51l81 -206q-70 -51 -188 -86t-248 -35zM563 842q-81 0 -119.5 -51.5t-44.5 -139.5l2 -5h292v26 q0 84 -29.5 127t-100.5 43zM579 1546h371l2 -6l-281 -260h-298z" glyph-name="eacute" horiz-adv-x="1070" unicode="é"/><glyph d="M576 -21q-246 0 -385.5 149t-139.5 377v38q0 248 131.5 404t380.5 155q219 0 339.5 -131t120.5 -359v-177h-620l-2 -6q8 -85 63 -137.5t158 -52.5q97 0 161.5 16t147.5 51l81 -206q-70 -51 -188 -86t-248 -35zM563 842q-81 0 -119.5 -51.5t-44.5 -139.5l2 -5h292v26 q0 84 -29.5 127t-100.5 43zM941 1288v-22h-265l-137 126l-136 -126h-260v26l300 240h193z" glyph-name="ecircumflex" horiz-adv-x="1070" unicode="ê"/><glyph d="M576 -21q-246 0 -385.5 149t-139.5 377v38q0 248 131.5 404t380.5 155q219 0 339.5 -131t120.5 -359v-177h-620l-2 -6q8 -85 63 -137.5t158 -52.5q97 0 161.5 16t147.5 51l81 -206q-70 -51 -188 -86t-248 -35zM563 842q-81 0 -119.5 -51.5t-44.5 -139.5l2 -5h292v26 q0 84 -29.5 127t-100.5 43zM943 1280h-290v204h290v-204zM428 1280h-290v204h290v-204z" glyph-name="edieresis" horiz-adv-x="1070" unicode="ë"/><glyph d="M462 0h-339v1082h339v-1082zM463 1256h-297l-283 260l2 6h370z" glyph-name="igrave" horiz-adv-x="584" unicode="ì"/><glyph d="M462 0h-339v1082h339v-1082zM333 1524h371l2 -6l-281 -260h-298z" glyph-name="iacute" horiz-adv-x="584" unicode="í"/><glyph d="M462 0h-339v1082h339v-1082zM696 1267v-22h-265l-137 126l-136 -126h-260v26l300 240h193z" glyph-name="icircumflex" horiz-adv-x="584" unicode="î"/><glyph d="M462 0h-339v1082h339v-1082zM697 1258h-290v204h290v-204zM182 1258h-290v204h290v-204z" glyph-name="idieresis" horiz-adv-x="584" unicode="ï"/><glyph d="M945 1286q106 -106 164.5 -246t58.5 -304v-183q0 -253 -163.5 -413.5t-408.5 -160.5q-248 0 -403.5 140.5t-155.5 348.5q0 226 132 359.5t372 133.5q77 0 145.5 -21.5t119.5 -59.5l4 5q-16 72 -55 134t-94 112l-223 -121l-78 118l162 88l-1 6q-29 14 -64.5 27.5 t-72.5 23.5l107 244q93 -19 177 -53t158 -82l188 102l77 -118zM600 239q108 0 169 87.5t61 226.5v95q-33 31 -89.5 51.5t-130.5 20.5q-118 0 -177 -66.5t-59 -185.5q0 -101 61.5 -165t164.5 -64z" glyph-name="eth" horiz-adv-x="1226" unicode="ð"/><glyph d="M407 1082l13 -152q53 81 131 126.5t174 45.5q159 0 248.5 -108t89.5 -343v-651h-338v652q0 103 -33 146.5t-96 43.5q-54 0 -97 -19t-72 -54v-769h-337v1082h317zM964 1539q0 -96 -60 -164.5t-150 -68.5q-70 0 -164.5 42t-146.5 42q-33 0 -55 -32.5t-22 -77.5l-178 50 q0 94 59.5 163.5t149.5 69.5q56 0 157.5 -41.5t153.5 -41.5q31 0 54.5 32t23.5 78z" glyph-name="ntilde" unicode="ñ"/><glyph d="M51 551q0 244 138 397.5t385 153.5q248 0 386 -153.5t138 -397.5v-21q0 -245 -138 -398t-384 -153q-249 0 -387 153t-138 398v21zM389 530q0 -136 42.5 -213.5t144.5 -77.5q99 0 142 78t43 213v21q0 132 -43 211.5t-144 79.5q-100 0 -142.5 -80t-42.5 -211v-21zM744 1277 h-297l-283 260l2 6h370z" glyph-name="ograve" unicode="ò"/><glyph d="M51 551q0 244 138 397.5t385 153.5q248 0 386 -153.5t138 -397.5v-21q0 -245 -138 -398t-384 -153q-249 0 -387 153t-138 398v21zM389 530q0 -136 42.5 -213.5t144.5 -77.5q99 0 142 78t43 213v21q0 132 -43 211.5t-144 79.5q-100 0 -142.5 -80t-42.5 -211v-21zM615 1545 h371l2 -6l-281 -260h-298z" glyph-name="oacute" unicode="ó"/><glyph d="M51 551q0 244 138 397.5t385 153.5q248 0 386 -153.5t138 -397.5v-21q0 -245 -138 -398t-384 -153q-249 0 -387 153t-138 398v21zM389 530q0 -136 42.5 -213.5t144.5 -77.5q99 0 142 78t43 213v21q0 132 -43 211.5t-144 79.5q-100 0 -142.5 -80t-42.5 -211v-21zM977 1287 v-22h-265l-137 126l-136 -126h-260v26l300 240h193z" glyph-name="ocircumflex" unicode="ô"/><glyph d="M51 551q0 244 138 397.5t385 153.5q248 0 386 -153.5t138 -397.5v-21q0 -245 -138 -398t-384 -153q-249 0 -387 153t-138 398v21zM389 530q0 -136 42.5 -213.5t144.5 -77.5q99 0 142 78t43 213v21q0 132 -43 211.5t-144 79.5q-100 0 -142.5 -80t-42.5 -211v-21zM963 1539 q0 -96 -60 -164.5t-150 -68.5q-70 0 -164.5 42t-146.5 42q-33 0 -55 -32.5t-22 -77.5l-178 50q0 94 59.5 163.5t149.5 69.5q56 0 157.5 -41.5t153.5 -41.5q31 0 54.5 32t23.5 78z" glyph-name="otilde" unicode="õ"/><glyph d="M51 551q0 244 138 397.5t385 153.5q248 0 386 -153.5t138 -397.5v-21q0 -245 -138 -398t-384 -153q-249 0 -387 153t-138 398v21zM389 530q0 -136 42.5 -213.5t144.5 -77.5q99 0 142 78t43 213v21q0 132 -43 211.5t-144 79.5q-100 0 -142.5 -80t-42.5 -211v-21zM978 1279 h-290v204h290v-204zM463 1279h-290v204h290v-204z" glyph-name="odieresis" unicode="ö"/><glyph d="M1103 563h-1044v244h1044v-244zM752 961h-339v245h339v-245zM752 158h-339v246h339v-246z" glyph-name="divide" horiz-adv-x="1166" unicode="÷"/><glyph d="M51 551q0 244 138 397.5t385 153.5q47 0 91 -6.5t86 -18.5l69 142h177l-103 -212q99 -73 151.5 -191t52.5 -265v-21q0 -245 -138 -398t-384 -153q-47 0 -89.5 6t-81.5 17l-71 -147h-177l104 214q-103 72 -156.5 191.5t-53.5 269.5v21zM389 530q0 -47 4 -85t14 -63l6 -1 l220 452q-14 4 -28.5 6.5t-30.5 2.5q-100 0 -142.5 -80t-42.5 -211v-21zM761 551q0 41 -4.5 76.5t-11.5 59.5l-6 1l-215 -443q11 -3 24 -4.5t28 -1.5q99 0 142 78t43 213v21z" glyph-name="oslash" horiz-adv-x="1152" unicode="ø"/><glyph d="M748 162q-48 -88 -124.5 -135.5t-176.5 -47.5q-168 0 -263.5 118t-95.5 365v620h337v-622q0 -127 32.5 -174t100.5 -47q54 0 95 15t70 45v783h338v-1082h-272zM743 1256h-297l-283 260l2 6h370z" glyph-name="ugrave" unicode="ù"/><glyph d="M748 162q-48 -88 -124.5 -135.5t-176.5 -47.5q-168 0 -263.5 118t-95.5 365v620h337v-622q0 -127 32.5 -174t100.5 -47q54 0 95 15t70 45v783h338v-1082h-272zM614 1524h371l2 -6l-281 -260h-298z" glyph-name="uacute" unicode="ú"/><glyph d="M748 162q-48 -88 -124.5 -135.5t-176.5 -47.5q-168 0 -263.5 118t-95.5 365v620h337v-622q0 -127 32.5 -174t100.5 -47q54 0 95 15t70 45v783h338v-1082h-272zM976 1267v-22h-265l-137 126l-136 -126h-260v26l300 240h193z" glyph-name="ucircumflex" unicode="û"/><glyph d="M748 162q-48 -88 -124.5 -135.5t-176.5 -47.5q-168 0 -263.5 118t-95.5 365v620h337v-622q0 -127 32.5 -174t100.5 -47q54 0 95 15t70 45v783h338v-1082h-272zM977 1258h-290v204h290v-204zM462 1258h-290v204h290v-204z" glyph-name="udieresis" unicode="ü"/><glyph d="M515 477l1 -8h6l179 613h360l-431 -1243q-50 -120 -129 -198t-251 -78q-44 0 -72 5.5t-88 20.5l41 241l21 -4.5t18 -1.5q80 0 117 23.5t55 70.5l27 70l-374 1094h359zM567 1524h371l2 -6l-281 -260h-298z" glyph-name="yacute" horiz-adv-x="1053" unicode="ý"/><glyph d="M1108 518q0 -244 -110 -391.5t-310 -147.5q-79 0 -139.5 30t-104.5 88v-513h-338v416h-1v1560h339v-584q44 61 104 93.5t138 32.5q201 0 311.5 -155t110.5 -408v-21zM771 539q0 137 -40 220t-128 83q-57 0 -96.5 -21t-62.5 -61v-452q24 -35 63.5 -52t97.5 -17 q89 0 127.5 73.5t38.5 205.5v21z" glyph-name="thorn" horiz-adv-x="1149" unicode="þ"/><glyph d="M515 477l1 -8h6l179 613h360l-431 -1243q-50 -120 -129 -198t-251 -78q-44 0 -72 5.5t-88 20.5l41 241l21 -4.5t18 -1.5q80 0 117 23.5t55 70.5l27 70l-374 1094h359zM931 1258h-290v204h290v-204zM416 1258h-290v204h290v-204z" glyph-name="ydieresis" horiz-adv-x="1053" unicode="ÿ"/><glyph d="M878 283h-433l-84 -283h-356l475 1456h181v-1l1 1h181l476 -1456h-356zM523 543h277l-136 452h-6zM1022 1601h-734v173h734v-173z" glyph-name="Amacron" horiz-adv-x="1307" unicode="Ā"/><glyph d="M721 1q-19 34 -32.5 77t-20.5 90q-44 -86 -108.5 -137.5t-168.5 -51.5q-170 0 -264.5 87.5t-94.5 238.5q0 161 121 248.5t367 87.5h139v77q0 69 -33 106t-101 37q-59 0 -87.5 -27.5t-28.5 -85.5l-328 1l-2 6q-7 148 123.5 247.5t344.5 99.5q201 0 325.5 -100t124.5 -286 v-408q0 -86 14.5 -160t43.5 -148zM483 220q62 0 109.5 29t66.5 69v143h-136q-81 0 -117 -39t-36 -99q0 -46 31.5 -74.5t81.5 -28.5zM908 1280h-734v173h734v-173z" glyph-name="amacron" horiz-adv-x="1086" unicode="ā"/><glyph d="M878 283h-433l-84 -283h-356l475 1456h181v-1l1 1h181l476 -1456h-356zM523 543h277l-136 452h-6zM1017 1908l2 -6q5 -133 -95 -217t-268 -84q-169 0 -269 84t-94 217l2 6h243q0 -47 28.5 -77t89.5 -30q60 0 88.5 30t28.5 77h244z" glyph-name="Abreve" horiz-adv-x="1307" unicode="Ă"/><glyph d="M721 1q-19 34 -32.5 77t-20.5 90q-44 -86 -108.5 -137.5t-168.5 -51.5q-170 0 -264.5 87.5t-94.5 238.5q0 161 121 248.5t367 87.5h139v77q0 69 -33 106t-101 37q-59 0 -87.5 -27.5t-28.5 -85.5l-328 1l-2 6q-7 148 123.5 247.5t344.5 99.5q201 0 325.5 -100t124.5 -286 v-408q0 -86 14.5 -160t43.5 -148zM483 220q62 0 109.5 29t66.5 69v143h-136q-81 0 -117 -39t-36 -99q0 -46 31.5 -74.5t81.5 -28.5zM903 1586l2 -6q5 -133 -95 -217t-268 -84q-169 0 -269 84t-94 217l2 6h243q0 -47 28.5 -77t89.5 -30q60 0 88.5 30t28.5 77h244z" glyph-name="abreve" horiz-adv-x="1086" unicode="ă"/><glyph d="M878 283h-433l-84 -283h-356l475 1456h181v-1l1 1h181l476 -1456h-356zM523 543h277l-136 452h-6zM1204 0q-44 -53 -62 -85t-18 -79q0 -19 14 -39t66 -20q28 0 49 5t42 13l36 -168q-36 -19 -80.5 -31.5t-105.5 -12.5q-115 0 -189 56.5t-74 157.5q0 75 39 142.5t121 120.5 z" glyph-name="Aogonek" horiz-adv-x="1307" unicode="Ą"/><glyph d="M721 1q-19 34 -32.5 77t-20.5 90q-44 -86 -108.5 -137.5t-168.5 -51.5q-170 0 -264.5 87.5t-94.5 238.5q0 161 121 248.5t367 87.5h139v77q0 69 -33 106t-101 37q-59 0 -87.5 -27.5t-28.5 -85.5l-328 1l-2 6q-7 148 123.5 247.5t344.5 99.5q201 0 325.5 -100t124.5 -286 v-408q0 -86 14.5 -160t43.5 -148zM483 220q62 0 109.5 29t66.5 69v143h-136q-81 0 -117 -39t-36 -99q0 -46 31.5 -74.5t81.5 -28.5zM939 0q-44 -53 -62 -85t-18 -79q0 -19 14 -39t66 -20q28 0 49 5t42 13l36 -168q-36 -19 -80.5 -31.5t-105.5 -12.5q-115 0 -189 56.5 t-74 157.5q0 75 39 142.5t121 120.5z" glyph-name="aogonek" horiz-adv-x="1086" unicode="ą"/><glyph d="M1234 491l2 -6q4 -249 -140.5 -377.5t-409.5 -128.5q-270 0 -433.5 165t-163.5 432v304q0 266 157.5 431.5t416.5 165.5q277 0 428.5 -129t147.5 -375l-3 -6h-329q0 134 -57 192t-187 58q-114 0 -175 -91.5t-61 -243.5v-306q0 -153 67 -245t192 -92q116 0 167.5 58 t51.5 194h329zM720 1888h371l2 -6l-281 -260h-298z" glyph-name="Cacute" horiz-adv-x="1307" unicode="Ć"/><glyph d="M559 239q69 0 103 37.5t34 108.5h308l2 -6q4 -177 -122.5 -288.5t-324.5 -111.5q-247 0 -380.5 152.5t-133.5 397.5v23q0 244 133 397t379 153q206 0 329.5 -114.5t119.5 -313.5l-2 -6h-308q0 77 -35 125.5t-104 48.5q-98 0 -136.5 -78.5t-38.5 -211.5v-23 q0 -136 38.5 -213t138.5 -77zM567 1545h371l2 -6l-281 -260h-298z" glyph-name="cacute" horiz-adv-x="1048" unicode="ć"/><glyph d="M1234 491l2 -6q4 -249 -140.5 -377.5t-409.5 -128.5q-270 0 -433.5 165t-163.5 432v304q0 266 157.5 431.5t416.5 165.5q277 0 428.5 -129t147.5 -375l-3 -6h-329q0 134 -57 192t-187 58q-114 0 -175 -91.5t-61 -243.5v-306q0 -153 67 -245t192 -92q116 0 167.5 58 t51.5 194h329zM1082 1630v-22h-265l-137 126l-136 -126h-260v26l300 240h193z" glyph-name="Ccircumflex" horiz-adv-x="1307" unicode="Ĉ"/><glyph d="M559 239q69 0 103 37.5t34 108.5h308l2 -6q4 -177 -122.5 -288.5t-324.5 -111.5q-247 0 -380.5 152.5t-133.5 397.5v23q0 244 133 397t379 153q206 0 329.5 -114.5t119.5 -313.5l-2 -6h-308q0 77 -35 125.5t-104 48.5q-98 0 -136.5 -78.5t-38.5 -211.5v-23 q0 -136 38.5 -213t138.5 -77zM929 1287v-22h-265l-137 126l-136 -126h-260v26l300 240h193z" glyph-name="ccircumflex" horiz-adv-x="1048" unicode="ĉ"/><glyph d="M1234 491l2 -6q4 -249 -140.5 -377.5t-409.5 -128.5q-270 0 -433.5 165t-163.5 432v304q0 266 157.5 431.5t416.5 165.5q277 0 428.5 -129t147.5 -375l-3 -6h-329q0 134 -57 192t-187 58q-114 0 -175 -91.5t-61 -243.5v-306q0 -153 67 -245t192 -92q116 0 167.5 58 t51.5 194h329zM871 1623h-381v260h381v-260z" glyph-name="uni010A" horiz-adv-x="1307" unicode="Ċ"/><glyph d="M559 239q69 0 103 37.5t34 108.5h308l2 -6q4 -177 -122.5 -288.5t-324.5 -111.5q-247 0 -380.5 152.5t-133.5 397.5v23q0 244 133 397t379 153q206 0 329.5 -114.5t119.5 -313.5l-2 -6h-308q0 77 -35 125.5t-104 48.5q-98 0 -136.5 -78.5t-38.5 -211.5v-23 q0 -136 38.5 -213t138.5 -77zM718 1280h-381v260h381v-260z" glyph-name="uni010B" horiz-adv-x="1048" unicode="ċ"/><glyph d="M1234 491l2 -6q4 -249 -140.5 -377.5t-409.5 -128.5q-270 0 -433.5 165t-163.5 432v304q0 266 157.5 431.5t416.5 165.5q277 0 428.5 -129t147.5 -375l-3 -6h-329q0 134 -57 192t-187 58q-114 0 -175 -91.5t-61 -243.5v-306q0 -153 67 -245t192 -92q116 0 167.5 58 t51.5 194h329zM680 1782l102 116h309v-16l-292 -260h-239l-294 262v14h312z" glyph-name="Ccaron" horiz-adv-x="1307" unicode="Č"/><glyph d="M559 239q69 0 103 37.5t34 108.5h308l2 -6q4 -177 -122.5 -288.5t-324.5 -111.5q-247 0 -380.5 152.5t-133.5 397.5v23q0 244 133 397t379 153q206 0 329.5 -114.5t119.5 -313.5l-2 -6h-308q0 77 -35 125.5t-104 48.5q-98 0 -136.5 -78.5t-38.5 -211.5v-23 q0 -136 38.5 -213t138.5 -77zM527 1439l102 116h309v-16l-292 -260h-239l-294 262v14h312z" glyph-name="ccaron" horiz-adv-x="1048" unicode="č"/><glyph d="M116 0v1456h533q257 0 430 -167.5t173 -429.5v-262q0 -263 -173 -430t-430 -167h-533zM454 1196v-936h195q115 0 189.5 94t74.5 243v264q0 147 -74.5 241t-189.5 94h-195zM580 1761l102 116h309v-16l-292 -260h-239l-294 262v14h312z" glyph-name="Dcaron" horiz-adv-x="1338" unicode="Ď"/><glyph d="M51 539q0 253 110.5 408t311.5 155q75 0 135.5 -34.5t108.5 -98.5v591h338v-1560h-296l-23 132q-49 -74 -114.5 -113.5t-150.5 -39.5q-200 0 -310 148t-110 391v21zM389 518q0 -132 38.5 -205.5t129.5 -73.5q53 0 93.5 19.5t66.5 57.5v437q-26 43 -66 66t-92 23 q-90 0 -130 -83t-40 -220v-21zM1398 1388l-133 -235h-134l61 245v161h206v-171z" glyph-name="dcaron" unicode="ď"/><glyph d="M116 0v647h-120v191h120v618h533q257 0 430 -167.5t173 -429.5v-262q0 -263 -173 -430t-430 -167h-533zM682 647h-228v-387h195q115 0 189.5 94t74.5 243v264q0 147 -74.5 241t-189.5 94h-195v-358h228v-191z" glyph-name="Dcroat" horiz-adv-x="1338" unicode="Đ"/><glyph d="M1172 1215h-117v-1215h-296l-23 132q-49 -74 -114.5 -113.5t-150.5 -39.5q-200 0 -310 148t-110 391v21q0 253 110.5 408t311.5 155q75 0 135.5 -34.5t108.5 -98.5v246h-231v191h231v154h338v-154h117v-191zM389 518q0 -132 38.5 -205.5t129.5 -73.5q53 0 93.5 19.5 t66.5 57.5v437q-26 43 -66 66t-92 23q-90 0 -130 -83t-40 -220v-21z" glyph-name="dcroat" unicode="đ"/><glyph d="M967 623h-513v-363h615v-260h-953v1456h954v-260h-616v-313h513v-260zM960 1601h-734v173h734v-173z" glyph-name="Emacron" horiz-adv-x="1143" unicode="Ē"/><glyph d="M576 -21q-246 0 -385.5 149t-139.5 377v38q0 248 131.5 404t380.5 155q219 0 339.5 -131t120.5 -359v-177h-620l-2 -6q8 -85 63 -137.5t158 -52.5q97 0 161.5 16t147.5 51l81 -206q-70 -51 -188 -86t-248 -35zM563 842q-81 0 -119.5 -51.5t-44.5 -139.5l2 -5h292v26 q0 84 -29.5 127t-100.5 43zM906 1281h-734v173h734v-173z" glyph-name="emacron" horiz-adv-x="1070" unicode="ē"/><glyph d="M967 623h-513v-363h615v-260h-953v1456h954v-260h-616v-313h513v-260zM955 1908l2 -6q5 -133 -95 -217t-268 -84q-169 0 -269 84t-94 217l2 6h243q0 -47 28.5 -77t89.5 -30q60 0 88.5 30t28.5 77h244z" glyph-name="Ebreve" horiz-adv-x="1143" unicode="Ĕ"/><glyph d="M576 -21q-246 0 -385.5 149t-139.5 377v38q0 248 131.5 404t380.5 155q219 0 339.5 -131t120.5 -359v-177h-620l-2 -6q8 -85 63 -137.5t158 -52.5q97 0 161.5 16t147.5 51l81 -206q-70 -51 -188 -86t-248 -35zM563 842q-81 0 -119.5 -51.5t-44.5 -139.5l2 -5h292v26 q0 84 -29.5 127t-100.5 43zM901 1587l2 -6q5 -133 -95 -217t-268 -84q-169 0 -269 84t-94 217l2 6h243q0 -47 28.5 -77t89.5 -30q60 0 88.5 30t28.5 77h244z" glyph-name="ebreve" horiz-adv-x="1070" unicode="ĕ"/><glyph d="M967 623h-513v-363h615v-260h-953v1456h954v-260h-616v-313h513v-260zM784 1602h-381v260h381v-260z" glyph-name="Edotaccent" horiz-adv-x="1143" unicode="Ė"/><glyph d="M576 -21q-246 0 -385.5 149t-139.5 377v38q0 248 131.5 404t380.5 155q219 0 339.5 -131t120.5 -359v-177h-620l-2 -6q8 -85 63 -137.5t158 -52.5q97 0 161.5 16t147.5 51l81 -206q-70 -51 -188 -86t-248 -35zM563 842q-81 0 -119.5 -51.5t-44.5 -139.5l2 -5h292v26 q0 84 -29.5 127t-100.5 43zM730 1281h-381v260h381v-260z" glyph-name="edotaccent" horiz-adv-x="1070" unicode="ė"/><glyph d="M967 623h-513v-363h615v-260h-953v1456h954v-260h-616v-313h513v-260zM669 0q-44 -53 -62 -85t-18 -79q0 -19 14 -39t66 -20q28 0 49 5t42 13l36 -168q-36 -19 -80.5 -31.5t-105.5 -12.5q-115 0 -189 56.5t-74 157.5q0 75 39 142.5t121 120.5z" glyph-name="Eogonek" horiz-adv-x="1143" unicode="Ę"/><glyph d="M576 -21q-246 0 -385.5 149t-139.5 377v38q0 248 131.5 404t380.5 155q219 0 339.5 -131t120.5 -359v-177h-620l-2 -6q8 -85 63 -137.5t158 -52.5q97 0 161.5 16t147.5 51l81 -206q-70 -51 -188 -86t-248 -35zM563 842q-81 0 -119.5 -51.5t-44.5 -139.5l2 -5h292v26 q0 84 -29.5 127t-100.5 43zM870 33q-44 -53 -62 -85t-18 -79q0 -19 14 -39t66 -20q28 0 49 5t42 13l36 -168q-36 -19 -80.5 -31.5t-105.5 -12.5q-115 0 -189 56.5t-74 157.5q0 75 39 142.5t121 120.5z" glyph-name="eogonek" horiz-adv-x="1070" unicode="ę"/><glyph d="M967 623h-513v-363h615v-260h-953v1456h954v-260h-616v-313h513v-260zM593 1761l102 116h309v-16l-292 -260h-239l-294 262v14h312z" glyph-name="Ecaron" horiz-adv-x="1143" unicode="Ě"/><glyph d="M576 -21q-246 0 -385.5 149t-139.5 377v38q0 248 131.5 404t380.5 155q219 0 339.5 -131t120.5 -359v-177h-620l-2 -6q8 -85 63 -137.5t158 -52.5q97 0 161.5 16t147.5 51l81 -206q-70 -51 -188 -86t-248 -35zM563 842q-81 0 -119.5 -51.5t-44.5 -139.5l2 -5h292v26 q0 84 -29.5 127t-100.5 43zM539 1440l102 116h309v-16l-292 -260h-239l-294 262v14h312z" glyph-name="ecaron" horiz-adv-x="1070" unicode="ě"/><glyph d="M1266 201q-76 -92 -214 -157t-355 -65q-271 0 -440 166t-169 431v304q0 263 164.5 430t423.5 167q279 0 421.5 -124.5t137.5 -340.5l-2 -6h-317q0 107 -57 159t-172 52q-118 0 -190 -93t-72 -242v-306q0 -152 71.5 -244.5t200.5 -92.5q93 0 146.5 15t84.5 40v260h-258 v224h596v-577zM1078 1630v-22h-265l-137 126l-136 -126h-260v26l300 240h193z" glyph-name="Gcircumflex" horiz-adv-x="1353" unicode="Ĝ"/><glyph d="M50 539q0 253 110.5 408t311.5 155q85 0 150 -40.5t112 -114.5l22 135h298v-1070q0 -214 -146.5 -331.5t-403.5 -117.5q-84 0 -176 23t-176 62l58 250q73 -32 139.5 -47.5t152.5 -15.5q108 0 160.5 43t52.5 136v84q-46 -59 -106.5 -89t-138.5 -30q-200 0 -310 148 t-110 391v21zM387 518q0 -132 38.5 -205.5t130.5 -73.5q55 0 94.5 17t64.5 51v455q-25 39 -64 59.5t-93 20.5q-90 0 -130.5 -83.5t-40.5 -219.5v-21zM954 1287v-22h-265l-137 126l-136 -126h-260v26l300 240h193z" glyph-name="gcircumflex" unicode="ĝ"/><glyph d="M1266 201q-76 -92 -214 -157t-355 -65q-271 0 -440 166t-169 431v304q0 263 164.5 430t423.5 167q279 0 421.5 -124.5t137.5 -340.5l-2 -6h-317q0 107 -57 159t-172 52q-118 0 -190 -93t-72 -242v-306q0 -152 71.5 -244.5t200.5 -92.5q93 0 146.5 15t84.5 40v260h-258 v224h596v-577zM1038 1929l2 -6q5 -133 -95 -217t-268 -84q-169 0 -269 84t-94 217l2 6h243q0 -47 28.5 -77t89.5 -30q60 0 88.5 30t28.5 77h244z" glyph-name="Gbreve" horiz-adv-x="1353" unicode="Ğ"/><glyph d="M50 539q0 253 110.5 408t311.5 155q85 0 150 -40.5t112 -114.5l22 135h298v-1070q0 -214 -146.5 -331.5t-403.5 -117.5q-84 0 -176 23t-176 62l58 250q73 -32 139.5 -47.5t152.5 -15.5q108 0 160.5 43t52.5 136v84q-46 -59 -106.5 -89t-138.5 -30q-200 0 -310 148 t-110 391v21zM387 518q0 -132 38.5 -205.5t130.5 -73.5q55 0 94.5 17t64.5 51v455q-25 39 -64 59.5t-93 20.5q-90 0 -130.5 -83.5t-40.5 -219.5v-21zM914 1586l2 -6q5 -133 -95 -217t-268 -84q-169 0 -269 84t-94 217l2 6h243q0 -47 28.5 -77t89.5 -30q60 0 88.5 30t28.5 77 h244z" glyph-name="gbreve" unicode="ğ"/><glyph d="M1266 201q-76 -92 -214 -157t-355 -65q-271 0 -440 166t-169 431v304q0 263 164.5 430t423.5 167q279 0 421.5 -124.5t137.5 -340.5l-2 -6h-317q0 107 -57 159t-172 52q-118 0 -190 -93t-72 -242v-306q0 -152 71.5 -244.5t200.5 -92.5q93 0 146.5 15t84.5 40v260h-258 v224h596v-577zM867 1623h-381v260h381v-260z" glyph-name="uni0120" horiz-adv-x="1353" unicode="Ġ"/><glyph d="M50 539q0 253 110.5 408t311.5 155q85 0 150 -40.5t112 -114.5l22 135h298v-1070q0 -214 -146.5 -331.5t-403.5 -117.5q-84 0 -176 23t-176 62l58 250q73 -32 139.5 -47.5t152.5 -15.5q108 0 160.5 43t52.5 136v84q-46 -59 -106.5 -89t-138.5 -30q-200 0 -310 148 t-110 391v21zM387 518q0 -132 38.5 -205.5t130.5 -73.5q55 0 94.5 17t64.5 51v455q-25 39 -64 59.5t-93 20.5q-90 0 -130.5 -83.5t-40.5 -219.5v-21zM743 1280h-381v260h381v-260z" glyph-name="uni0121" unicode="ġ"/><glyph d="M1266 201q-76 -92 -214 -157t-355 -65q-271 0 -440 166t-169 431v304q0 263 164.5 430t423.5 167q279 0 421.5 -124.5t137.5 -340.5l-2 -6h-317q0 107 -57 159t-172 52q-118 0 -190 -93t-72 -242v-306q0 -152 71.5 -244.5t200.5 -92.5q93 0 146.5 15t84.5 40v260h-258 v224h596v-577zM798 -272l-133 -235h-134l61 245v161h206v-171z" glyph-name="Gcommaaccent" horiz-adv-x="1353" unicode="Ģ"/><glyph d="M50 539q0 253 110.5 408t311.5 155q85 0 150 -40.5t112 -114.5l22 135h298v-1070q0 -214 -146.5 -331.5t-403.5 -117.5q-84 0 -176 23t-176 62l58 250q73 -32 139.5 -47.5t152.5 -15.5q108 0 160.5 43t52.5 136v84q-46 -59 -106.5 -89t-138.5 -30q-200 0 -310 148 t-110 391v21zM387 518q0 -132 38.5 -205.5t130.5 -73.5q55 0 94.5 17t64.5 51v455q-25 39 -64 59.5t-93 20.5q-90 0 -130.5 -83.5t-40.5 -219.5v-21zM418 1451l110 265h191l-44 -275v-180h-257v190z" glyph-name="gcommaaccent" unicode="ģ"/><glyph d="M1330 0h-337v586h-539v-586h-338v1456h338v-610h539v610h337v-1456zM1126 1609v-22h-265l-137 126l-136 -126h-260v26l300 240h193z" glyph-name="Hcircumflex" horiz-adv-x="1446" unicode="Ĥ"/><glyph d="M424 948q49 73 119.5 113.5t155.5 40.5q168 0 264 -117t96 -363v-622h-338v624q0 124 -32 171t-97 47q-57 0 -99 -16.5t-69 -46.5v-779h-338v1560h338v-612zM924 1612v-22h-265l-137 126l-136 -126h-260v26l300 240h193z" glyph-name="hcircumflex" unicode="ĥ"/><glyph d="M1338 1213h106v-183h-106v-1030h-337v586h-539v-586h-338v1030h-115v183h115v243h338v-243h539v243h337v-243zM462 846h539v184h-539v-184z" glyph-name="Hbar" horiz-adv-x="1447" unicode="Ħ"/><glyph d="M680 1211h-256v-263q49 73 119.5 113.5t155.5 40.5q168 0 264 -117t96 -363v-622h-338v624q0 124 -32 171t-97 47q-57 0 -99 -16.5t-69 -46.5v-779h-338v1211h-92v191h92v158h338v-158h256v-191z" glyph-name="hbar" unicode="ħ"/><glyph d="M474 0h-337v1456h337v-1456zM694 1861q0 -96 -60 -164.5t-150 -68.5q-70 0 -164.5 42t-146.5 42q-33 0 -55 -32.5t-22 -77.5l-178 50q0 94 59.5 163.5t149.5 69.5q56 0 157.5 -41.5t153.5 -41.5q31 0 54.5 32t23.5 78z" glyph-name="Itilde" horiz-adv-x="611" unicode="Ĩ"/><glyph d="M462 0h-339v1082h339v-1082zM682 1518q0 -96 -60 -164.5t-150 -68.5q-70 0 -164.5 42t-146.5 42q-33 0 -55 -32.5t-22 -77.5l-178 50q0 94 59.5 163.5t149.5 69.5q56 0 157.5 -41.5t153.5 -41.5q31 0 54.5 32t23.5 78z" glyph-name="itilde" horiz-adv-x="584" unicode="ĩ"/><glyph d="M474 0h-337v1456h337v-1456zM673 1601h-734v173h734v-173z" glyph-name="Imacron" horiz-adv-x="611" unicode="Ī"/><glyph d="M462 0h-339v1082h339v-1082zM661 1259h-734v173h734v-173z" glyph-name="imacron" horiz-adv-x="584" unicode="ī"/><glyph d="M474 0h-337v1456h337v-1456zM668 1908l2 -6q5 -133 -95 -217t-268 -84q-169 0 -269 84t-94 217l2 6h243q0 -47 28.5 -77t89.5 -30q60 0 88.5 30t28.5 77h244z" glyph-name="Ibreve" horiz-adv-x="611" unicode="Ĭ"/><glyph d="M462 0h-339v1082h339v-1082zM656 1565l2 -6q5 -133 -95 -217t-268 -84q-169 0 -269 84t-94 217l2 6h243q0 -47 28.5 -77t89.5 -30q60 0 88.5 30t28.5 77h244z" glyph-name="ibreve" horiz-adv-x="584" unicode="ĭ"/><glyph d="M474 0h-337v1456h337v-1456zM359 0q-44 -53 -62 -85t-18 -79q0 -19 14 -39t66 -20q28 0 49 5t42 13l36 -168q-36 -19 -80.5 -31.5t-105.5 -12.5q-115 0 -189 56.5t-74 157.5q0 75 39 142.5t121 120.5z" glyph-name="Iogonek" horiz-adv-x="611" unicode="Į"/><glyph d="M450 0h-339v1082h339v-1082zM450 1333h-339v227h339v-227zM335 0q-44 -53 -62 -85t-18 -79q0 -19 14 -39t66 -20q28 0 49 5t42 13l36 -168q-36 -19 -80.5 -31.5t-105.5 -12.5q-115 0 -189 56.5t-74 157.5q0 75 39 142.5t121 120.5z" glyph-name="iogonek" horiz-adv-x="561" unicode="į"/><glyph d="M474 0h-337v1456h337v-1456zM497 1602h-381v260h381v-260z" glyph-name="Idotaccent" horiz-adv-x="611" unicode="İ"/><glyph d="M462 0h-339v1082h339v-1082z" glyph-name="dotlessi" horiz-adv-x="584" unicode="ı"/><glyph d="M474 0h-337v1456h337v-1456zM1303 1456h338v-989q0 -223 -137 -355.5t-351 -132.5q-246 0 -389.5 118t-138.5 343l3 6h330q0 -107 54 -157t141 -50q66 0 108 60.5t42 167.5v989z" glyph-name="IJ" horiz-adv-x="1755" unicode="Ĳ"/><glyph d="M450 0h-339v1082h339v-1082zM450 1333h-339v227h339v-227zM1015 1082v-1097q0 -202 -108.5 -312t-301.5 -110q-44 0 -80.5 4t-78.5 13l14 255q29 -6 49.5 -9t51.5 -3q56 0 85.5 41t29.5 121v1097h339zM1009 1334h-339v226h339v-226z" glyph-name="ij" horiz-adv-x="1109" unicode="ĳ"/><glyph d="M692 1456h338v-989q0 -223 -137 -355.5t-351 -132.5q-246 0 -389.5 118t-138.5 343l3 6h330q0 -107 54 -157t141 -50q66 0 108 60.5t42 167.5v989zM1240 1609v-22h-265l-137 126l-136 -126h-260v26l300 240h193z" glyph-name="Jcircumflex" horiz-adv-x="1144" unicode="Ĵ"/><glyph d="M476 1082v-1097q0 -202 -108 -312t-301 -110q-45 0 -81 4t-78 13l15 255q28 -6 48 -9t50 -3q57 0 87.5 41.5t30.5 120.5v1097h337zM678 1267v-22h-265l-137 126l-136 -126h-260v26l300 240h193z" glyph-name="jcircumflex" horiz-adv-x="604" unicode="ĵ"/><glyph d="M548 584h-94v-584h-338v1456h338v-570h70l329 570h425l-458 -662l497 -794h-434zM750 -262l-133 -235h-134l61 245v161h206v-171z" glyph-name="Kcommaaccent" horiz-adv-x="1306" unicode="Ķ"/><glyph d="M495 430h-61v-430h-338v1560h338v-875h48l228 397h387l-333 -488l388 -594h-385zM678 -262l-133 -235h-134l61 245v161h206v-171z" glyph-name="kcommaaccent" horiz-adv-x="1119" unicode="ķ"/><glyph d="M575 378h-120v-378h-337v1082h337v-389h90l225 389h432l-356 -505l10 5l354 -582h-434z" glyph-name="kgreenlandic" horiz-adv-x="1242" unicode="ĸ"/><glyph d="M454 260h625v-260h-963v1456h338v-1196zM329 1867h371l2 -6l-281 -260h-298z" glyph-name="Lacute" horiz-adv-x="1144" unicode="Ĺ"/><glyph d="M450 0h-339v1560h339v-1560zM320 1904h371l2 -6l-281 -260h-298z" glyph-name="lacute" horiz-adv-x="561" unicode="ĺ"/><glyph d="M454 260h625v-260h-963v1456h338v-1196zM695 -262l-133 -235h-134l61 245v161h206v-171z" glyph-name="Lcommaaccent" horiz-adv-x="1144" unicode="Ļ"/><glyph d="M450 0h-339v1560h339v-1560zM377 -262l-133 -235h-134l61 245v161h206v-171z" glyph-name="lcommaaccent" horiz-adv-x="561" unicode="ļ"/><glyph d="M454 260h625v-260h-963v1456h338v-1196zM899 1289l-133 -235h-134l61 245v161h206v-171z" glyph-name="Lcaron" horiz-adv-x="1144" unicode="Ľ"/><glyph d="M450 0h-339v1560h339v-1560zM800 1388l-133 -235h-134l61 245v161h206v-171z" glyph-name="lcaron" horiz-adv-x="561" unicode="ľ"/><glyph d="M454 260h625v-260h-963v1456h338v-1196zM977 677h-381v260h381v-260z" glyph-name="Ldot" horiz-adv-x="1144" unicode="Ŀ"/><glyph d="M450 0h-339v1560h339v-1560zM770 608h-381v260h381v-260z" glyph-name="ldot" horiz-adv-x="561" unicode="ŀ"/><glyph d="M447 903l231 64v-208l-231 -64v-435h625v-260h-963v603l-112 -31v208l112 31v645h338v-553z" glyph-name="Lslash" horiz-adv-x="1022" unicode="Ł"/><glyph d="M470 924l137 43v-208l-137 -43v-716h-339v611l-127 -39v208l127 39v741h339v-636z" glyph-name="lslash" horiz-adv-x="611" unicode="ł"/><glyph d="M1330 0h-337l-533 916l-6 -2v-914h-338v1456h338l533 -915l6 2v913h337v-1456zM763 1867h371l2 -6l-281 -260h-298z" glyph-name="Nacute" horiz-adv-x="1446" unicode="Ń"/><glyph d="M407 1082l13 -152q53 81 131 126.5t174 45.5q159 0 248.5 -108t89.5 -343v-651h-338v652q0 103 -33 146.5t-96 43.5q-54 0 -97 -19t-72 -54v-769h-337v1082h317zM616 1545h371l2 -6l-281 -260h-298z" glyph-name="nacute" unicode="ń"/><glyph d="M1330 0h-337l-533 916l-6 -2v-914h-338v1456h338l533 -915l6 2v913h337v-1456zM820 -262l-133 -235h-134l61 245v161h206v-171z" glyph-name="Ncommaaccent" horiz-adv-x="1446" unicode="Ņ"/><glyph d="M407 1082l13 -152q53 81 131 126.5t174 45.5q159 0 248.5 -108t89.5 -343v-651h-338v652q0 103 -33 146.5t-96 43.5q-54 0 -97 -19t-72 -54v-769h-337v1082h317zM673 -262l-133 -235h-134l61 245v161h206v-171z" glyph-name="ncommaaccent" unicode="ņ"/><glyph d="M1330 0h-337l-533 916l-6 -2v-914h-338v1456h338l533 -915l6 2v913h337v-1456zM723 1761l102 116h309v-16l-292 -260h-239l-294 262v14h312z" glyph-name="Ncaron" horiz-adv-x="1446" unicode="Ň"/><glyph d="M407 1082l13 -152q53 81 131 126.5t174 45.5q159 0 248.5 -108t89.5 -343v-651h-338v652q0 103 -33 146.5t-96 43.5q-54 0 -97 -19t-72 -54v-769h-337v1082h317zM576 1439l102 116h309v-16l-292 -260h-239l-294 262v14h312z" glyph-name="ncaron" unicode="ň"/><glyph d="M407 1082l13 -152q53 81 131 126.5t174 45.5q159 0 248.5 -108t89.5 -343v-651h-338v652q0 103 -33 146.5t-96 43.5q-54 0 -97 -19t-72 -54v-769h-337v1082h317zM243 1388l-133 -235h-134l61 245v161h206v-171z" glyph-name="napostrophe" unicode="ŉ"/><glyph d="M1331 1456v-1471q0 -202 -108 -312t-301 -110q-45 0 -82 4t-78 13l14 255q28 -6 48 -9t52 -3q56 0 87 41.5t31 120.5v15l-533 916l-6 -2v-914h-338v1456h338l533 -915l6 2v913h337z" glyph-name="Eng" horiz-adv-x="1449" unicode="Ŋ"/><glyph d="M407 1082l13 -154q54 82 132.5 128t173.5 46q159 0 248.5 -108t89.5 -343v-666q0 -202 -108 -312t-301 -110q-45 0 -82 4t-78 13l14 255q29 -6 48 -9t52 -3q56 0 86.5 41.5t30.5 120.5v667q0 103 -33 146.5t-96 43.5q-55 0 -97.5 -19.5t-72.5 -54.5v-768h-337v1082h317z" glyph-name="eng" unicode="ŋ"/><glyph d="M1326 597q0 -269 -170.5 -443.5t-445.5 -174.5q-277 0 -449 174.5t-172 443.5v262q0 268 171.5 443t447.5 175q274 0 446 -175t172 -443v-262zM989 861q0 156 -73.5 256t-207.5 100q-137 0 -209.5 -99.5t-72.5 -256.5v-264q0 -158 73.5 -258t210.5 -100q133 0 206 100 t73 258v264zM1075 1622h-734v173h734v-173z" glyph-name="Omacron" horiz-adv-x="1416" unicode="Ō"/><glyph d="M51 551q0 244 138 397.5t385 153.5q248 0 386 -153.5t138 -397.5v-21q0 -245 -138 -398t-384 -153q-249 0 -387 153t-138 398v21zM389 530q0 -136 42.5 -213.5t144.5 -77.5q99 0 142 78t43 213v21q0 132 -43 211.5t-144 79.5q-100 0 -142.5 -80t-42.5 -211v-21zM942 1280 h-734v173h734v-173z" glyph-name="omacron" unicode="ō"/><glyph d="M1326 597q0 -269 -170.5 -443.5t-445.5 -174.5q-277 0 -449 174.5t-172 443.5v262q0 268 171.5 443t447.5 175q274 0 446 -175t172 -443v-262zM989 861q0 156 -73.5 256t-207.5 100q-137 0 -209.5 -99.5t-72.5 -256.5v-264q0 -158 73.5 -258t210.5 -100q133 0 206 100 t73 258v264zM1070 1929l2 -6q5 -133 -95 -217t-268 -84q-169 0 -269 84t-94 217l2 6h243q0 -47 28.5 -77t89.5 -30q60 0 88.5 30t28.5 77h244z" glyph-name="Obreve" horiz-adv-x="1416" unicode="Ŏ"/><glyph d="M51 551q0 244 138 397.5t385 153.5q248 0 386 -153.5t138 -397.5v-21q0 -245 -138 -398t-384 -153q-249 0 -387 153t-138 398v21zM389 530q0 -136 42.5 -213.5t144.5 -77.5q99 0 142 78t43 213v21q0 132 -43 211.5t-144 79.5q-100 0 -142.5 -80t-42.5 -211v-21zM937 1586 l2 -6q5 -133 -95 -217t-268 -84q-169 0 -269 84t-94 217l2 6h243q0 -47 28.5 -77t89.5 -30q60 0 88.5 30t28.5 77h244z" glyph-name="obreve" unicode="ŏ"/><glyph d="M1326 597q0 -269 -170.5 -443.5t-445.5 -174.5q-277 0 -449 174.5t-172 443.5v262q0 268 171.5 443t447.5 175q274 0 446 -175t172 -443v-262zM989 861q0 156 -73.5 256t-207.5 100q-137 0 -209.5 -99.5t-72.5 -256.5v-264q0 -158 73.5 -258t210.5 -100q133 0 206 100 t73 258v264zM986 1888h302l2 -6l-278 -260h-264l-2 5zM568 1888h305l2 -5l-240 -261h-273z" glyph-name="Ohungarumlaut" horiz-adv-x="1416" unicode="Ő"/><glyph d="M51 551q0 244 138 397.5t385 153.5q248 0 386 -153.5t138 -397.5v-21q0 -245 -138 -398t-384 -153q-249 0 -387 153t-138 398v21zM389 530q0 -136 42.5 -213.5t144.5 -77.5q99 0 142 78t43 213v21q0 132 -43 211.5t-144 79.5q-100 0 -142.5 -80t-42.5 -211v-21zM853 1545 h302l2 -6l-278 -260h-264l-2 5zM435 1545h305l2 -5l-240 -261h-273z" glyph-name="ohungarumlaut" unicode="ő"/><glyph d="M1804 0h-794q-92 -10 -156.5 -15.5t-131.5 -5.5q-280 0 -454.5 166t-174.5 431v304q0 265 173.5 431t453.5 166q69 0 140 -6t150 -15h795v-260h-616v-313h513v-260h-513v-363h615v-260zM722 239q33 0 65 1.5t64 4.5v966q-33 2 -65.5 4t-65.5 2q-138 0 -214 -85.5 t-76 -249.5v-306q0 -165 77 -251t215 -86z" glyph-name="OE" horiz-adv-x="1995" unicode="Œ"/><glyph d="M1356 -21q-126 0 -225.5 40.5t-167.5 115.5q-68 -76 -166 -116t-221 -40q-249 0 -387 153t-138 398v21q0 244 138 397.5t385 153.5q123 0 221 -40.5t167 -114.5q65 75 160.5 115t220.5 40q219 0 339.5 -131t120.5 -359v-177h-620l-2 -6q8 -85 63 -137.5t158 -52.5 q97 0 161.5 16t147.5 51l81 -206q-70 -51 -188 -86t-248 -35zM389 530q0 -136 42.5 -213.5t144.5 -77.5q99 0 142 78t43 213v21q0 132 -43 211.5t-144 79.5q-100 0 -142.5 -80t-42.5 -211v-21zM1343 842q-81 0 -119.5 -51.5t-44.5 -139.5l2 -5h292v26q0 84 -29.5 127 t-100.5 43z" glyph-name="oe" horiz-adv-x="1845" unicode="œ"/><glyph d="M454 558v-558h-338v1456h507q253 0 401 -117t148 -320q0 -113 -59.5 -194t-175.5 -132q134 -38 192.5 -126.5t58.5 -220.5v-92q0 -57 17 -130t59 -104v-20h-349q-40 31 -52 109t-12 147v88q0 104 -55 159t-161 55h-181zM454 818h171q102 0 156 46.5t54 133.5 q0 89 -55.5 143.5t-156.5 54.5h-169v-378zM676 1867h371l2 -6l-281 -260h-298z" glyph-name="Racute" horiz-adv-x="1306" unicode="Ŕ"/><glyph d="M694 794l-110 1q-58 0 -95 -21.5t-55 -60.5v-713h-338v1082h318l12 -159q34 85 90 132t131 47q23 0 41 -3t38 -9zM451 1545h371l2 -6l-281 -260h-298z" glyph-name="racute" horiz-adv-x="722" unicode="ŕ"/><glyph d="M454 558v-558h-338v1456h507q253 0 401 -117t148 -320q0 -113 -59.5 -194t-175.5 -132q134 -38 192.5 -126.5t58.5 -220.5v-92q0 -57 17 -130t59 -104v-20h-349q-40 31 -52 109t-12 147v88q0 104 -55 159t-161 55h-181zM454 818h171q102 0 156 46.5t54 133.5 q0 89 -55.5 143.5t-156.5 54.5h-169v-378zM733 -262l-133 -235h-134l61 245v161h206v-171z" glyph-name="Rcommaaccent" horiz-adv-x="1306" unicode="Ŗ"/><glyph d="M694 794l-110 1q-58 0 -95 -21.5t-55 -60.5v-713h-338v1082h318l12 -159q34 85 90 132t131 47q23 0 41 -3t38 -9zM375 -262l-133 -235h-134l61 245v161h206v-171z" glyph-name="rcommaaccent" horiz-adv-x="722" unicode="ŗ"/><glyph d="M454 558v-558h-338v1456h507q253 0 401 -117t148 -320q0 -113 -59.5 -194t-175.5 -132q134 -38 192.5 -126.5t58.5 -220.5v-92q0 -57 17 -130t59 -104v-20h-349q-40 31 -52 109t-12 147v88q0 104 -55 159t-161 55h-181zM454 818h171q102 0 156 46.5t54 133.5 q0 89 -55.5 143.5t-156.5 54.5h-169v-378zM636 1761l102 116h309v-16l-292 -260h-239l-294 262v14h312z" glyph-name="Rcaron" horiz-adv-x="1306" unicode="Ř"/><glyph d="M694 794l-110 1q-58 0 -95 -21.5t-55 -60.5v-713h-338v1082h318l12 -159q34 85 90 132t131 47q23 0 41 -3t38 -9zM412 1439l102 116h309v-16l-292 -260h-239l-294 262v14h312z" glyph-name="rcaron" horiz-adv-x="722" unicode="ř"/><glyph d="M867 386q0 78 -51 119.5t-185 88.5q-271 88 -402.5 187.5t-131.5 286.5q0 183 153 296t389 113q249 0 401 -116.5t147 -328.5l-2 -6h-328q0 103 -56 149.5t-169 46.5q-92 0 -145 -45t-53 -111q0 -64 54.5 -102.5t203.5 -96.5q253 -75 383 -183t130 -296 q0 -192 -150 -300.5t-398 -108.5q-247 0 -418.5 116.5t-166.5 366.5l2 6h329q0 -127 62.5 -180.5t191.5 -53.5q106 0 158 42t52 110zM675 1888h371l2 -6l-281 -260h-298z" glyph-name="Sacute" horiz-adv-x="1273" unicode="Ś"/><glyph d="M660 304q0 40 -45.5 71.5t-165.5 56.5q-189 37 -285 114.5t-96 213.5q0 143 120 242.5t325 99.5q216 0 344 -96.5t122 -249.5l-2 -6h-328q0 64 -32 97t-105 33q-53 0 -89 -29t-36 -74q0 -43 41.5 -73t167.5 -54q199 -39 294 -116.5t95 -219.5q0 -146 -129.5 -240.5 t-342.5 -94.5q-221 0 -349.5 112t-122.5 250l2 6h306q2 -77 46.5 -111t126.5 -34q68 0 103 26.5t35 75.5zM552 1545h371l2 -6l-281 -260h-298z" glyph-name="sacute" horiz-adv-x="1048" unicode="ś"/><glyph d="M867 386q0 78 -51 119.5t-185 88.5q-271 88 -402.5 187.5t-131.5 286.5q0 183 153 296t389 113q249 0 401 -116.5t147 -328.5l-2 -6h-328q0 103 -56 149.5t-169 46.5q-92 0 -145 -45t-53 -111q0 -64 54.5 -102.5t203.5 -96.5q253 -75 383 -183t130 -296 q0 -192 -150 -300.5t-398 -108.5q-247 0 -418.5 116.5t-166.5 366.5l2 6h329q0 -127 62.5 -180.5t191.5 -53.5q106 0 158 42t52 110zM1037 1630v-22h-265l-137 126l-136 -126h-260v26l300 240h193z" glyph-name="Scircumflex" horiz-adv-x="1273" unicode="Ŝ"/><glyph d="M660 304q0 40 -45.5 71.5t-165.5 56.5q-189 37 -285 114.5t-96 213.5q0 143 120 242.5t325 99.5q216 0 344 -96.5t122 -249.5l-2 -6h-328q0 64 -32 97t-105 33q-53 0 -89 -29t-36 -74q0 -43 41.5 -73t167.5 -54q199 -39 294 -116.5t95 -219.5q0 -146 -129.5 -240.5 t-342.5 -94.5q-221 0 -349.5 112t-122.5 250l2 6h306q2 -77 46.5 -111t126.5 -34q68 0 103 26.5t35 75.5zM915 1287v-22h-265l-137 126l-136 -126h-260v26l300 240h193z" glyph-name="scircumflex" horiz-adv-x="1048" unicode="ŝ"/><glyph d="M867 386q0 78 -51 119.5t-185 88.5q-271 88 -402.5 187.5t-131.5 286.5q0 183 153 296t389 113q249 0 401 -116.5t147 -328.5l-2 -6h-328q0 103 -56 149.5t-169 46.5q-92 0 -145 -45t-53 -111q0 -64 54.5 -102.5t203.5 -96.5q253 -75 383 -183t130 -296 q0 -192 -150 -300.5t-398 -108.5q-247 0 -418.5 116.5t-166.5 366.5l2 6h329q0 -127 62.5 -180.5t191.5 -53.5q106 0 158 42t52 110zM766 1l-10 -61q64 -11 107 -52t43 -121q0 -114 -97 -181t-277 -67l-7 186q41 0 64.5 19t23.5 58q0 38 -30.5 53.5t-103.5 19.5l31 146h256z" glyph-name="Scedilla" horiz-adv-x="1273" unicode="Ş"/><glyph d="M660 304q0 40 -45.5 71.5t-165.5 56.5q-189 37 -285 114.5t-96 213.5q0 143 120 242.5t325 99.5q216 0 344 -96.5t122 -249.5l-2 -6h-328q0 64 -32 97t-105 33q-53 0 -89 -29t-36 -74q0 -43 41.5 -73t167.5 -54q199 -39 294 -116.5t95 -219.5q0 -146 -129.5 -240.5 t-342.5 -94.5q-221 0 -349.5 112t-122.5 250l2 6h306q2 -77 46.5 -111t126.5 -34q68 0 103 26.5t35 75.5zM643 1l-10 -61q64 -11 107 -52t43 -121q0 -114 -97 -181t-277 -67l-7 186q41 0 64.5 19t23.5 58q0 38 -30.5 53.5t-103.5 19.5l31 146h256z" glyph-name="scedilla" horiz-adv-x="1048" unicode="ş"/><glyph d="M867 386q0 78 -51 119.5t-185 88.5q-271 88 -402.5 187.5t-131.5 286.5q0 183 153 296t389 113q249 0 401 -116.5t147 -328.5l-2 -6h-328q0 103 -56 149.5t-169 46.5q-92 0 -145 -45t-53 -111q0 -64 54.5 -102.5t203.5 -96.5q253 -75 383 -183t130 -296 q0 -192 -150 -300.5t-398 -108.5q-247 0 -418.5 116.5t-166.5 366.5l2 6h329q0 -127 62.5 -180.5t191.5 -53.5q106 0 158 42t52 110zM635 1782l102 116h309v-16l-292 -260h-239l-294 262v14h312z" glyph-name="Scaron" horiz-adv-x="1273" unicode="Š"/><glyph d="M660 304q0 40 -45.5 71.5t-165.5 56.5q-189 37 -285 114.5t-96 213.5q0 143 120 242.5t325 99.5q216 0 344 -96.5t122 -249.5l-2 -6h-328q0 64 -32 97t-105 33q-53 0 -89 -29t-36 -74q0 -43 41.5 -73t167.5 -54q199 -39 294 -116.5t95 -219.5q0 -146 -129.5 -240.5 t-342.5 -94.5q-221 0 -349.5 112t-122.5 250l2 6h306q2 -77 46.5 -111t126.5 -34q68 0 103 26.5t35 75.5zM512 1439l102 116h309v-16l-292 -260h-239l-294 262v14h312z" glyph-name="scaron" horiz-adv-x="1048" unicode="š"/><glyph d="M1129 1196h-385v-1196h-338v1196h-378v260h1101v-260zM675 -262l-133 -235h-134l61 245v161h206v-171z" glyph-name="Tcommaaccent" horiz-adv-x="1150" unicode="Ţ"/><glyph d="M484 1351v-269h171v-234h-171v-496q0 -58 23.5 -83.5t63.5 -25.5q26 0 41.5 2t39.5 8l23 -250q-51 -13 -92 -18.5t-97 -5.5q-167 0 -253.5 89t-86.5 282v498h-151v234h151v269h338zM515 -272l-133 -235h-134l61 245v161h206v-171z" glyph-name="tcommaaccent" horiz-adv-x="723" unicode="ţ"/><glyph d="M1129 1196h-385v-1196h-338v1196h-378v260h1101v-260zM578 1761l102 116h309v-16l-292 -260h-239l-294 262v14h312z" glyph-name="Tcaron" horiz-adv-x="1150" unicode="Ť"/><glyph d="M484 1351v-269h171v-234h-171v-496q0 -58 23.5 -83.5t63.5 -25.5q26 0 41.5 2t39.5 8l23 -250q-51 -13 -92 -18.5t-97 -5.5q-167 0 -253.5 89t-86.5 282v498h-151v234h151v269h338zM867 1418l-133 -235h-134l61 245v161h206v-171z" glyph-name="tcaron" horiz-adv-x="723" unicode="ť"/><glyph d="M930 723h-186v-723h-338v723h-162v191h162v282h-378v260h1101v-260h-385v-282h186v-191z" glyph-name="Tbar" horiz-adv-x="1150" unicode="Ŧ"/><glyph d="M484 1351v-269h171v-234h-171v-150h184v-191h-184v-155q0 -58 23.5 -83.5t63.5 -25.5q26 0 41.5 2t39.5 8l23 -250q-51 -13 -92 -18.5t-97 -5.5q-167 0 -253.5 89t-86.5 282v157h-164v191h164v150h-151v234h151v269h338z" glyph-name="tbar" horiz-adv-x="723" unicode="ŧ"/><glyph d="M1309 1456v-944q0 -250 -166 -391.5t-433 -141.5q-269 0 -436 141.5t-167 391.5v944h339v-944q0 -135 70 -204t194 -69q123 0 191.5 68.5t68.5 204.5v944h339zM1096 1861q0 -96 -60 -164.5t-150 -68.5q-70 0 -164.5 42t-146.5 42q-33 0 -55 -32.5t-22 -77.5l-178 50 q0 94 59.5 163.5t149.5 69.5q56 0 157.5 -41.5t153.5 -41.5q31 0 54.5 32t23.5 78z" glyph-name="Utilde" horiz-adv-x="1417" unicode="Ũ"/><glyph d="M748 162q-48 -88 -124.5 -135.5t-176.5 -47.5q-168 0 -263.5 118t-95.5 365v620h337v-622q0 -127 32.5 -174t100.5 -47q54 0 95 15t70 45v783h338v-1082h-272zM962 1518q0 -96 -60 -164.5t-150 -68.5q-70 0 -164.5 42t-146.5 42q-33 0 -55 -32.5t-22 -77.5l-178 50 q0 94 59.5 163.5t149.5 69.5q56 0 157.5 -41.5t153.5 -41.5q31 0 54.5 32t23.5 78z" glyph-name="utilde" unicode="ũ"/><glyph d="M1309 1456v-944q0 -250 -166 -391.5t-433 -141.5q-269 0 -436 141.5t-167 391.5v944h339v-944q0 -135 70 -204t194 -69q123 0 191.5 68.5t68.5 204.5v944h339zM1075 1601h-734v173h734v-173z" glyph-name="Umacron" horiz-adv-x="1417" unicode="Ū"/><glyph d="M748 162q-48 -88 -124.5 -135.5t-176.5 -47.5q-168 0 -263.5 118t-95.5 365v620h337v-622q0 -127 32.5 -174t100.5 -47q54 0 95 15t70 45v783h338v-1082h-272zM941 1259h-734v173h734v-173z" glyph-name="umacron" unicode="ū"/><glyph d="M1309 1456v-944q0 -250 -166 -391.5t-433 -141.5q-269 0 -436 141.5t-167 391.5v944h339v-944q0 -135 70 -204t194 -69q123 0 191.5 68.5t68.5 204.5v944h339zM1070 1908l2 -6q5 -133 -95 -217t-268 -84q-169 0 -269 84t-94 217l2 6h243q0 -47 28.5 -77t89.5 -30 q60 0 88.5 30t28.5 77h244z" glyph-name="Ubreve" horiz-adv-x="1417" unicode="Ŭ"/><glyph d="M748 162q-48 -88 -124.5 -135.5t-176.5 -47.5q-168 0 -263.5 118t-95.5 365v620h337v-622q0 -127 32.5 -174t100.5 -47q54 0 95 15t70 45v783h338v-1082h-272zM936 1565l2 -6q5 -133 -95 -217t-268 -84q-169 0 -269 84t-94 217l2 6h243q0 -47 28.5 -77t89.5 -30 q60 0 88.5 30t28.5 77h244z" glyph-name="ubreve" unicode="ŭ"/><glyph d="M1309 1456v-944q0 -250 -166 -391.5t-433 -141.5q-269 0 -436 141.5t-167 391.5v944h339v-944q0 -135 70 -204t194 -69q123 0 191.5 68.5t68.5 204.5v944h339zM517 1751q0 73 55.5 123t138.5 50q81 0 136 -50t55 -123q0 -74 -55 -122t-136 -48q-83 0 -138.5 48t-55.5 122 zM640 1751q0 -31 20 -50.5t51 -19.5q29 0 47.5 19t18.5 51t-18.5 52t-47.5 20q-31 0 -51 -20t-20 -52z" glyph-name="Uring" horiz-adv-x="1417" unicode="Ů"/><glyph d="M748 162q-48 -88 -124.5 -135.5t-176.5 -47.5q-168 0 -263.5 118t-95.5 365v620h337v-622q0 -127 32.5 -174t100.5 -47q54 0 95 15t70 45v783h338v-1082h-272zM383 1408q0 73 55.5 123t138.5 50q81 0 136 -50t55 -123q0 -74 -55 -122t-136 -48q-83 0 -138.5 48t-55.5 122 zM506 1408q0 -31 20 -50.5t51 -19.5q29 0 47.5 19t18.5 51t-18.5 52t-47.5 20q-31 0 -51 -20t-20 -52z" glyph-name="uring" unicode="ů"/><glyph d="M1309 1456v-944q0 -250 -166 -391.5t-433 -141.5q-269 0 -436 141.5t-167 391.5v944h339v-944q0 -135 70 -204t194 -69q123 0 191.5 68.5t68.5 204.5v944h339zM986 1867h302l2 -6l-278 -260h-264l-2 5zM568 1867h305l2 -5l-240 -261h-273z" glyph-name="Uhungarumlaut" horiz-adv-x="1417" unicode="Ű"/><glyph d="M748 162q-48 -88 -124.5 -135.5t-176.5 -47.5q-168 0 -263.5 118t-95.5 365v620h337v-622q0 -127 32.5 -174t100.5 -47q54 0 95 15t70 45v783h338v-1082h-272zM852 1524h302l2 -6l-278 -260h-264l-2 5zM434 1524h305l2 -5l-240 -261h-273z" glyph-name="uhungarumlaut" unicode="ű"/><glyph d="M1309 1456v-944q0 -250 -166 -391.5t-433 -141.5q-269 0 -436 141.5t-167 391.5v944h339v-944q0 -135 70 -204t194 -69q123 0 191.5 68.5t68.5 204.5v944h339zM806 0q-44 -53 -62 -85t-18 -79q0 -19 14 -39t66 -20q28 0 49 5t42 13l36 -168q-36 -19 -80.5 -31.5 t-105.5 -12.5q-115 0 -189 56.5t-74 157.5q0 75 39 142.5t121 120.5z" glyph-name="Uogonek" horiz-adv-x="1417" unicode="Ų"/><glyph d="M748 162q-48 -88 -124.5 -135.5t-176.5 -47.5q-168 0 -263.5 118t-95.5 365v620h337v-622q0 -127 32.5 -174t100.5 -47q54 0 95 15t70 45v783h338v-1082h-272zM944 0q-44 -53 -62 -85t-18 -79q0 -19 14 -39t66 -20q28 0 49 5t42 13l36 -168q-36 -19 -80.5 -31.5 t-105.5 -12.5q-115 0 -189 56.5t-74 157.5q0 75 39 142.5t121 120.5z" glyph-name="uogonek" unicode="ų"/><glyph d="M1287 512h6l176 944h342l-334 -1456h-318l-245 899h-6l-243 -899h-318l-335 1456h343l176 -945l6 -1l247 946h255zM1314 1609v-22h-265l-137 126l-136 -126h-260v26l300 240h193z" glyph-name="Wcircumflex" horiz-adv-x="1825" unicode="Ŵ"/><glyph d="M1025 477h6l107 605h322l-254 -1082h-286l-176 554h-6l-177 -554h-285l-255 1082h322l108 -609h6l177 609h213zM1143 1267v-22h-265l-137 126l-136 -126h-260v26l300 240h193z" glyph-name="wcircumflex" horiz-adv-x="1485" unicode="ŵ"/><glyph d="M650 820h6l290 636h366l-494 -944v-512h-337v527l-486 929h366zM1064 1609v-22h-265l-137 126l-136 -126h-260v26l300 240h193z" glyph-name="Ycircumflex" horiz-adv-x="1307" unicode="Ŷ"/><glyph d="M515 477l1 -8h6l179 613h360l-431 -1243q-50 -120 -129 -198t-251 -78q-44 0 -72 5.5t-88 20.5l41 241l21 -4.5t18 -1.5q80 0 117 23.5t55 70.5l27 70l-374 1094h359zM929 1267v-22h-265l-137 126l-136 -126h-260v26l300 240h193z" glyph-name="ycircumflex" horiz-adv-x="1053" unicode="ŷ"/><glyph d="M650 820h6l290 636h366l-494 -944v-512h-337v527l-486 929h366zM1065 1601h-290v204h290v-204zM550 1601h-290v204h290v-204z" glyph-name="Ydieresis" horiz-adv-x="1307" unicode="Ÿ"/><glyph d="M467 260h600v-260h-1000v152l588 1044h-591v260h994v-146zM637 1870h371l2 -6l-281 -260h-298z" glyph-name="Zacute" horiz-adv-x="1131" unicode="Ź"/><glyph d="M492 260h492v-260h-919v188l481 634h-460v260h888v-182zM565 1524h371l2 -6l-281 -260h-298z" glyph-name="zacute" horiz-adv-x="1053" unicode="ź"/><glyph d="M467 260h600v-260h-1000v152l588 1044h-591v260h994v-146zM788 1605h-381v260h381v-260z" glyph-name="Zdotaccent" horiz-adv-x="1131" unicode="Ż"/><glyph d="M492 260h492v-260h-919v188l481 634h-460v260h888v-182zM716 1259h-381v260h381v-260z" glyph-name="zdotaccent" horiz-adv-x="1053" unicode="ż"/><glyph d="M467 260h600v-260h-1000v152l588 1044h-591v260h994v-146zM597 1764l102 116h309v-16l-292 -260h-239l-294 262v14h312z" glyph-name="Zcaron" horiz-adv-x="1131" unicode="Ž"/><glyph d="M492 260h492v-260h-919v188l481 634h-460v260h888v-182zM525 1418l102 116h309v-16l-292 -260h-239l-294 262v14h312z" glyph-name="zcaron" horiz-adv-x="1053" unicode="ž"/><glyph d="M94 0v1194q0 186 112 286.5t316 100.5q38 0 78 -5.5t89 -15.5l-24 -249q-29 5 -50 7.5t-51 2.5q-64 0 -98 -33t-34 -94v-1194h-338z" glyph-name="longs" horiz-adv-x="539" unicode="ſ"/><glyph d="M720 848h-214l-2 -863q0 -202 -108 -312t-301 -110q-45 0 -81 4t-78 13l15 255q28 -6 47 -9t51 -3q57 0 87.5 41.5t30.5 120.5v863h-156v234h156v112q0 187 112 287t317 100q38 0 78 -5.5t89 -15.5l-25 -249q-27 5 -48.5 7.5t-52.5 2.5q-63 0 -97 -33t-34 -94v-112h214 v-234z" glyph-name="florin" horiz-adv-x="758" unicode="ƒ"/><glyph d="M1321 597q0 -269 -170.5 -443.5t-445.5 -174.5q-277 0 -449 174.5t-172 443.5v262q0 268 171.5 443t447.5 175q141 0 259 -50t201 -140q93 33 141 112t48 197h224q0 -190 -76 -319.5t-218 -188.5q19 -54 29 -111.5t10 -117.5v-262zM984 861q0 156 -73.5 256t-207.5 100 q-137 0 -209.5 -99.5t-72.5 -256.5v-264q0 -158 73.5 -258t210.5 -100q133 0 206 100t73 258v264z" glyph-name="Ohorn" horiz-adv-x="1452" unicode="Ơ"/><glyph d="M51 551q0 244 138 397.5t385 153.5q115 0 208 -35.5t160 -100.5q48 42 72.5 110t24.5 161h226q0 -147 -57.5 -253t-164.5 -161q27 -60 41 -129t14 -143v-21q0 -245 -138 -398t-384 -153q-249 0 -387 153t-138 398v21zM389 530q0 -136 42.5 -213.5t144.5 -77.5 q99 0 142 78t43 213v21q0 132 -43 211.5t-144 79.5q-100 0 -142.5 -80t-42.5 -211v-21z" glyph-name="ohorn" horiz-adv-x="1199" unicode="ơ"/><glyph d="M1309 1456v-184l6 -1q86 17 115.5 100.5t29.5 244.5h223q0 -250 -87.5 -387t-286.5 -162v-555q0 -250 -166 -391.5t-433 -141.5q-269 0 -436 141.5t-167 391.5v944h339v-944q0 -135 70 -204t194 -69q123 0 191.5 68.5t68.5 204.5v944h339z" glyph-name="Uhorn" horiz-adv-x="1475" unicode="Ư"/><glyph d="M1400 1181l2 -5q3 -174 -80.5 -274.5t-260.5 -125.5v-776h-272l-41 162q-48 -88 -124.5 -135.5t-176.5 -47.5q-168 0 -263.5 118t-95.5 365v620h337v-622q0 -127 32.5 -174t100.5 -47q54 0 95 15t70 45v783h338v-129l6 -1q74 13 105.5 69.5t31.5 159.5h196z" glyph-name="uhorn" horiz-adv-x="1146" unicode="ư"/><glyph d="M476 1082v-1097q0 -202 -108 -312t-301 -110q-45 0 -81 4t-78 13l15 255q28 -6 48 -9t50 -3q57 0 87.5 41.5t30.5 120.5v1097h337zM276 1418l102 116h309v-16l-292 -260h-239l-294 262v14h312z" glyph-name="uni01F0" horiz-adv-x="604" unicode="ǰ"/><glyph d="M878 283h-433l-84 -283h-356l475 1456h181v-1l1 1h181l476 -1456h-356zM523 543h277l-136 452h-6zM758 2169h283l2 -6l-285 -220h-203l-3 6zM438 1701q0 81 62 137t154 56q90 0 152 -56t62 -137q0 -83 -61.5 -136.5t-152.5 -53.5q-93 0 -154.5 53.5t-61.5 136.5z M563 1701q0 -40 25.5 -65t65.5 -25q39 0 63.5 25t24.5 65q0 41 -24.5 66.5t-63.5 25.5q-40 0 -65.5 -26t-25.5 -66z" glyph-name="Aringacute" horiz-adv-x="1307" unicode="Ǻ"/><glyph d="M721 1q-19 34 -32.5 77t-20.5 90q-44 -86 -108.5 -137.5t-168.5 -51.5q-170 0 -264.5 87.5t-94.5 238.5q0 161 121 248.5t367 87.5h139v77q0 69 -33 106t-101 37q-59 0 -87.5 -27.5t-28.5 -85.5l-328 1l-2 6q-7 148 123.5 247.5t344.5 99.5q201 0 325.5 -100t124.5 -286 v-408q0 -86 14.5 -160t43.5 -148zM483 220q62 0 109.5 29t66.5 69v143h-136q-81 0 -117 -39t-36 -99q0 -46 31.5 -74.5t81.5 -28.5zM644 1847h283l2 -6l-285 -220h-203l-3 6zM324 1379q0 81 62 137t154 56q90 0 152 -56t62 -137q0 -83 -61.5 -136.5t-152.5 -53.5 q-93 0 -154.5 53.5t-61.5 136.5zM449 1379q0 -40 25.5 -65t65.5 -25q39 0 63.5 25t24.5 65q0 41 -24.5 66.5t-63.5 25.5q-40 0 -65.5 -26t-25.5 -66z" glyph-name="aringacute" horiz-adv-x="1086" unicode="ǻ"/><glyph d="M1847 0h-897l-14 329h-383l-152 -329h-390l735 1456h1040v-264h-549l13 -316h455v-264h-444l15 -348h571v-264zM678 599h247l-20 475l-6 1zM969 1867h371l2 -6l-281 -260h-298z" glyph-name="AEacute" horiz-adv-x="1916" unicode="Ǽ"/><glyph d="M1275 -21q-126 0 -224.5 37.5t-165.5 107.5q-60 -64 -157 -104.5t-227 -40.5q-203 0 -313.5 92.5t-110.5 252.5q0 159 132.5 245t387.5 86h157v46q0 66 -35 103.5t-98 37.5q-70 0 -109.5 -29t-39.5 -73l-329 18l-1 6q-7 147 127 242.5t356 95.5q97 0 179 -22.5t143 -66.5 q61 43 140.5 66t176.5 23q211 0 334.5 -132.5t123.5 -357.5v-177h-620l-2 -6q4 -88 58 -139t163 -51q87 0 148.5 16t136.5 51l81 -206q-67 -51 -179.5 -86t-232.5 -35zM565 211q49 0 102.5 24t86.5 58v158h-155q-87 0 -135.5 -38.5t-48.5 -92.5q0 -52 37 -80.5t113 -28.5z M1264 842q-86 0 -124 -50.5t-42 -140.5l2 -5h293v26q0 80 -34 125t-95 45zM940 1546h371l2 -6l-281 -260h-298z" glyph-name="aeacute" horiz-adv-x="1763" unicode="ǽ"/><glyph d="M1326 597q0 -269 -170.5 -443.5t-445.5 -174.5q-78 0 -149 15t-133 44l-77 -133h-140l112 194q-112 83 -173 212.5t-61 285.5v262q0 268 171.5 443t447.5 175q101 0 190.5 -26t163.5 -74l82 141h140l-127 -219q81 -84 125 -196.5t44 -243.5v-262zM426 597q0 -66 13 -123 t38 -97l6 -1l430 744q-37 46 -88.5 71.5t-116.5 25.5q-137 0 -209.5 -99.5t-72.5 -256.5v-264zM989 861q0 31 -3.5 61.5t-9.5 52.5l-6 1l-404 -698q30 -20 66 -29.5t78 -9.5q133 0 206 100t73 258v264zM761 1929h371l2 -6l-281 -260h-298z" glyph-name="Oslashacute" horiz-adv-x="1416" unicode="Ǿ"/><glyph d="M51 551q0 244 138 397.5t385 153.5q47 0 91 -6.5t86 -18.5l69 142h177l-103 -212q99 -73 151.5 -191t52.5 -265v-21q0 -245 -138 -398t-384 -153q-47 0 -89.5 6t-81.5 17l-71 -147h-177l104 214q-103 72 -156.5 191.5t-53.5 269.5v21zM389 530q0 -47 4 -85t14 -63l6 -1 l220 452q-14 4 -28.5 6.5t-30.5 2.5q-100 0 -142.5 -80t-42.5 -211v-21zM761 551q0 41 -4.5 76.5t-11.5 59.5l-6 1l-215 -443q11 -3 24 -4.5t28 -1.5q99 0 142 78t43 213v21zM579 1539h371l2 -6l-281 -260h-298z" glyph-name="oslashacute" horiz-adv-x="1152" unicode="ǿ"/><glyph d="M867 386q0 78 -51 119.5t-185 88.5q-271 88 -402.5 187.5t-131.5 286.5q0 183 153 296t389 113q249 0 401 -116.5t147 -328.5l-2 -6h-328q0 103 -56 149.5t-169 46.5q-92 0 -145 -45t-53 -111q0 -64 54.5 -102.5t203.5 -96.5q253 -75 383 -183t130 -296 q0 -192 -150 -300.5t-398 -108.5q-247 0 -418.5 116.5t-166.5 366.5l2 6h329q0 -127 62.5 -180.5t191.5 -53.5q106 0 158 42t52 110zM732 -282l-133 -235h-134l61 245v161h206v-171z" glyph-name="Scommaaccent" horiz-adv-x="1273" unicode="Ș"/><glyph d="M660 304q0 40 -45.5 71.5t-165.5 56.5q-189 37 -285 114.5t-96 213.5q0 143 120 242.5t325 99.5q216 0 344 -96.5t122 -249.5l-2 -6h-328q0 64 -32 97t-105 33q-53 0 -89 -29t-36 -74q0 -43 41.5 -73t167.5 -54q199 -39 294 -116.5t95 -219.5q0 -146 -129.5 -240.5 t-342.5 -94.5q-221 0 -349.5 112t-122.5 250l2 6h306q2 -77 46.5 -111t126.5 -34q68 0 103 26.5t35 75.5zM609 -282l-133 -235h-134l61 245v161h206v-171z" glyph-name="scommaaccent" horiz-adv-x="1048" unicode="ș"/><glyph d="M476 1082v-1097q0 -202 -108 -312t-301 -110q-45 0 -81 4t-78 13l15 255q28 -6 48 -9t50 -3q57 0 87.5 41.5t30.5 120.5v1097h337z" glyph-name="uni0237" horiz-adv-x="604" unicode="ȷ"/><glyph d="M427 1162l-102 -250h-167v544h269v-294z" glyph-name="uni02BC" horiz-adv-x="577" unicode="ʼ"/><glyph d="M918 1274v-22h-265l-137 126l-136 -126h-260v26l300 240h193z" glyph-name="circumflex" horiz-adv-x="1033" unicode="ˆ"/><glyph d="M492 1412l102 116h309v-16l-292 -260h-239l-294 262v14h312z" glyph-name="caron" horiz-adv-x="985" unicode="ˇ"/><glyph d="M825 1456l2 -6q5 -133 -95 -217t-268 -84q-169 0 -269 84t-94 217l2 6h243q0 -47 28.5 -77t89.5 -30q60 0 88.5 30t28.5 77h244z" glyph-name="breve" horiz-adv-x="927" unicode="˘"/><glyph d="M508 1215h-381v260h381v-260z" glyph-name="dotaccent" horiz-adv-x="664" unicode="˙"/><glyph d="M149 1304q0 73 55.5 123t138.5 50q81 0 136 -50t55 -123q0 -74 -55 -122t-136 -48q-83 0 -138.5 48t-55.5 122zM272 1304q0 -31 20 -50.5t51 -19.5q29 0 47.5 19t18.5 51t-18.5 52t-47.5 20q-31 0 -51 -20t-20 -52z" glyph-name="ring" horiz-adv-x="674" unicode="˚"/><glyph d="M412 0q-44 -53 -62 -85t-18 -79q0 -19 14 -39t66 -20q28 0 49 5t42 13l36 -168q-36 -19 -80.5 -31.5t-105.5 -12.5q-115 0 -189 56.5t-74 157.5q0 75 39 142.5t121 120.5z" glyph-name="ogonek" horiz-adv-x="645" unicode="˛"/><glyph d="M887 1480q0 -96 -60 -164.5t-150 -68.5q-70 0 -164.5 42t-146.5 42q-33 0 -55 -32.5t-22 -77.5l-178 50q0 94 59.5 163.5t149.5 69.5q56 0 157.5 -41.5t153.5 -41.5q31 0 54.5 32t23.5 78z" glyph-name="tilde" horiz-adv-x="987" unicode="˜"/><glyph d="M786 1518h302l2 -6l-278 -260h-264l-2 5zM368 1518h305l2 -5l-240 -261h-273z" glyph-name="hungarumlaut" horiz-adv-x="933" unicode="˝"/><glyph d="M147 -225q0 74 56 123.5t140 49.5q82 0 137.5 -49.5t55.5 -123.5q0 -73 -55.5 -121.5t-137.5 -48.5q-84 0 -140 48.5t-56 121.5zM272 -225q0 -30 19.5 -50t51.5 -20q30 0 48.5 19.5t18.5 50.5q0 33 -18.5 52.5t-48.5 19.5q-32 0 -51.5 -19.5t-19.5 -52.5z" glyph-name="uni02F3" horiz-adv-x="659" unicode="˳"/><glyph d="M-418.847 1264.03h-207.016l-197.257 343.281l1.39453 7.92188h257.897z" glyph-name="gravecomb" horiz-adv-x="0" unicode="̀"/><glyph d="M-514.321 1616.16h253.273l1.36523 -7.94531l-191.833 -344.297h-203.438z" glyph-name="acutecomb" horiz-adv-x="0" unicode="́"/><glyph d="M-132 1480q0 -96 -60 -164.5t-150 -68.5q-70 0 -164.5 42t-146.5 42q-33 0 -55 -32.5t-22 -77.5l-178 50q0 94 59.5 163.5t149.5 69.5q56 0 157.5 -41.5t153.5 -41.5q31 0 54.5 32t23.5 78z" glyph-name="tildecomb" horiz-adv-x="0" unicode="̃"/><glyph d="M-750 1276l-22 126q72 2 104 17t27 43v6q5 35 -29 49t-100 14l7 145q204 0 312 -52t108 -145q0 -62 -43.5 -97.5t-106.5 -43.5v-62h-257z" glyph-name="hook" horiz-adv-x="0" unicode="̉"/><glyph d="M-519 1257l-2 -5h-264l-278 260l2 6h302zM-134 1252h-274l-240 261l2 5h305z" glyph-name="uni030F" horiz-adv-x="0" unicode="̏"/><glyph d="M-407 -362h-381v260h381v-260z" glyph-name="dotbelow" horiz-adv-x="0" unicode="̣"/><glyph d="M335 1558h312l-218 -286h-171z" glyph-name="tonos" horiz-adv-x="779" unicode="΄"/><glyph d="M997 1252h-280v204h280v-204zM429 1252h-280v204h280v-204zM531 1770h313l-201 -286h-149z" glyph-name="dieresistonos" horiz-adv-x="1163" unicode="΅"/><glyph d="M878 283h-433l-84 -283h-356l475 1456h181v-1l1 1h181l476 -1456h-356zM523 543h277l-136 452h-6zM116 1558h312l-218 -286h-171z" glyph-name="Alphatonos" horiz-adv-x="1307" unicode="Ά"/><glyph d="M496 539h-338v284h338v-284z" glyph-name="anoteleia" horiz-adv-x="658" unicode="·"/><glyph d="M967 623h-513v-363h615v-260h-953v1456h954v-260h-616v-313h513v-260zM-216 1560h312l-218 -286h-171z" glyph-name="Epsilontonos" horiz-adv-x="1143" unicode="Έ"/><glyph d="M1330 0h-337v586h-539v-586h-338v1456h338v-610h539v610h337v-1456zM-179 1555h312l-218 -286h-171z" glyph-name="Etatonos" horiz-adv-x="1446" unicode="Ή"/><glyph d="M474 0h-337v1456h337v-1456zM-169 1560h312l-218 -286h-171z" glyph-name="Iotatonos" horiz-adv-x="611" unicode="Ί"/><glyph d="M1326 597q0 -269 -170.5 -443.5t-445.5 -174.5q-277 0 -449 174.5t-172 443.5v262q0 268 171.5 443t447.5 175q274 0 446 -175t172 -443v-262zM989 861q0 156 -73.5 256t-207.5 100q-137 0 -209.5 -99.5t-72.5 -256.5v-264q0 -158 73.5 -258t210.5 -100q133 0 206 100 t73 258v264zM6 1558h312l-218 -286h-171z" glyph-name="Omicrontonos" horiz-adv-x="1416" unicode="Ό"/><glyph d="M650 820h6l290 636h366l-494 -944v-512h-337v527l-486 929h366zM-255 1558h312l-218 -286h-171z" glyph-name="Upsilontonos" horiz-adv-x="1307" unicode="Ύ"/><glyph d="M735 268q68 40 108 165t40 355v81q0 168 -53 256t-148 88q-94 0 -146 -88.5t-52 -255.5v-81q0 -232 40.5 -356.5t112.5 -163.5v-268h-507v264h250q-125 87 -202.5 224.5t-77.5 299.5v79q0 268 161.5 439t420.5 171q258 0 421 -171.5t163 -438.5v-79q0 -162 -78 -299.5 t-201 -224.5h257v-264h-509v268zM-14 1558h312l-218 -286h-171z" glyph-name="Omegatonos" horiz-adv-x="1380" unicode="Ώ"/><glyph d="M445 1081v-731q0 -61 20 -85.5t68 -24.5q31 0 45.5 2t55.5 11l23 -250q-48 -13 -89 -18.5t-97 -5.5q-175 0 -270 93.5t-95 277.5v731h339zM702 1192h-280v204h280v-204zM134 1192h-280v204h280v-204zM236 1710h313l-201 -286h-149z" glyph-name="iotadieresistonos" horiz-adv-x="685" unicode="ΐ"/><glyph d="M878 283h-433l-84 -283h-356l475 1456h181v-1l1 1h181l476 -1456h-356zM523 543h277l-136 452h-6z" glyph-name="Alpha" horiz-adv-x="1307" unicode="Α"/><glyph d="M116 0v1456h477q271 0 422.5 -100.5t151.5 -299.5q0 -104 -48 -184.5t-150 -121.5q130 -28 192.5 -116t62.5 -203q0 -213 -143 -322t-410 -109h-555zM454 625v-365h217q108 0 162 42.5t54 130.5q0 93 -47.5 141t-156.5 51h-11h-218zM454 849h133q122 0 182 42.5t60 126.5 q0 93 -58 135.5t-178 42.5h-139v-347z" glyph-name="Beta" horiz-adv-x="1306" unicode="Β"/><glyph d="M1093 1196h-638v-1196h-339v1456h977v-260z" glyph-name="Gamma" horiz-adv-x="1144" unicode="Γ"/><glyph d="M766 1456v-1l1 1h181l572 -1456h-1502l567 1456h181zM469 260h598l-298 801h-6z" glyph-name="Delta" horiz-adv-x="1517" unicode="Δ"/><glyph d="M766 1456v-1l1 1h181l572 -1456h-1502l567 1456h181zM469 260h598l-298 801h-6z" glyph-name="Delta" horiz-adv-x="1517" unicode="∆"/><glyph d="M967 623h-513v-363h615v-260h-953v1456h954v-260h-616v-313h513v-260z" glyph-name="Epsilon" horiz-adv-x="1143" unicode="Ε"/><glyph d="M467 260h600v-260h-1000v152l588 1044h-591v260h994v-146z" glyph-name="Zeta" horiz-adv-x="1131" unicode="Ζ"/><glyph d="M1330 0h-337v586h-539v-586h-338v1456h338v-610h539v610h337v-1456z" glyph-name="Eta" horiz-adv-x="1446" unicode="Η"/><glyph d="M870 589h-315v259h315v-259zM1326 597q0 -269 -170.5 -443.5t-445.5 -174.5q-277 0 -449 174.5t-172 443.5v262q0 268 171.5 443t447.5 175q274 0 446 -175t172 -443v-262zM989 861q0 156 -73.5 256t-207.5 100q-137 0 -209.5 -99.5t-72.5 -256.5v-264q0 -158 73.5 -258 t210.5 -100q133 0 206 100t73 258v264z" glyph-name="Theta" horiz-adv-x="1416" unicode="Θ"/><glyph d="M474 0h-337v1456h337v-1456z" glyph-name="Iota" horiz-adv-x="611" unicode="Ι"/><glyph d="M548 584h-94v-584h-338v1456h338v-570h70l329 570h425l-458 -662l497 -794h-434z" glyph-name="Kappa" horiz-adv-x="1306" unicode="Κ"/><glyph d="M361 0h-356l473 1456h363l473 -1456h-355l-276 1061l-20 86h-6l-19 -82z" glyph-name="Lambda" horiz-adv-x="1319" unicode="Λ"/><glyph d="M885 437h6l329 1019h447v-1456h-338v938l-6 1l-321 -939h-227l-315 925l-6 -1v-924h-338v1456h443z" glyph-name="Mu" horiz-adv-x="1783" unicode="Μ"/><glyph d="M1330 0h-337l-533 916l-6 -2v-914h-338v1456h338l533 -915l6 2v913h337v-1456z" glyph-name="Nu" horiz-adv-x="1446" unicode="Ν"/><glyph d="M85 260h1003v-260h-1003v260zM212 856h752v-248h-752v248zM118 1456h915v-260h-915v260z" glyph-name="Xi" horiz-adv-x="1157" unicode="Ξ"/><glyph d="M1326 597q0 -269 -170.5 -443.5t-445.5 -174.5q-277 0 -449 174.5t-172 443.5v262q0 268 171.5 443t447.5 175q274 0 446 -175t172 -443v-262zM989 861q0 156 -73.5 256t-207.5 100q-137 0 -209.5 -99.5t-72.5 -256.5v-264q0 -158 73.5 -258t210.5 -100q133 0 206 100 t73 258v264z" glyph-name="Omicron" horiz-adv-x="1416" unicode="Ο"/><glyph d="M1330 0h-337v1196h-539v-1196h-338v1456h1214v-1456z" glyph-name="Pi" horiz-adv-x="1446" unicode="Π"/><glyph d="M454 499v-499h-338v1456h556q259 0 411 -132t152 -347t-152 -346.5t-411 -131.5h-218zM454 759h218q110 0 168 60.5t58 155.5q0 97 -57.5 159t-168.5 62h-218v-437z" glyph-name="Rho" horiz-adv-x="1306" unicode="Ρ"/><glyph d="M855 731l-325 -471h579v-260h-1036v152l425 586l-425 568v150h1021v-260h-559l320 -451v-14z" glyph-name="Sigma" horiz-adv-x="1157" unicode="Σ"/><glyph d="M1129 1196h-385v-1196h-338v1196h-378v260h1101v-260z" glyph-name="Tau" horiz-adv-x="1150" unicode="Τ"/><glyph d="M650 820h6l290 636h366l-494 -944v-512h-337v527l-486 929h366z" glyph-name="Upsilon" horiz-adv-x="1307" unicode="Υ"/><glyph d="M952 1269q256 -19 410 -167t154 -383q0 -228 -154 -371.5t-410 -161.5v-186h-337v186q-259 17 -414 159.5t-155 371.5q0 236 155 384.5t414 167.5v187h337v-187zM377 717q0 -108 62.5 -169.5t169.5 -71.5l6 2v499l-6 2q-107 -11 -169.5 -78t-62.5 -184zM1185 719 q0 115 -61.5 182t-165.5 78l-6 -3v-498l6 -2q104 10 165.5 72.5t61.5 170.5z" glyph-name="Phi" horiz-adv-x="1541" unicode="Φ"/><glyph d="M648 965l240 491h390l-417 -722l449 -734h-410l-248 501l-248 -501h-390l428 734l-417 722h387z" glyph-name="Chi" horiz-adv-x="1307" unicode="Χ"/><glyph d="M938 632l6 -2q101 13 148.5 96.5t47.5 242.5v487h339v-487q0 -268 -144.5 -427t-396.5 -184v-358h-337v356q-262 20 -411 179.5t-149 433.5v487h337v-487q0 -152 55 -237t162 -101l6 2v823h337v-824z" glyph-name="Psi" horiz-adv-x="1517" unicode="Ψ"/><glyph d="M735 268q68 40 108 165t40 355v81q0 168 -53 256t-148 88q-94 0 -146 -88.5t-52 -255.5v-81q0 -232 40.5 -356.5t112.5 -163.5v-268h-507v264h250q-125 87 -202.5 224.5t-77.5 299.5v79q0 268 161.5 439t420.5 171q258 0 421 -171.5t163 -438.5v-79q0 -162 -78 -299.5 t-201 -224.5h257v-264h-509v268z" glyph-name="Omega" horiz-adv-x="1380" unicode="Ω"/><glyph d="M735 268q68 40 108 165t40 355v81q0 168 -53 256t-148 88q-94 0 -146 -88.5t-52 -255.5v-81q0 -232 40.5 -356.5t112.5 -163.5v-268h-507v264h250q-125 87 -202.5 224.5t-77.5 299.5v79q0 268 161.5 439t420.5 171q258 0 421 -171.5t163 -438.5v-79q0 -162 -78 -299.5 t-201 -224.5h257v-264h-509v268z" glyph-name="Omega" horiz-adv-x="1380" unicode="Ω"/><glyph d="M474 0h-337v1456h337v-1456zM709 1601h-290v204h290v-204zM194 1601h-290v204h290v-204z" glyph-name="Iotadieresis" horiz-adv-x="611" unicode="Ϊ"/><glyph d="M650 820h6l290 636h366l-494 -944v-512h-337v527l-486 929h366zM1065 1601h-290v204h290v-204zM550 1601h-290v204h290v-204z" glyph-name="Upsilondieresis" horiz-adv-x="1307" unicode="Ϋ"/><glyph d="M1042 1081v-731q0 -60 16.5 -84.5t52.5 -24.5q13 0 20.5 1t16.5 6l25 -245q-38 -13 -71 -18.5t-76 -5.5q-103 0 -175.5 42t-109.5 127q-45 -82 -109.5 -125.5t-150.5 -43.5q-200 0 -310.5 148t-110.5 391v21q0 253 110.5 408t312.5 155q81 0 142.5 -42t105.5 -120l43 141 h268zM399 518q0 -133 38 -206t129 -73q48 0 83 16.5t57 49.5q-1 10 -1 19.5v25.5v418q-23 36 -56.5 55t-80.5 19q-89 0 -129 -83t-40 -220v-21zM551 1478h312l-218 -286h-171z" glyph-name="alphatonos" horiz-adv-x="1152" unicode="ά"/><glyph d="M607 450q-84 0 -131 -27t-47 -87q0 -47 44 -81.5t125 -34.5q85 0 128.5 28t43.5 72h327l2 -6q5 -162 -138 -248t-340 -86q-229 0 -378.5 88t-149.5 238q0 90 53 154t154 97q-88 36 -138 96.5t-50 132.5q0 149 140 232t369 83q199 0 332.5 -89.5t128.5 -237.5l-2 -6h-327 q0 46 -42.5 69.5t-111.5 23.5q-76 0 -113 -31.5t-37 -74.5q0 -46 42.5 -72t115.5 -26h175v-207h-175zM536 1477h312l-218 -286h-171z" glyph-name="epsilontonos" horiz-adv-x="1159" unicode="έ"/><glyph d="M407 1082l13 -154q54 82 132.5 128t173.5 46q159 0 248.5 -108t89.5 -343v-1067h-338v1068q0 103 -33 146.5t-96 43.5q-55 0 -97.5 -19.5t-72.5 -54.5v-768h-337v1082h317zM510 1478h312l-218 -286h-171z" glyph-name="etatonos" unicode="ή"/><glyph d="M445 1081v-731q0 -61 20 -85.5t68 -24.5q31 0 45.5 2t55.5 11l23 -250q-48 -13 -89 -18.5t-97 -5.5q-175 0 -270 93.5t-95 277.5v731h339zM228 1456h312l-218 -286h-171z" glyph-name="iotatonos" horiz-adv-x="685" unicode="ί"/><glyph d="M436 1082v-612q0 -125 41 -178t110 -53q88 0 127 93.5t39 233.5q-3 128 -26 257.5t-64 258.5h313q50 -103 81.5 -233t31.5 -283q0 -274 -114 -430.5t-378 -156.5q-234 0 -366 122t-132 371v610h337zM1003 1193h-280v204h280v-204zM435 1193h-280v204h280v-204zM537 1711 h313l-201 -286h-149z" glyph-name="upsilondieresistonos" unicode="ΰ"/><glyph d="M1042 1081v-731q0 -60 16.5 -84.5t52.5 -24.5q13 0 20.5 1t16.5 6l25 -245q-38 -13 -71 -18.5t-76 -5.5q-103 0 -175.5 42t-109.5 127q-45 -82 -109.5 -125.5t-150.5 -43.5q-200 0 -310.5 148t-110.5 391v21q0 253 110.5 408t312.5 155q81 0 142.5 -42t105.5 -120l43 141 h268zM399 518q0 -133 38 -206t129 -73q48 0 83 16.5t57 49.5q-1 10 -1 19.5v25.5v418q-23 36 -56.5 55t-80.5 19q-89 0 -129 -83t-40 -220v-21z" glyph-name="alpha" horiz-adv-x="1152" unicode="α"/><glyph d="M637 1477q225 0 356.5 -102.5t131.5 -292.5q0 -103 -51 -187t-142 -133q123 -43 189.5 -133.5t66.5 -220.5q0 -205 -116 -317t-326 -112q-71 0 -142.5 17.5t-132.5 53.5v-465h-337v1433q0 208 144 333.5t359 125.5zM633 857q80 0 117.5 48.5t37.5 145.5q0 70 -39 118 t-112 48q-75 0 -120.5 -53.5t-45.5 -145.5v-738q35 -20 82.5 -30.5t104.5 -10.5q88 0 140.5 50t52.5 126q0 108 -51 159.5t-151 51.5h-72v231h56z" glyph-name="beta" horiz-adv-x="1243" unicode="β"/><glyph d="M692 1082h355l-352 -1082h-3v-417h-338v417h-2l-352 1082h356l145 -636l20 -115l6 -1l22 116z" glyph-name="gamma" horiz-adv-x="1053" unicode="γ"/><glyph d="M999 1456v-260h-381l-2 -6l182 -142q131 -97 215.5 -217t84.5 -280v-21q0 -245 -138 -398t-384 -153q-249 0 -387 141.5t-138 369.5v21q0 194 110 328.5t271 163.5l8 1l1 6l-289 239v207h847zM574 842q-100 0 -142.5 -80t-42.5 -211v-21q0 -136 42.5 -213.5t144.5 -77.5 q99 0 142 78t43 213v21q0 132 -43 211.5t-144 79.5z" glyph-name="delta" unicode="δ"/><glyph d="M607 450q-84 0 -131 -27t-47 -87q0 -47 44 -81.5t125 -34.5q85 0 128.5 28t43.5 72h327l2 -6q5 -162 -138 -248t-340 -86q-229 0 -378.5 88t-149.5 238q0 90 53 154t154 97q-88 36 -138 96.5t-50 132.5q0 149 140 232t369 83q199 0 332.5 -89.5t128.5 -237.5l-2 -6h-327 q0 46 -42.5 69.5t-111.5 23.5q-76 0 -113 -31.5t-37 -74.5q0 -46 42.5 -72t115.5 -26h175v-207h-175z" glyph-name="epsilon" horiz-adv-x="1159" unicode="ε"/><glyph d="M966 1456v-178l-369 -435q-100 -118 -141 -203t-41 -200q0 -94 47.5 -140t150.5 -46h65q140 0 222 -77.5t82 -213.5q-2 -133 -95.5 -241t-263.5 -149l-104 226q65 27 100.5 57.5t35.5 74.5q0 33 -26.5 51t-90.5 18h-48q-199 0 -304.5 111.5t-105.5 269.5q0 172 62 297 t203 300l178 215l-3 5h-466v258h912z" glyph-name="zeta" horiz-adv-x="1014" unicode="ζ"/><glyph d="M407 1082l13 -154q54 82 132.5 128t173.5 46q159 0 248.5 -108t89.5 -343v-1067h-338v1068q0 103 -33 146.5t-96 43.5q-55 0 -97.5 -19.5t-72.5 -54.5v-768h-337v1082h317z" glyph-name="eta" unicode="η"/><glyph d="M1106 535q0 -261 -139 -408.5t-367 -147.5q-230 0 -369 147.5t-139 408.5v386q0 261 138 408.5t368 147.5q228 0 368 -148t140 -408v-386zM769 611h-340v-97q0 -136 44.5 -205.5t126.5 -69.5q80 0 124.5 69.5t44.5 205.5v97zM429 858h340v86q0 133 -45.5 203t-125.5 70 q-81 0 -125 -70t-44 -203v-86z" glyph-name="theta" horiz-adv-x="1231" unicode="θ"/><glyph d="M445 1081v-731q0 -61 20 -85.5t68 -24.5q31 0 45.5 2t55.5 11l23 -250q-48 -13 -89 -18.5t-97 -5.5q-175 0 -270 93.5t-95 277.5v731h339z" glyph-name="iota" horiz-adv-x="685" unicode="ι"/><glyph d="M575 378h-120v-378h-337v1082h337v-389h90l225 389h432l-356 -505l10 5l354 -582h-434z" glyph-name="kappa" horiz-adv-x="1242" unicode="κ"/><glyph d="M351 0h-360l366 1072l-52 95q-20 41 -58 65.5t-88 24.5q-14 0 -34.5 -2t-30.5 -4l-9 241q52 14 84.5 20t76.5 6q172 0 253 -78.5t127 -196.5l365 -875q16 -44 43 -74t67 -41q9 -3 24.5 -4t30.5 -1l-28 -252q-43 -6 -84 -7.5t-84 2.5q-134 13 -208.5 119t-114.5 233 l-111 316l-6 -1l-9 -54z" glyph-name="lambda" horiz-adv-x="1071" unicode="λ"/><glyph d="M470 1082v-620q0 -127 39.5 -173t123.5 -46q65 0 110 23t71 68v748h337v-1082h-317l-5 53q-43 -37 -96 -55.5t-114 -18.5q-43 0 -80 8.5t-69 25.5v-429h-338v1498h338z" glyph-name="uni03BC" horiz-adv-x="1313" unicode="μ"/><glyph d="M501 446l20 -115l6 -1l22 116l143 636h355l-352 -1082h-343l-352 1082h356z" glyph-name="nu" horiz-adv-x="1053" unicode="ν"/><glyph d="M1010 1456v-270h-279q-99 -2 -146.5 -33.5t-47.5 -89.5q0 -65 44.5 -104t138.5 -39h155v-271h-143q-141 0 -215 -58t-74 -167q0 -78 54.5 -126t150.5 -48h152q149 0 234 -73t85 -214q-2 -157 -89.5 -259t-269.5 -152l-82 193q56 24 96 57.5t40 87.5q0 42 -29 65.5 t-91 23.5h-70q-240 0 -379.5 118t-139.5 331q0 127 73 216t213 136q-93 31 -142 85.5t-49 132.5q0 66 39 112t112 71l-3 5h-208v270h870z" glyph-name="xi" horiz-adv-x="1125" unicode="ξ"/><glyph d="M51 551q0 244 138 397.5t385 153.5q248 0 386 -153.5t138 -397.5v-21q0 -245 -138 -398t-384 -153q-249 0 -387 153t-138 398v21zM389 530q0 -136 42.5 -213.5t144.5 -77.5q99 0 142 78t43 213v21q0 132 -43 211.5t-144 79.5q-100 0 -142.5 -80t-42.5 -211v-21z" glyph-name="omicron" unicode="ο"/><glyph d="M1276 840h-230v-490q0 -61 20 -85.5t68 -24.5q31 0 45.5 2t55.5 11l23 -250q-48 -13 -89 -18.5t-97 -5.5q-175 0 -270 93.5t-95 277.5v490h-131v-840h-337v840h-161v242h1198v-242z" glyph-name="pi" horiz-adv-x="1440" unicode="π"/><glyph d="M1099 518q0 -243 -110.5 -391t-310.5 -148q-79 0 -139 30.5t-105 89.5v-515h-338v995q0 228 136.5 375.5t381.5 147.5q230 0 357.5 -155t127.5 -408v-21zM761 539q0 136 -41 219.5t-128 83.5q-81 0 -119.5 -79.5t-38.5 -218.5l-1 -1h1v-235q24 -35 63.5 -52t97.5 -17 q89 0 127.5 73.5t38.5 205.5v21z" glyph-name="rho" unicode="ρ"/><glyph d="M557 1102q206 0 329 -114.5t119 -313.5l-2 -6h-308q0 77 -35 125.5t-103 48.5q-99 0 -137 -78.5t-38 -211.5v-23q0 -134 56.5 -195t191.5 -80q194 -31 281.5 -101.5t87.5 -210.5q-3 -133 -96.5 -241t-262.5 -149l-105 226q65 28 100.5 58.5t35.5 74.5q0 36 -34.5 57.5 t-105.5 36.5q-248 36 -367 166t-119 358v23q0 244 133 397t379 153z" glyph-name="sigma1" horiz-adv-x="1027" unicode="ς"/><glyph d="M1150 822h-248q76 -62 123.5 -143.5t47.5 -168.5v-21q0 -227 -131.5 -368.5t-367.5 -141.5q-249 0 -387 153t-138 398v21q0 235 138 383t385 148v-1h1v1h577v-260zM386 530q0 -135 43 -213t145 -78q87 0 124.5 78t37.5 213v21q0 123 -37 197t-126 74q-100 0 -143.5 -74.5 t-43.5 -196.5v-21z" glyph-name="sigma" horiz-adv-x="1176" unicode="σ"/><glyph d="M1052 824h-342v-824h-338v824h-337v258h1017v-258z" glyph-name="tau" horiz-adv-x="1077" unicode="τ"/><glyph d="M436 1082v-612q0 -125 41 -178t110 -53q88 0 127 93.5t39 233.5q-3 128 -26 257.5t-64 258.5h313q50 -103 81.5 -233t31.5 -283q0 -274 -114 -430.5t-378 -156.5q-234 0 -366 122t-132 371v610h337z" glyph-name="upsilon" unicode="υ"/><glyph d="M944 1082q286 0 425.5 -166t139.5 -371q0 -221 -134 -373t-431 -184v-466h-338v469q-299 39 -433 207t-134 409q0 141 37.5 260.5t98.5 214.5h301q-46 -127 -72.5 -244t-27.5 -231q0 -140 51 -226t173 -113l6 1v813h338zM1172 545q-2 126 -59 200.5t-163 69.5l-6 -2v-551 l6 -2q120 21 171 93t51 192z" glyph-name="phi" horiz-adv-x="1567" unicode="φ"/><glyph d="M147 1099q173 0 254 -78.5t127 -196.5l48 -110l6 -1l179 369h343l-366 -738l174 -395q14 -42 42 -72.5t67 -42.5q9 -3 24.5 -4.5t30.5 -1.5l-27 -251q-41 -7 -82.5 -8.5t-85.5 3.5q-111 14 -172.5 111t-117.5 241l-26 59h-6l-197 -399h-327l370 764l-175 400 q-19 47 -64.5 68.5t-105.5 21.5q-14 0 -34 -2t-30 -4l-9 241q51 14 83.5 20t76.5 6z" glyph-name="chi" horiz-adv-x="1071" unicode="χ"/><glyph d="M945 1082v-813l6 -1q117 27 169.5 113.5t52.5 225.5q-2 114 -28.5 231t-71.5 244h301q60 -95 98 -214.5t38 -260.5q0 -244 -134.5 -412.5t-430.5 -205.5v-467h-337v469q-263 34 -407 180.5t-144 415.5v495h338v-498q0 -139 55 -216t152 -99l6 1v812h337z" glyph-name="psi" horiz-adv-x="1569" unicode="ψ"/><glyph d="M532 1082q-59 -128 -92.5 -257.5t-36.5 -258.5q0 -141 34 -234t115 -93q68 0 110 62.5t42 199.5v371h361v-371q0 -137 42 -199.5t110 -62.5q79 0 114 93.5t35 233.5q-4 129 -37.5 258.5t-92.5 257.5h312q69 -102 111.5 -232t42.5 -284q0 -274 -110 -430.5t-365 -156.5 q-114 0 -202 53t-141 156q-54 -103 -142 -156t-200 -53q-256 0 -366 156.5t-110 430.5q0 153 42 282.5t112 233.5h312z" glyph-name="omega" horiz-adv-x="1770" unicode="ω"/><glyph d="M445 1081v-731q0 -61 20 -85.5t68 -24.5q31 0 45.5 2t55.5 11l23 -250q-48 -13 -89 -18.5t-97 -5.5q-175 0 -270 93.5t-95 277.5v731h339zM697 1257h-290v204h290v-204zM182 1257h-290v204h290v-204z" glyph-name="iotadieresis" horiz-adv-x="685" unicode="ϊ"/><glyph d="M436 1082v-612q0 -125 41 -178t110 -53q88 0 127 93.5t39 233.5q-3 128 -26 257.5t-64 258.5h313q50 -103 81.5 -233t31.5 -283q0 -274 -114 -430.5t-378 -156.5q-234 0 -366 122t-132 371v610h337zM998 1258h-290v204h290v-204zM483 1258h-290v204h290v-204z" glyph-name="upsilondieresis" unicode="ϋ"/><glyph d="M51 551q0 244 138 397.5t385 153.5q248 0 386 -153.5t138 -397.5v-21q0 -245 -138 -398t-384 -153q-249 0 -387 153t-138 398v21zM389 530q0 -136 42.5 -213.5t144.5 -77.5q99 0 142 78t43 213v21q0 132 -43 211.5t-144 79.5q-100 0 -142.5 -80t-42.5 -211v-21zM509 1478 h312l-218 -286h-171z" glyph-name="omicrontonos" unicode="ό"/><glyph d="M436 1082v-612q0 -125 41 -178t110 -53q88 0 127 93.5t39 233.5q-3 128 -26 257.5t-64 258.5h313q50 -103 81.5 -233t31.5 -283q0 -274 -114 -430.5t-378 -156.5q-234 0 -366 122t-132 371v610h337zM529 1457h312l-218 -286h-171z" glyph-name="upsilontonos" unicode="ύ"/><glyph d="M532 1082q-59 -128 -92.5 -257.5t-36.5 -258.5q0 -141 34 -234t115 -93q68 0 110 62.5t42 199.5v371h361v-371q0 -137 42 -199.5t110 -62.5q79 0 114 93.5t35 233.5q-4 129 -37.5 258.5t-92.5 257.5h312q69 -102 111.5 -232t42.5 -284q0 -274 -110 -430.5t-365 -156.5 q-114 0 -202 53t-141 156q-54 -103 -142 -156t-200 -53q-256 0 -366 156.5t-110 430.5q0 153 42 282.5t112 233.5h312zM818 1457h312l-218 -286h-171z" glyph-name="omegatonos" horiz-adv-x="1770" unicode="ώ"/><glyph d="M559 932v125q0 191 113.5 305.5t295.5 114.5q178 0 282.5 -112t104.5 -308v-522q0 -252 -165.5 -404t-435.5 -152q-279 0 -453 157.5t-174 398.5v717l361 2v-719q0 -127 71.5 -206t194.5 -79q110 0 173.5 72.5t67.5 201.5q-184 16 -310 130.5t-126 277.5v0zM995 1098 q0 44 -13 66t-37 22q-33 0 -52 -23t-19 -65v-168q0 -64 31 -109.5t84 -54.5l6 2v330z" glyph-name="uni03D1" horiz-adv-x="1461" unicode="ϑ"/><glyph d="M784 1184q65 168 148 235.5t238 67.5q29 0 54.5 -4t45.5 -12l-25 -256q-3 0 -24.5 1.5t-31.5 1.5q-40 0 -68 -31t-48 -79l-279 -683h-1v-425h-337v444l-269 664q-23 49 -51 79.5t-66 30.5q-12 0 -32.5 -1.5t-23.5 -1.5l-23 256q17 8 42.5 12t56.5 4q156 0 238 -63.5 t146 -229.5l134 -374l18 -100h6l19 100z" glyph-name="uni03D2" horiz-adv-x="1258" unicode="ϒ"/><glyph d="M1752 890h-135q27 -74 42 -155t15 -169q0 -274 -106.5 -430.5t-352.5 -156.5q-115 0 -204 53.5t-142 156.5q-54 -103 -143 -156.5t-202 -53.5q-248 0 -354.5 156.5t-106.5 430.5q0 88 14.5 169t42.5 155h-131v192h1763v-192zM1338 566q-3 80 -17.5 161.5t-39.5 162.5 h-825q-25 -81 -39 -162t-16 -162q0 -141 30 -234t103 -93q69 0 112 62.5t43 199.5v183h360v-183q0 -137 43 -199.5t112 -62.5q72 0 103 93t31 234z" glyph-name="uni03D6" horiz-adv-x="1740" unicode="ϖ"/><glyph d="M967 623h-513v-363h615v-260h-953v1456h954v-260h-616v-313h513v-260zM762 1599h-297l-283 260l2 6h370z" glyph-name="uni0400" horiz-adv-x="1143" unicode="Ѐ"/><glyph d="M967 623h-513v-363h615v-260h-953v1456h954v-260h-616v-313h513v-260zM996 1601h-290v204h290v-204zM481 1601h-290v204h290v-204z" glyph-name="uni0401" horiz-adv-x="1143" unicode="Ё"/><glyph d="M1149 1196h-385v-260h174q282 0 447.5 -123.5t165.5 -367.5q4 -132 -91 -263.5t-273 -203.5l-157 207q88 54 135 112.5t49 147.5q0 116 -71.5 173.5t-204.5 57.5h-174v-676h-338v1196h-378v260h1101v-260z" glyph-name="uni0402" horiz-adv-x="1584" unicode="Ђ"/><glyph d="M1093 1196h-638v-1196h-339v1456h977v-260zM645 1867h371l2 -6l-281 -260h-298z" glyph-name="uni0403" horiz-adv-x="1144" unicode="Ѓ"/><glyph d="M1251 492l2 -6q4 -249 -140.5 -377.5t-409.5 -128.5q-270 0 -433.5 165t-163.5 432v304q0 266 157.5 431.5t416.5 165.5q277 0 428.5 -129t147.5 -375l-3 -6h-329q0 134 -57 192t-187 58q-114 0 -175 -91.5t-61 -243.5v-24h365v-261h-365v-21q0 -153 67 -245t192 -92 q116 0 167.5 58t51.5 194h329z" glyph-name="uni0404" horiz-adv-x="1241" unicode="Є"/><glyph d="M867 386q0 78 -51 119.5t-185 88.5q-271 88 -402.5 187.5t-131.5 286.5q0 183 153 296t389 113q249 0 401 -116.5t147 -328.5l-2 -6h-328q0 103 -56 149.5t-169 46.5q-92 0 -145 -45t-53 -111q0 -64 54.5 -102.5t203.5 -96.5q253 -75 383 -183t130 -296 q0 -192 -150 -300.5t-398 -108.5q-247 0 -418.5 116.5t-166.5 366.5l2 6h329q0 -127 62.5 -180.5t191.5 -53.5q106 0 158 42t52 110z" glyph-name="uni0405" horiz-adv-x="1273" unicode="Ѕ"/><glyph d="M474 0h-337v1456h337v-1456z" glyph-name="uni0406" horiz-adv-x="611" unicode="І"/><glyph d="M474 0h-337v1456h337v-1456zM709 1601h-290v204h290v-204zM194 1601h-290v204h290v-204z" glyph-name="uni0407" horiz-adv-x="611" unicode="Ї"/><glyph d="M692 1456h338v-989q0 -223 -137 -355.5t-351 -132.5q-246 0 -389.5 118t-138.5 343l3 6h330q0 -107 54 -157t141 -50q66 0 108 60.5t42 167.5v989z" glyph-name="uni0408" horiz-adv-x="1144" unicode="Ј"/><glyph d="M1330 1456v-479h196q259 0 416.5 -137t157.5 -351q0 -216 -157.5 -352.5t-416.5 -136.5h-533v1196h-329v-388q0 -436 -149 -622t-439 -186h-38v260h39q151 0 200 113.5t49 434.5v648h1004zM1330 717v-457h196q111 0 174 67t63 164q0 94 -63.5 160t-173.5 66h-196z" glyph-name="uni0409" horiz-adv-x="2153" unicode="Љ"/><glyph d="M454 846h538v610h337v-479h196q259 0 416.5 -137t157.5 -351q0 -215 -157.5 -352t-416.5 -137h-533v586h-538v-586h-338v1456h338v-610zM1329 717v-457h196q111 0 174 67t63 164q0 94 -63.5 160t-173.5 66h-196z" glyph-name="uni040A" horiz-adv-x="2152" unicode="Њ"/><glyph d="M1165 1196h-385v-210h145q277 0 426 -121.5t149 -369.5v-495h-337v495q0 132 -53 181.5t-185 49.5h-145v-726h-338v1196h-378v260h1101v-260z" glyph-name="uni040B" horiz-adv-x="1616" unicode="Ћ"/><glyph d="M548 584h-94v-584h-338v1456h338v-570h70l329 570h425l-458 -662l497 -794h-434zM637 1779h371l2 -6l-281 -260h-298z" glyph-name="uni040C" horiz-adv-x="1306" unicode="Ќ"/><glyph d="M976 1456h338v-1456h-338v902l-6 1l-533 -903h-338v1456h338v-901l6 -1zM875 1599h-297l-283 260l2 6h370z" glyph-name="uni040D" horiz-adv-x="1426" unicode="Ѝ"/><glyph d="M671 821l7 -26h6l283 661h348l-534 -1160q-67 -150 -160 -233.5t-256 -83.5q-59 0 -103 10t-114 34l38 241q49 -14 77.5 -19.5t63.5 -5.5q84 0 124 31.5t65 104.5l15 41l-529 1040h361zM1020 1908l2 -6q5 -133 -95 -217t-268 -84q-169 0 -269 84t-94 217l2 6h243 q0 -47 28.5 -77t89.5 -30q60 0 88.5 30t28.5 77h244z" glyph-name="uni040E" horiz-adv-x="1317" unicode="Ў"/><glyph d="M96 1456h337v-1196h538v1196h339v-1456h-423v-360h-338v360h-453v1456z" glyph-name="uni040F" horiz-adv-x="1426" unicode="Џ"/><glyph d="M878 283h-433l-84 -283h-356l475 1456h181v-1l1 1h181l476 -1456h-356zM523 543h277l-136 452h-6z" glyph-name="uni0410" horiz-adv-x="1307" unicode="А"/><glyph d="M1093 1196h-638v-219h196q259 0 416.5 -137t157.5 -351q0 -215 -157.5 -352t-416.5 -137h-535v1456h977v-260zM455 717v-457h196q111 0 174 67t63 164q0 94 -63.5 160t-173.5 66h-196z" glyph-name="uni0411" horiz-adv-x="1279" unicode="Б"/><glyph d="M116 0v1456h477q271 0 422.5 -100.5t151.5 -299.5q0 -104 -48 -184.5t-150 -121.5q130 -28 192.5 -116t62.5 -203q0 -213 -143 -322t-410 -109h-555zM454 625v-365h217q108 0 162 42.5t54 130.5q0 93 -47.5 141t-156.5 51h-11h-218zM454 849h133q122 0 182 42.5t60 126.5 q0 93 -58 135.5t-178 42.5h-139v-347z" glyph-name="uni0412" horiz-adv-x="1306" unicode="В"/><glyph d="M1093 1196h-638v-1196h-339v1456h977v-260z" glyph-name="uni0413" horiz-adv-x="1144" unicode="Г"/><glyph d="M1448 -358h-338v358h-779v-358h-336v618h73q105 0 148.5 137.5t55.5 462.5l33 596h985v-1196h158v-618zM610 860q-9 -196 -42 -346t-88 -254h473v936h-325z" glyph-name="uni0414" horiz-adv-x="1409" unicode="Д"/><glyph d="M967 623h-513v-363h615v-260h-953v1456h954v-260h-616v-313h513v-260z" glyph-name="uni0415" horiz-adv-x="1143" unicode="Е"/><glyph d="M1265 578h-109v-578h-338v578h-113l-288 -578h-420l441 793l-427 663h426l303 -576h78v576h338v-576h76l292 576h424l-417 -660l433 -796h-421z" glyph-name="uni0416" horiz-adv-x="1961" unicode="Ж"/><glyph d="M657 869q119 0 176.5 48t57.5 137q0 69 -64.5 116t-185.5 47q-93 0 -153.5 -42.5t-60.5 -114.5h-328l-1 6q-6 184 153 297.5t390 113.5q271 0 429 -108t158 -308q0 -100 -64 -183t-177 -130q128 -43 196 -129t68 -211q0 -201 -169 -315t-441 -114q-231 0 -400.5 107 t-163.5 312l2 6h329q0 -71 65.5 -118t167.5 -47q126 0 199 49.5t73 126.5q0 107 -64 155t-192 48h-204v251h204z" glyph-name="uni0417" horiz-adv-x="1325" unicode="З"/><glyph d="M976 1456h338v-1456h-338v902l-6 1l-533 -903h-338v1456h338v-901l6 -1z" glyph-name="uni0418" horiz-adv-x="1426" unicode="И"/><glyph d="M976 1456h338v-1456h-338v902l-6 1l-533 -903h-338v1456h338v-901l6 -1zM1068 1908l2 -6q5 -133 -95 -217t-268 -84q-169 0 -269 84t-94 217l2 6h243q0 -47 28.5 -77t89.5 -30q60 0 88.5 30t28.5 77h244z" glyph-name="uni0419" horiz-adv-x="1426" unicode="Й"/><glyph d="M548 584h-94v-584h-338v1456h338v-570h70l329 570h425l-458 -662l497 -794h-434z" glyph-name="uni041A" horiz-adv-x="1306" unicode="К"/><glyph d="M1330 1456v-1456h-337v1196h-360v-388q0 -438 -139 -623t-418 -185h-38v260h39q137 0 177 110.5t40 437.5v648h1036z" glyph-name="uni041B" horiz-adv-x="1446" unicode="Л"/><glyph d="M885 437h6l329 1019h447v-1456h-338v938l-6 1l-321 -939h-227l-315 925l-6 -1v-924h-338v1456h443z" glyph-name="uni041C" horiz-adv-x="1783" unicode="М"/><glyph d="M1330 0h-337v586h-539v-586h-338v1456h338v-610h539v610h337v-1456z" glyph-name="uni041D" horiz-adv-x="1446" unicode="Н"/><glyph d="M1326 597q0 -269 -170.5 -443.5t-445.5 -174.5q-277 0 -449 174.5t-172 443.5v262q0 268 171.5 443t447.5 175q274 0 446 -175t172 -443v-262zM989 861q0 156 -73.5 256t-207.5 100q-137 0 -209.5 -99.5t-72.5 -256.5v-264q0 -158 73.5 -258t210.5 -100q133 0 206 100 t73 258v264z" glyph-name="uni041E" horiz-adv-x="1416" unicode="О"/><glyph d="M1330 0h-337v1196h-539v-1196h-338v1456h1214v-1456z" glyph-name="uni041F" horiz-adv-x="1446" unicode="П"/><glyph d="M454 499v-499h-338v1456h556q259 0 411 -132t152 -347t-152 -346.5t-411 -131.5h-218zM454 759h218q110 0 168 60.5t58 155.5q0 97 -57.5 159t-168.5 62h-218v-437z" glyph-name="uni0420" horiz-adv-x="1306" unicode="Р"/><glyph d="M1234 491l2 -6q4 -249 -140.5 -377.5t-409.5 -128.5q-270 0 -433.5 165t-163.5 432v304q0 266 157.5 431.5t416.5 165.5q277 0 428.5 -129t147.5 -375l-3 -6h-329q0 134 -57 192t-187 58q-114 0 -175 -91.5t-61 -243.5v-306q0 -153 67 -245t192 -92q116 0 167.5 58 t51.5 194h329z" glyph-name="uni0421" horiz-adv-x="1307" unicode="С"/><glyph d="M1129 1196h-385v-1196h-338v1196h-378v260h1101v-260z" glyph-name="uni0422" horiz-adv-x="1150" unicode="Т"/><glyph d="M671 821l7 -26h6l283 661h348l-534 -1160q-67 -150 -160 -233.5t-256 -83.5q-59 0 -103 10t-114 34l38 241q49 -14 77.5 -19.5t63.5 -5.5q84 0 124 31.5t65 104.5l15 41l-529 1040h361z" glyph-name="uni0423" horiz-adv-x="1317" unicode="У"/><glyph d="M952 1269q256 -19 410 -167t154 -383q0 -228 -154 -371.5t-410 -161.5v-186h-337v186q-259 17 -414 159.5t-155 371.5q0 236 155 384.5t414 167.5v187h337v-187zM377 717q0 -108 62.5 -169.5t169.5 -71.5l6 2v499l-6 2q-107 -11 -169.5 -78t-62.5 -184zM1185 719 q0 115 -61.5 182t-165.5 78l-6 -3v-498l6 -2q104 10 165.5 72.5t61.5 170.5z" glyph-name="uni0424" horiz-adv-x="1541" unicode="Ф"/><glyph d="M648 965l240 491h390l-417 -722l449 -734h-410l-248 501l-248 -501h-390l428 734l-417 722h387z" glyph-name="uni0425" horiz-adv-x="1307" unicode="Х"/><glyph d="M102 1456h337v-1196h539v1196h338v-1198h196v-617h-337v359h-1073v1456z" glyph-name="uni0426" horiz-adv-x="1570" unicode="Ц"/><glyph d="M1316 1456v-1456h-338v543q-59 -10 -134.5 -16.5t-111.5 -6.5q-281 0 -439 122t-158 369v445h338v-445q0 -131 61.5 -181t197.5 -50q42 0 115.5 6t130.5 16v654h338z" glyph-name="uni0427" horiz-adv-x="1431" unicode="Ч"/><glyph d="M450 1456v-1196h451v1196h337v-1196h447v1196h337v-1456h-1910v1456h338z" glyph-name="uni0428" horiz-adv-x="2138" unicode="Ш"/><glyph d="M450 1456v-1196h451v1196h337v-1196h447v1196h337v-1222h252v-577h-337v343h-1825v1456h338z" glyph-name="uni0429" horiz-adv-x="2338" unicode="Щ"/><glyph d="M8 1456h610v-479h196q259 0 416.5 -137t157.5 -351q0 -215 -157.5 -352t-416.5 -137h-535v1196h-271v260zM618 717v-457h196q111 0 174 67t63 164q0 94 -63.5 160t-173.5 66h-196z" glyph-name="uni042A" horiz-adv-x="1483" unicode="Ъ"/><glyph d="M455 977h196q259 0 416.5 -137t157.5 -351q0 -215 -157.5 -352t-416.5 -137h-535v1456h339v-479zM1672 0h-337v1456h337v-1456zM455 717v-457h196q111 0 174 67t63 164q0 94 -63.5 160t-173.5 66h-196z" glyph-name="uni042B" horiz-adv-x="1789" unicode="Ы"/><glyph d="M455 977h196q259 0 416.5 -137t157.5 -351q0 -215 -157.5 -352t-416.5 -137h-535v1456h339v-479zM455 717v-457h196q111 0 174 67t63 164q0 94 -63.5 160t-173.5 66h-196z" glyph-name="uni042C" horiz-adv-x="1278" unicode="Ь"/><glyph d="M47 966l-2 6q-5 249 133.5 377.5t403.5 128.5q256 0 410 -165.5t154 -431.5v-304q0 -267 -154 -432t-410 -165q-265 0 -404.5 127.5t-134.5 376.5l2 6h329q0 -137 46 -193.5t162 -56.5q112 0 168.5 90t56.5 245v23h-384v261h384v22q0 154 -56.5 245.5t-168.5 91.5 q-114 0 -160 -58t-46 -194h-329z" glyph-name="uni042D" horiz-adv-x="1238" unicode="Э"/><glyph d="M1806 597q0 -269 -170.5 -443.5t-445.5 -174.5t-447 172.5t-174 439.5h-95v-591h-337v1456h337v-604h95v7q0 268 171.5 443t447.5 175q274 0 446 -175t172 -443v-262zM1469 861q0 156 -73.5 256t-207.5 100q-137 0 -209.5 -99.5t-72.5 -256.5v-264q0 -158 73.5 -258 t210.5 -100q133 0 206 100t73 258v264z" glyph-name="uni042E" horiz-adv-x="1991" unicode="Ю"/><glyph d="M298 0h-367l303 648q-101 61 -152 153.5t-51 213.5q0 210 145.5 325.5t400.5 115.5h523v-1456h-338v537h-211zM762 1196h-185q-103 0 -155.5 -52t-52.5 -149t54 -157t154 -60h185v418z" glyph-name="uni042F" horiz-adv-x="1198" unicode="Я"/><glyph d="M721 1q-19 34 -32.5 77t-20.5 90q-44 -86 -108.5 -137.5t-168.5 -51.5q-170 0 -264.5 87.5t-94.5 238.5q0 161 121 248.5t367 87.5h139v77q0 69 -33 106t-101 37q-59 0 -87.5 -27.5t-28.5 -85.5l-328 1l-2 6q-7 148 123.5 247.5t344.5 99.5q201 0 325.5 -100t124.5 -286 v-408q0 -86 14.5 -160t43.5 -148zM483 220q62 0 109.5 29t66.5 69v143h-136q-81 0 -117 -39t-36 -99q0 -46 31.5 -74.5t81.5 -28.5z" glyph-name="uni0430" horiz-adv-x="1086" unicode="а"/><glyph d="M590 1102q239 0 372.5 -153.5t133.5 -397.5v-21q0 -245 -138 -398t-384 -153q-249 0 -387 153t-138 398v269q1 347 121.5 495t391.5 152q129 1 185 27.5t56 86.5h262l2 -6q5 -210 -109.5 -289.5t-367.5 -82.5q-144 -3 -216 -55.5t-62 -133.5l3 -6q44 49 117.5 82 t157.5 33zM572 842q-100 0 -143 -80t-43 -211v-21q0 -135 43 -213t145 -78q99 0 142 78t43 213v21q0 132 -43 211.5t-144 79.5z" glyph-name="uni0431" horiz-adv-x="1155" unicode="б"/><glyph d="M119 0v1082h464q217 0 338.5 -76.5t121.5 -226.5q0 -76 -53 -135.5t-151 -90.5q135 -24 202 -89t67 -155q0 -153 -116.5 -231t-338.5 -78h-534zM456 441v-183h197q61 0 89.5 21.5t28.5 67.5q0 45 -26 69.5t-92 24.5h-197zM456 649h139q59 0 85 19.5t26 61.5q0 50 -30 72 t-93 22h-127v-175z" glyph-name="uni0432" unicode="в"/><glyph d="M853 822h-426v-822h-337v1082h763v-260z" glyph-name="uni0433" horiz-adv-x="859" unicode="г"/><glyph d="M145 260v1h26q81 0 112 78t38 282l21 461h841v-822h151v-618h-337v358h-585v-358h-338v618h71zM659 621q-5 -111 -21 -201t-44 -160h253v562h-180z" glyph-name="uni0434" horiz-adv-x="1397" unicode="д"/><glyph d="M576 -21q-246 0 -385.5 149t-139.5 377v38q0 248 131.5 404t380.5 155q219 0 339.5 -131t120.5 -359v-177h-620l-2 -6q8 -85 63 -137.5t158 -52.5q97 0 161.5 16t147.5 51l81 -206q-70 -51 -188 -86t-248 -35zM563 842q-81 0 -119.5 -51.5t-44.5 -139.5l2 -5h292v26 q0 84 -29.5 127t-100.5 43z" glyph-name="uni0435" horiz-adv-x="1070" unicode="е"/><glyph d="M1134 378h-90v-378h-336v378h-88l-173 -378h-434l322 582l14 -6l4 4l-331 502h433l192 -389h61v389h336v-389h64l192 389h432l-331 -502l4 -4l14 6l321 -582h-434z" glyph-name="uni0436" horiz-adv-x="1755" unicode="ж"/><glyph d="M570 652q71 0 110.5 28t39.5 75q0 44 -33.5 75t-107.5 31q-71 0 -110.5 -23.5t-39.5 -69.5h-327l-2 6q-6 148 125.5 237.5t330.5 89.5q228 0 365 -82.5t137 -232.5q0 -72 -48.5 -132.5t-133.5 -96.5q97 -33 149 -97t52 -154q0 -151 -146.5 -238.5t-374.5 -87.5 q-197 0 -338 86t-135 248l2 6h327q0 -45 41.5 -72.5t126.5 -27.5q80 0 120.5 34t40.5 82q0 61 -45.5 90.5t-125.5 29.5h-159v196h159z" glyph-name="uni0437" horiz-adv-x="1159" unicode="з"/><glyph d="M726 1082h337v-1082h-337v594l-6 1l-292 -595h-338v1082h338v-592l6 -1z" glyph-name="uni0438" unicode="и"/><glyph d="M726 1082h337v-1082h-337v594l-6 1l-292 -595h-338v1082h338v-592l6 -1zM938 1565l2 -6q5 -133 -95 -217t-268 -84q-169 0 -269 84t-94 217l2 6h243q0 -47 28.5 -77t89.5 -30q60 0 88.5 30t28.5 77h244z" glyph-name="uni0439" unicode="й"/><glyph d="M569 378h-114v-378h-337v1082h337v-389h90l179 389h432l-323 -504l4 -5l19 9l332 -582h-457z" glyph-name="uni043A" horiz-adv-x="1190" unicode="к"/><glyph d="M1063 1082v-1082h-337v822h-208v-201q0 -320 -105 -470.5t-357 -150.5h-42l-7 261h26q98 0 122.5 70.5t24.5 289.5v461h883z" glyph-name="uni043B" horiz-adv-x="1157" unicode="л"/><glyph d="M770 381h6l242 701h423v-1082h-337v584l-6 1l-212 -585h-225l-200 552l-6 -1v-551h-337v1082h413z" glyph-name="uni043C" horiz-adv-x="1571" unicode="м"/><glyph d="M1060 0h-338v401h-295v-401h-337v1082h337v-422h295v422h338v-1082z" glyph-name="uni043D" unicode="н"/><glyph d="M51 551q0 244 138 397.5t385 153.5q248 0 386 -153.5t138 -397.5v-21q0 -245 -138 -398t-384 -153q-249 0 -387 153t-138 398v21zM389 530q0 -136 42.5 -213.5t144.5 -77.5q99 0 142 78t43 213v21q0 132 -43 211.5t-144 79.5q-100 0 -142.5 -80t-42.5 -211v-21z" glyph-name="uni043E" unicode="о"/><glyph d="M1063 0h-338v822h-298v-822h-337v1082h973v-1082z" glyph-name="uni043F" unicode="п"/><glyph d="M1098 518q0 -244 -110 -391.5t-310 -147.5q-78 0 -138.5 30t-105.5 87v-512h-338v1498h319l10 -118q45 66 107.5 102t143.5 36q201 0 311.5 -155t110.5 -408v-21zM761 539q0 137 -40 220t-128 83q-57 0 -96.5 -21t-62.5 -61v-452q24 -35 63.5 -52t97.5 -17 q89 0 127.5 73.5t38.5 205.5v21z" glyph-name="uni0440" unicode="р"/><glyph d="M559 239q69 0 103 37.5t34 108.5h308l2 -6q4 -177 -122.5 -288.5t-324.5 -111.5q-247 0 -380.5 152.5t-133.5 397.5v23q0 244 133 397t379 153q206 0 329.5 -114.5t119.5 -313.5l-2 -6h-308q0 77 -35 125.5t-104 48.5q-98 0 -136.5 -78.5t-38.5 -211.5v-23 q0 -136 38.5 -213t138.5 -77z" glyph-name="uni0441" horiz-adv-x="1048" unicode="с"/><glyph d="M1053 824h-341v-824h-339v824h-336v258h1016v-258z" glyph-name="uni0442" horiz-adv-x="1080" unicode="т"/><glyph d="M515 477l1 -8h6l179 613h360l-431 -1243q-50 -120 -129 -198t-251 -78q-44 0 -72 5.5t-88 20.5l41 241l21 -4.5t18 -1.5q80 0 117 23.5t55 70.5l27 70l-374 1094h359z" glyph-name="uni0443" horiz-adv-x="1053" unicode="у"/><glyph d="M45 539q0 253 110 408t311 155q77 0 138 -34t107 -96v588h338v-586q45 62 104.5 95t137.5 33q201 0 312 -155t111 -408v-21q0 -243 -110.5 -391t-310.5 -148q-79 0 -139 30.5t-105 89.5v-515h-338v518q-46 -60 -107.5 -91.5t-139.5 -31.5q-200 0 -309.5 148t-109.5 391 v21zM382 518q0 -132 38.5 -205.5t129.5 -73.5q56 0 96 17.5t65 52.5v451q-25 40 -64.5 61t-94.5 21q-90 0 -130 -83t-40 -220v-21zM1376 539q0 137 -40 220t-128 83q-57 0 -96.5 -21t-62.5 -61v-452q24 -35 63.5 -52t97.5 -17q89 0 127.5 73.5t38.5 205.5v21z" glyph-name="uni0444" horiz-adv-x="1773" unicode="ф"/><glyph d="M524 763h6l137 319h379l-314 -535l325 -547h-379l-144 329h-6l-144 -329h-379l325 547l-315 535h377z" glyph-name="uni0445" horiz-adv-x="1053" unicode="х"/><glyph d="M90 1082h337v-822h298v822h338v-822h167v-620h-337v360h-803v1082z" glyph-name="uni0446" horiz-adv-x="1261" unicode="ц"/><glyph d="M1067 0h-338v325q-30 -5 -56 -7.5t-44 -2.5q-262 0 -399.5 101t-137.5 317v349h337v-349q0 -96 42.5 -127t157.5 -31q25 0 50 2t50 8v497h338v-1082z" glyph-name="uni0447" horiz-adv-x="1155" unicode="ч"/><glyph d="M427 1082v-822h253v822h339v-822h253v822h337v-1082h-1519v1082h337z" glyph-name="uni0448" horiz-adv-x="1713" unicode="ш"/><glyph d="M427 1082v-822h253v822h339v-822h253v822h337v-822h245v-620h-337v360h-1427v1082h337z" glyph-name="uni0449" horiz-adv-x="1915" unicode="щ"/><glyph d="M654 765h171q231 0 365.5 -105.5t134.5 -276.5q0 -174 -134 -278.5t-366 -104.5h-509v821h-317v261h655v-317zM654 506v-248h171q82 0 123 34.5t41 92.5q0 54 -41 87.5t-123 33.5h-171z" glyph-name="uni044A" horiz-adv-x="1316" unicode="ъ"/><glyph d="M476 765h171q231 0 365.5 -105.5t134.5 -276.5q0 -174 -134 -278.5t-366 -104.5h-509v1082h338v-317zM1544 0h-339v1082h339v-1082zM476 506v-248h171q82 0 123 34.5t41 92.5q0 54 -41 87.5t-123 33.5h-171z" glyph-name="uni044B" horiz-adv-x="1744" unicode="ы"/><glyph d="M456 765h171q231 0 365.5 -105.5t134.5 -276.5q0 -174 -134 -278.5t-366 -104.5h-509v1082h338v-317zM456 506v-248h171q82 0 123 34.5t41 92.5q0 54 -41 87.5t-123 33.5h-171z" glyph-name="uni044C" horiz-adv-x="1157" unicode="ь"/><glyph d="M497 842q-71 0 -103.5 -37.5t-32.5 -107.5h-308l-2 6q-5 176 121 287.5t325 111.5q246 0 380 -153t134 -397v-23q0 -245 -133.5 -397.5t-378.5 -152.5q-207 0 -330 114.5t-118 314.5l2 6h308q0 -79 34 -127t104 -48q82 0 121 56t45 151l-3 5h-231v183h231l3 5 q-6 94 -45.5 148.5t-122.5 54.5z" glyph-name="uni044D" horiz-adv-x="1044" unicode="э"/><glyph d="M462 682h106q34 191 167 305.5t345 114.5q248 0 386 -153.5t138 -397.5v-21q0 -245 -138 -398t-384 -153q-219 0 -353.5 120t-163.5 322h-103v-421h-339v1082h339v-400zM895 530q0 -136 42.5 -213.5t144.5 -77.5q99 0 142 78t43 213v21q0 132 -43 211.5t-144 79.5 q-100 0 -142.5 -80t-42.5 -211v-21z" glyph-name="uni044E" horiz-adv-x="1658" unicode="ю"/><glyph d="M1031 1082v-1082h-336v358h-130l-191 -358h-336l222 415q-97 45 -149.5 122t-52.5 172q0 164 132.5 268.5t354.5 104.5h486zM395 697q0 -48 40 -85t112 -37h148v249h-150q-71 0 -110.5 -39t-39.5 -88z" glyph-name="uni044F" unicode="я"/><glyph d="M576 -21q-246 0 -385.5 149t-139.5 377v38q0 248 131.5 404t380.5 155q219 0 339.5 -131t120.5 -359v-177h-620l-2 -6q8 -85 63 -137.5t158 -52.5q97 0 161.5 16t147.5 51l81 -206q-70 -51 -188 -86t-248 -35zM563 842q-81 0 -119.5 -51.5t-44.5 -139.5l2 -5h292v26 q0 84 -29.5 127t-100.5 43zM708 1278h-297l-283 260l2 6h370z" glyph-name="uni0450" horiz-adv-x="1070" unicode="ѐ"/><glyph d="M576 -21q-246 0 -385.5 149t-139.5 377v38q0 248 131.5 404t380.5 155q219 0 339.5 -131t120.5 -359v-177h-620l-2 -6q8 -85 63 -137.5t158 -52.5q97 0 161.5 16t147.5 51l81 -206q-70 -51 -188 -86t-248 -35zM563 842q-81 0 -119.5 -51.5t-44.5 -139.5l2 -5h292v26 q0 84 -29.5 127t-100.5 43zM943 1280h-290v204h290v-204zM428 1280h-290v204h290v-204z" glyph-name="uni0451" horiz-adv-x="1070" unicode="ё"/><glyph d="M543 1196h-119v-248q49 73 119.5 113.5t155.5 40.5q168 0 264 -117t96 -363v-146h1v-491q0 -202 -108.5 -312t-300.5 -110q-45 0 -82.5 4t-78.5 13l14 255q30 -6 49 -9t51 -3q57 0 87 41.5t30 120.5v639q0 124 -32 171t-97 47q-57 0 -99 -16.5t-69 -46.5v-779h-338v1196 h-132v208h132v156h338v-156h119v-208z" glyph-name="uni0452" horiz-adv-x="1152" unicode="ђ"/><glyph d="M853 822h-426v-822h-337v1082h763v-260zM463 1524h371l2 -6l-281 -260h-298z" glyph-name="uni0453" horiz-adv-x="859" unicode="ѓ"/><glyph d="M559 239q69 0 103 37.5t34 108.5h308l2 -6q4 -177 -122.5 -288.5t-324.5 -111.5q-247 0 -380.5 152.5t-133.5 397.5v23q0 244 133 397t379 153q206 0 329.5 -114.5t119.5 -313.5l-2 -6h-308q0 77 -35 125.5t-104 48.5q-86 0 -126 -60.5t-47 -165.5h261v-183h-251l-2 -5 q6 -88 46 -138.5t121 -50.5z" glyph-name="uni0454" horiz-adv-x="1045" unicode="є"/><glyph d="M660 304q0 40 -45.5 71.5t-165.5 56.5q-189 37 -285 114.5t-96 213.5q0 143 120 242.5t325 99.5q216 0 344 -96.5t122 -249.5l-2 -6h-328q0 64 -32 97t-105 33q-53 0 -89 -29t-36 -74q0 -43 41.5 -73t167.5 -54q199 -39 294 -116.5t95 -219.5q0 -146 -129.5 -240.5 t-342.5 -94.5q-221 0 -349.5 112t-122.5 250l2 6h306q2 -77 46.5 -111t126.5 -34q68 0 103 26.5t35 75.5z" glyph-name="uni0455" horiz-adv-x="1048" unicode="ѕ"/><glyph d="M450 0h-339v1082h339v-1082zM450 1333h-339v227h339v-227z" glyph-name="uni0456" horiz-adv-x="561" unicode="і"/><glyph d="M462 0h-339v1082h339v-1082zM697 1258h-290v204h290v-204zM182 1258h-290v204h290v-204z" glyph-name="uni0457" horiz-adv-x="584" unicode="ї"/><glyph d="M454 1082v-1097q0 -202 -108.5 -312t-301.5 -110q-44 0 -80.5 4t-78.5 13l14 255q29 -6 49.5 -9t51.5 -3q56 0 85.5 41t29.5 121v1097h339zM448 1334h-339v226h339v-226z" glyph-name="uni0458" horiz-adv-x="548" unicode="ј"/><glyph d="M1064 1082v-317h172q231 0 365 -105.5t134 -276.5q0 -174 -134 -278.5t-365 -104.5h-510v822h-192v-201q0 -316 -114 -468.5t-369 -152.5h-42l-7 261h26q82 0 125 89.5t43 270.5v461h868zM1064 506v-248h172q82 0 122.5 34.5t40.5 92.5q0 54 -40.5 87.5t-122.5 33.5h-172 z" glyph-name="uni0459" horiz-adv-x="1766" unicode="љ"/><glyph d="M427 660h295v422h338v-317h171q231 0 365.5 -105.5t134.5 -276.5q0 -174 -134 -278.5t-366 -104.5h-509v401h-295v-401h-337v1082h337v-422zM1060 506v-248h171q82 0 123 34.5t41 92.5q0 54 -41 87.5t-123 33.5h-171z" glyph-name="uni045A" horiz-adv-x="1761" unicode="њ"/><glyph d="M719 1214h-295v-266q49 73 119.5 113.5t155.5 40.5q168 0 264 -117t96 -363v-622h-338v624q0 124 -32 171t-97 47q-57 0 -99 -16.5t-69 -46.5v-779h-338v1214h-53v191h53v155h338v-155h295v-191z" glyph-name="uni045B" horiz-adv-x="1152" unicode="ћ"/><glyph d="M569 378h-114v-378h-337v1082h337v-389h90l179 389h432l-323 -504l4 -5l19 9l332 -582h-457zM626 1524h371l2 -6l-281 -260h-298z" glyph-name="uni045C" horiz-adv-x="1190" unicode="ќ"/><glyph d="M726 1082h337v-1082h-337v594l-6 1l-292 -595h-338v1082h338v-592l6 -1zM745 1256h-297l-283 260l2 6h370z" glyph-name="uni045D" unicode="ѝ"/><glyph d="M515 477l1 -8h6l179 613h360l-431 -1243q-50 -120 -129 -198t-251 -78q-44 0 -72 5.5t-88 20.5l41 241l21 -4.5t18 -1.5q80 0 117 23.5t55 70.5l27 70l-374 1094h359zM889 1565l2 -6q5 -133 -95 -217t-268 -84q-169 0 -269 84t-94 217l2 6h243q0 -47 28.5 -77t89.5 -30 q60 0 88.5 30t28.5 77h244z" glyph-name="uni045E" horiz-adv-x="1053" unicode="ў"/><glyph d="M427 1082v-822h298v822h338v-1082h-319v-360h-337v360h-317v1082h337z" glyph-name="uni045F" unicode="џ"/><glyph d="M1095 1435q60 20 127.5 31t140.5 11q231 0 380.5 -167t149.5 -430v-304q0 -265 -154 -431t-397 -166q-111 0 -198 20t-154 57q-68 -36 -155 -56.5t-196 -20.5q-244 0 -397.5 166t-153.5 431v304q0 263 149 430t382 167q71 0 139 -11t129 -31l-63 -241q-39 11 -88 17 t-106 6q-93 0 -149 -93t-56 -242v-306q0 -151 56.5 -244t157.5 -93q77 0 117 14.5t65 40.5v250h-183v224h705v-224h-183v-250q25 -26 65 -40.5t117 -14.5q100 0 157 92.5t57 244.5v306q0 149 -56.5 242t-147.5 93q-58 0 -107 -6t-88 -17z" glyph-name="uni0460" horiz-adv-x="1980" unicode="Ѡ"/><glyph d="M501 446l34 -187h6l53 187l52 247l-108 389h333l119 -636l12 -70l2 10q61 163 86 332.5t25 363.5h354q-37 -271 -112 -536t-184 -546h-333l-73 260h-6l-88 -260h-321l-352 1082h356z" glyph-name="uni0461" horiz-adv-x="1486" unicode="ѡ"/><glyph d="M720 1085h-265v-108h196q259 0 416.5 -137t157.5 -351q0 -215 -157.5 -352t-416.5 -137h-535v1085h-82v191h82v180h339v-180h265v-191zM455 717v-457h196q111 0 174 67t63 164q0 94 -63.5 160t-173.5 66h-196z" glyph-name="uni0462" horiz-adv-x="1278" unicode="Ѣ"/><glyph d="M678 1122h-222v-357h171q231 0 365.5 -105.5t134.5 -276.5q0 -174 -134 -278.5t-366 -104.5h-509v1122h-117v191h117v249h338v-249h222v-191zM456 506v-248h171q82 0 123 34.5t41 92.5q0 54 -41 87.5t-123 33.5h-171z" glyph-name="uni0463" horiz-adv-x="1157" unicode="ѣ"/><glyph d="M1208 598h-314v-21q0 -153 67 -245t192 -92q116 0 167.5 58t51.5 194h329l2 -6q4 -249 -140.5 -377.5t-409.5 -128.5q-270 0 -433.5 165t-163.5 432v21h-81v-598h-337v1456h337v-597h81v22q0 266 157.5 431.5t416.5 165.5q277 0 428.5 -129t147.5 -375l-3 -6h-329 q0 134 -57 192t-187 58q-114 0 -175 -91.5t-61 -243.5v-24h314v-261z" glyph-name="uni0464" horiz-adv-x="1824" unicode="Ѥ"/><glyph d="M1120 464h-310q7 -107 47 -166t128 -59q69 0 103 37.5t34 108.5h308l2 -6q4 -177 -122.5 -288.5t-324.5 -111.5q-229 0 -362 133t-150 352h-13v-464h-339v1082h339v-427h17q27 202 157.5 324.5t348.5 122.5q206 0 329.5 -114.5t119.5 -313.5l-2 -6h-308q0 77 -35 125.5 t-104 48.5q-78 0 -117 -49.5t-47 -132.5l2 -5h299v-191z" glyph-name="uni0465" horiz-adv-x="1554" unicode="ѥ"/><glyph d="M913 366h-88v-366h-269v366h-77l-118 -366h-356l509 1456h364l510 -1456h-356zM550 584h292l-144 441h-6z" glyph-name="uni0466" horiz-adv-x="1401" unicode="Ѧ"/><glyph d="M728 262h-65v-262h-187v262h-48l-80 -262h-344l392 1082h365l391 -1082h-343zM489 460h178l-54 175l-32 139h-6l-32 -139z" glyph-name="uni0467" horiz-adv-x="1171" unicode="ѧ"/><glyph d="M493 584h245l305 872h364l510 -1456h-356l-119 366h-88v-366h-269v366h-77l-118 -366h-356l127 364h-168v-364h-337v1456h337v-872zM1079 584h292l-144 441h-6z" glyph-name="uni0468" horiz-adv-x="1976" unicode="Ѩ"/><glyph d="M1175 262h-65v-262h-187v262h-48l-80 -262h-639v263h-2v196h2v623h339v-623h122l226 623h365l391 -1082h-343zM936 460h178l-54 175l-32 139h-6l-32 -139zM495 263v-125l6 -1l45 126h-51z" glyph-name="uni0469" horiz-adv-x="1682" unicode="ѩ"/><glyph d="M96 0v330q0 242 135 352.5t398 115.5l-369 658h1318l-370 -660q241 -13 366 -124t125 -342v-330h-337v330q0 114 -53 159t-169 45h-56v-534h-338v534h-92q-117 0 -169 -45t-52 -159v-330h-337zM918 861l163 331h-325z" glyph-name="uni046A" horiz-adv-x="1795" unicode="Ѫ"/><glyph d="M1038 609q177 -25 270.5 -126t93.5 -293v-190h-337v190q0 99 -34 139t-105 37l-6 -2v-364h-337v364l-6 2q-78 4 -114 -35t-36 -141v-190h-337v190q0 196 96.5 297.5t283.5 123.5l-273 471h1115zM751 650h6l102 230h-210z" glyph-name="uni046B" horiz-adv-x="1493" unicode="ѫ"/><glyph d="M1314 535h-997v264h997v-264zM474 0h-337v1456h337v-1456zM663 0v330q0 242 135 352.5t398 115.5l-369 658h1318l-370 -660q241 -13 366 -124t125 -342v-330h-337v330q0 114 -53 159t-169 45h-56v-534h-338v534h-92q-117 0 -169 -45t-52 -159v-330h-337zM1485 861 l163 331h-325z" glyph-name="uni046C" horiz-adv-x="2409" unicode="Ѭ"/><glyph d="M1203 384h-985v233h985v-233zM462 0h-339v1082h339v-1082zM1544 609q177 -25 270.5 -126t93.5 -293v-190h-337v190q0 99 -34 139t-105 37l-6 -2v-364h-337v364l-6 2q-78 4 -114 -35t-36 -141v-190h-337v190q0 196 96.5 297.5t283.5 123.5l-273 471h1115zM1257 650h6 l102 230h-210z" glyph-name="uni046D" horiz-adv-x="2080" unicode="ѭ"/><glyph d="M377 880q94 0 139 44.5t45 118.5q0 70 -50 106.5t-154 36.5h-239v270h239q258 0 400 -90.5t142 -283.5q0 -125 -58 -209t-165 -128q136 -44 208 -129.5t72 -207.5q0 -203 -141 -316t-380 -113h-62q-51 0 -74 -23.5t-23 -65.5q0 -54 39.5 -87.5t96.5 -57.5l-82 -193 q-186 32 -271 133t-87 257q0 151 96.5 229.5t267.5 78.5h75q95 0 151 42.5t56 111.5q0 99 -65 152t-187 53h-143v271h154zM574 1803l102 116h309v-16l-292 -260h-239l-294 262v14h312z" glyph-name="uni046E" horiz-adv-x="1048" unicode="Ѯ"/><glyph d="M401 630q73 0 107.5 33t34.5 89q0 49 -46 75t-140 26h-239v229h239q250 0 387 -70.5t137 -221.5q0 -90 -44.5 -152t-127.5 -98q110 -34 169 -94t59 -142q0 -153 -129.5 -239t-350.5 -86h-49q-63 0 -91.5 -23.5t-28.5 -65.5q0 -54 33 -87.5t80 -57.5l-82 -172 q-142 41 -227 139.5t-86 229.5q0 131 84.5 198.5t234.5 67.5h64q97 0 154 31t57 81q0 59 -54.5 91t-155.5 32h-167v187h178zM502 1459l102 116h309v-16l-292 -260h-239l-294 262v14h312z" glyph-name="uni046F" horiz-adv-x="1057" unicode="ѯ"/><glyph d="M938 632l6 -2q101 13 148.5 96.5t47.5 242.5v487h339v-487q0 -268 -144.5 -427t-396.5 -184v-358h-337v356q-262 20 -411 179.5t-149 433.5v487h337v-487q0 -152 55 -237t162 -101l6 2v823h337v-824z" glyph-name="uni0470" horiz-adv-x="1517" unicode="Ѱ"/><glyph d="M945 1082v-813l6 -1q117 27 169.5 113.5t52.5 225.5q-2 114 -28.5 231t-71.5 244h301q60 -95 98 -214.5t38 -260.5q0 -244 -134.5 -412.5t-430.5 -205.5v-467h-337v469q-263 34 -407 180.5t-144 415.5v495h338v-498q0 -139 55 -216t152 -99l6 1v812h337z" glyph-name="uni0471" horiz-adv-x="1569" unicode="ѱ"/><glyph d="M1326 597q0 -269 -170.5 -443.5t-445.5 -174.5q-277 0 -449 174.5t-172 443.5v262q0 268 171.5 443t447.5 175q274 0 446 -175t172 -443v-262zM880 771q24 0 55.5 19t53.5 49v22q0 156 -73.5 256t-207.5 100q-137 0 -209.5 -99.5t-72.5 -256.5v-88q26 48 69.5 76 t103.5 28q58 0 143.5 -53t137.5 -53zM989 618q-29 -34 -68 -51.5t-87 -17.5q-71 0 -149 53.5t-131 53.5q-40 0 -81 -41.5t-42 -94.5q16 -128 88 -204.5t191 -76.5q133 0 206 100t73 258v21z" glyph-name="uni0472" horiz-adv-x="1416" unicode="Ѳ"/><glyph d="M51 551q0 244 138 397.5t385 153.5q248 0 386 -153.5t138 -397.5v-21q0 -245 -138 -398t-384 -153q-249 0 -387 153t-138 398v21zM700 570q18 0 33 14t24 39q-10 101 -53.5 160t-129.5 59q-94 0 -136.5 -69.5t-39.5 -176.5l4 -5q10 24 35.5 41t55.5 17q41 0 105 -39.5 t102 -39.5zM467 485q-26 0 -44 -26.5t-21 -65.5q17 -74 59 -114t115 -40q81 0 123 52.5t47 138.5l-3 5q-9 -13 -28 -21.5t-39 -8.5q-52 0 -111.5 40t-97.5 40z" glyph-name="uni0473" horiz-adv-x="1152" unicode="ѳ"/><glyph d="M650 395l10 -51h6l9 47l195 718q52 182 139 274t236 92q31 0 56 -4t44 -13l-24 -256q-4 0 -24.5 1.5t-31.5 1.5q-39 0 -70 -32.5t-40 -77.5l-310 -1095h-363l-474 1456h354z" glyph-name="uni0474" horiz-adv-x="1325" unicode="Ѵ"/><glyph d="M480 446l17 -96h6l16 96l63 291q52 180 145 273t245 93q30 0 55 -4t45 -12l-25 -256q-4 0 -24.5 1.5t-31.5 1.5q-42 0 -73 -32t-42 -78l-201 -724h-343l-332 1082h356z" glyph-name="uni0475" horiz-adv-x="1053" unicode="ѵ"/><glyph d="M650 395l10 -51h6l9 47l195 718q52 182 139 274t236 92q31 0 56 -4t44 -13l-24 -256q-4 0 -24.5 1.5t-31.5 1.5q-39 0 -70 -32.5t-40 -77.5l-310 -1095h-363l-474 1456h354zM571 1591l-2 -5h-264l-278 260l2 6h302zM956 1586h-274l-240 261l2 5h305z" glyph-name="uni0476" horiz-adv-x="1325" unicode="Ѷ"/><glyph d="M480 446l17 -96h6l16 96l63 291q52 180 145 273t245 93q30 0 55 -4t45 -12l-25 -256q-4 0 -24.5 1.5t-31.5 1.5q-42 0 -73 -32t-42 -78l-201 -724h-343l-332 1082h356zM473 1357l-2 -5h-264l-278 260l2 6h302zM858 1352h-274l-240 261l2 5h305z" glyph-name="uni0477" horiz-adv-x="1053" unicode="ѷ"/><glyph d="M1326 597q0 -269 -170.5 -443.5t-445.5 -174.5q-277 0 -449 174.5t-172 443.5v262q0 268 171.5 443t447.5 175q274 0 446 -175t172 -443v-262zM989 861q0 156 -73.5 256t-207.5 100q-137 0 -209.5 -99.5t-72.5 -256.5v-264q0 -158 73.5 -258t210.5 -100q133 0 206 100 t73 258v264zM1931 477l1 -8h6l179 613h360l-431 -1243q-50 -120 -129 -198t-251 -78q-44 0 -72 5.5t-88 20.5l41 241l21 -4.5t18 -1.5q80 0 117 23.5t55 70.5l27 70l-374 1094h359z" glyph-name="uni0478" horiz-adv-x="2469" unicode="Ѹ"/><glyph d="M51 551q0 244 138 397.5t385 153.5q248 0 386 -153.5t138 -397.5v-21q0 -245 -138 -398t-384 -153q-249 0 -387 153t-138 398v21zM389 530q0 -136 42.5 -213.5t144.5 -77.5q99 0 142 78t43 213v21q0 132 -43 211.5t-144 79.5q-100 0 -142.5 -80t-42.5 -211v-21zM1666 477 l1 -8h6l179 613h360l-431 -1243q-50 -120 -129 -198t-251 -78q-44 0 -72 5.5t-88 20.5l41 241l21 -4.5t18 -1.5q80 0 117 23.5t55 70.5l27 70l-374 1094h359z" glyph-name="uni0479" horiz-adv-x="2204" unicode="ѹ"/><glyph d="M804 1084h-194v487h194v-487zM807 -133h-193v497h193v-497zM1326 597q0 -269 -170.5 -443.5t-445.5 -174.5q-277 0 -449 174.5t-172 443.5v262q0 268 171.5 443t447.5 175q274 0 446 -175t172 -443v-262zM989 861q0 156 -73.5 256t-207.5 100q-137 0 -209.5 -99.5 t-72.5 -256.5v-264q0 -158 73.5 -258t210.5 -100q133 0 206 100t73 258v264z" glyph-name="uni047A" horiz-adv-x="1416" unicode="Ѻ"/><glyph d="M676 726h-193v477h193v-477zM668 -126h-193v497h193v-497zM51 551q0 244 138 397.5t385 153.5q248 0 386 -153.5t138 -397.5v-21q0 -245 -138 -398t-384 -153q-249 0 -387 153t-138 398v21zM389 530q0 -136 42.5 -213.5t144.5 -77.5q99 0 142 78t43 213v21 q0 132 -43 211.5t-144 79.5q-100 0 -142.5 -80t-42.5 -211v-21z" glyph-name="uni047B" horiz-adv-x="1152" unicode="ѻ"/><glyph d="M1140 1435q49 20 105.5 31t117.5 11q232 0 381 -183.5t149 -473.5v-164q0 -301 -154 -489t-397 -188q-111 0 -198 26t-154 72q-67 -46 -154.5 -72t-196.5 -26q-244 0 -397.5 188t-153.5 489v164q0 290 149 473.5t382 183.5q60 0 116 -11t107 -31l-63 -241 q-31 11 -68.5 17t-80.5 6q-93 0 -149 -109.5t-56 -285.5v-166q0 -188 56.5 -302.5t157.5 -114.5q77 0 117 20t65 55v44h339v-44q25 -36 65 -55.5t117 -19.5q100 0 157 114.5t57 302.5v166q0 176 -56.5 285.5t-148.5 109.5q-44 0 -81.5 -6t-67.5 -17zM1454 1858v-134h-11 q-127 0 -288.5 60t-202.5 60q-48 0 -74.5 -25.5t-26.5 -76.5v-18h-132v37q0 109 59.5 163t170.5 54q70 0 228 -60t267 -60h10zM949 1439l-82 48l59 105l-1 150h177v-132z" glyph-name="uni047C" horiz-adv-x="1980" unicode="Ѽ"/><glyph d="M957 1065q46 20 97.5 31t108.5 11q206 0 339.5 -150.5t133.5 -386.5v-34q0 -247 -138.5 -402t-355.5 -155q-90 0 -162.5 20.5t-129.5 57.5q-58 -37 -130 -57.5t-161 -20.5q-218 0 -356 155t-138 402v34q0 236 133.5 386.5t340.5 150.5q56 0 107.5 -11t97.5 -31l-62 -241 q-28 11 -61 17t-71 6q-67 0 -107 -76.5t-40 -198.5v-36q0 -133 41.5 -215t114.5 -82q51 0 78 14.5t44 40.5v74h339v-74q16 -26 43 -40.5t79 -14.5q72 0 114.5 82t42.5 215v36q0 122 -41 198.5t-107 76.5q-39 0 -72 -6t-59 -17zM1351 1460v-134h-11q-127 0 -288.5 60 t-202.5 60q-48 0 -74.5 -25.5t-26.5 -76.5v-18h-132v37q0 109 59.5 163t170.5 54q70 0 228 -60t267 -60h10zM846 1061l-82 48l59 105l-1 130h178v-112z" glyph-name="uni047D" horiz-adv-x="1695" unicode="ѽ"/><glyph d="M712 1687v-127l-178 1l1 238h916v-239h-179v127h-197v-127h-181v127h-182zM1157 1194q39 11 88 17t107 6q91 0 147.5 -93t56.5 -242v-306q0 -152 -57 -244.5t-157 -92.5q-77 0 -117 14.5t-65 40.5v250h183v224h-705v-224h183v-250q-25 -26 -65 -40.5t-117 -14.5 q-101 0 -157.5 93t-56.5 244v306q0 149 56 242t149 93q57 0 106 -6t88 -17l63 241q-61 20 -129 31t-139 11q-233 0 -382 -167t-149 -430v-304q0 -265 153.5 -431t397.5 -166q109 0 196 20.5t155 56.5q67 -37 154 -57t198 -20q243 0 397 166t154 431v304q0 263 -149.5 430 t-380.5 167q-73 0 -140.5 -11t-127.5 -31z" glyph-name="uni047E" horiz-adv-x="1980" unicode="Ѿ"/><glyph d="M524 1345v-127l-177 1l1 238h824v-239h-180v127h-151v-127h-180v127h-137zM356 1082h-356l352 -1082h321l88 260h6l73 -260h333q109 281 184 546t112 536h-354q0 -194 -25 -363.5t-86 -332.5l-2 -10l-12 70l-119 636h-333l108 -389l-52 -247l-53 -187h-6l-34 187z" glyph-name="uni047F" horiz-adv-x="1486" unicode="ѿ"/><glyph d="M867 -356h-338v345q-210 35 -330 193t-120 394v304q0 267 153 432t411 165q263 0 402.5 -128t135.5 -376l-2 -6h-329q0 136 -46 193t-161 57q-114 0 -170 -90t-56 -245v-306q0 -155 56 -246t170 -91h224v-595z" glyph-name="uni0480" horiz-adv-x="1246" unicode="Ҁ"/><glyph d="M823 -358h-337v346q-197 32 -301.5 178.5t-104.5 362.5v23q0 244 133 397t379 153q206 0 328.5 -114.5t118.5 -313.5l-2 -6h-308q0 78 -34 126t-103 48q-99 0 -137 -78.5t-38 -211.5v-23q0 -134 35.5 -210t130.5 -80h240v-597z" glyph-name="uni0481" horiz-adv-x="1092" unicode="ҁ"/><glyph d="M599 449l289 -172l-72 -128l-291 170l-181 -319h-175l225 398l-289 171l71 128l293 -171l202 360l-290 171l73 130l291 -171l185 326h172l-228 -405l293 -171l-76 -127l-288 170z" glyph-name="uni0482" horiz-adv-x="1270" unicode="҂"/><glyph d="M207 1312v-126l-177 1l1 238h546l-1 108l177 -1v-220h-546z" glyph-name="uni0483" horiz-adv-x="781" unicode="҃"/><glyph d="M35 1437q113 0 277 60t237 60q113 0 175.5 -54t62.5 -163v-37h-136v18q0 51 -29 76.5t-77 25.5q-43 0 -210 -60t-298 -60h-12v134h10z" glyph-name="uni0484" horiz-adv-x="819" unicode="҄"/><glyph d="M58 1500v152h190l-1 -170l58 -105l-81 -68z" glyph-name="uni0485" horiz-adv-x="315" unicode="҅"/><glyph d="M90 1309l-82 68l59 105l-1 170h189v-152z" glyph-name="uni0486" horiz-adv-x="307" unicode="҆"/><glyph d="M809 1267l-2 6q-5 79 51 130.5t153 51.5q96 0 152.5 -51.5t52.5 -130.5l-2 -6h-104q0 43 -24.5 72t-74.5 29t-73.5 -29t-23.5 -72h-105zM1400 990l-2 6q-5 78 51.5 130t152.5 52t153 -51.5t53 -130.5l-2 -6h-105q0 44 -24 72.5t-75 28.5q-50 0 -73 -29t-23 -72h-106z M1587 487l-2 6q-5 78 51.5 130t152.5 52t152.5 -51.5t52.5 -130.5l-2 -6h-104q0 44 -24 72.5t-75 28.5q-50 0 -73.5 -29t-23.5 -72h-105zM1390 -32l-2 6q-5 78 51.5 130t152.5 52t152.5 -51.5t52.5 -130.5l-2 -6h-104q0 44 -24 72.5t-75 28.5q-50 0 -73.5 -29t-23.5 -72 h-105zM814 -316l-2 6q-5 80 51 131t153 51q96 0 152.5 -51t52.5 -131l-2 -6h-104q0 44 -24.5 72.5t-74.5 28.5t-73.5 -28.5t-23.5 -72.5h-105zM236 990l-2 6q-5 79 51.5 130.5t153.5 51.5q96 0 152.5 -51.5t52.5 -130.5l-2 -6h-104q0 43 -24.5 72t-74.5 29t-73.5 -29 t-23.5 -72h-106zM60 487l-2 6q-5 78 51.5 130t152.5 52t152.5 -51.5t52.5 -130.5l-2 -6h-104q0 44 -24 72.5t-75 28.5q-50 0 -73.5 -29t-23.5 -72h-105zM226 -32l-2 6q-5 78 51.5 130t152.5 52t153 -51.5t53 -130.5l-2 -6h-105q0 44 -24 72.5t-75 28.5q-50 0 -73 -29 t-23 -72h-106z" glyph-name="uni0488" horiz-adv-x="2063" unicode="҈"/><glyph d="M1098 -60l11 -14l-122 -339h-96l70 353h137zM903 1126l-12 14l122 338h96l-70 -352h-136zM1581 631l13 12l333 -124v-98l-346 71v139zM417 433l-13 -12l-333 124v98l346 -71v-139zM1341 1002l2 16l321 153l68 -68q-37 -23 -294 -200zM657 21l-2 -17l-320 -153l-69 69 l294 200zM517 860l-17 2l-148 326l65 69l198 -299zM1479 161l17 -2l149 -325l-66 -71l-197 299z" glyph-name="uni0489" horiz-adv-x="1995" unicode="҉"/><glyph d="M976 1456h338v-1456h-338v902l-6 1l-533 -903h-338v1456h338v-901l6 -1zM1068 1908l2 -6q5 -133 -95 -217t-268 -84q-169 0 -269 84t-94 217l2 6h243q0 -47 28.5 -77t89.5 -30q60 0 88.5 30t28.5 77h244zM1630 -48l-163 -318h-233l70 327v263h326v-272z" glyph-name="uni048A" horiz-adv-x="1426" unicode="Ҋ"/><glyph d="M726 1082h337v-1082h-337v594l-6 1l-292 -595h-338v1082h338v-592l6 -1zM938 1565l2 -6q5 -133 -95 -217t-268 -84q-169 0 -269 84t-94 217l2 6h243q0 -47 28.5 -77t89.5 -30q60 0 88.5 30t28.5 77h244zM1379 -48l-163 -318h-233l70 327v263h326v-272z" glyph-name="uni048B" unicode="ҋ"/><glyph d="M720 1085h-265v-108h196q259 0 416.5 -137t157.5 -351q0 -215 -157.5 -352t-416.5 -137h-535v1085h-82v191h82v180h339v-180h265v-191zM455 717v-457h196q111 0 174 67t63 164q0 94 -63.5 160t-173.5 66h-196z" glyph-name="uni048C" horiz-adv-x="1278" unicode="Ҍ"/><glyph d="M701 817h-245v-52h171q231 0 365.5 -105.5t134.5 -276.5q0 -174 -134 -278.5t-366 -104.5h-509v817h-103v191h103v74h338v-74h245v-191zM456 506v-248h171q82 0 123 34.5t41 92.5q0 54 -41 87.5t-123 33.5h-171z" glyph-name="uni048D" horiz-adv-x="1157" unicode="ҍ"/><glyph d="M1046 369l-110 -59l-326 616l111 59zM447 499v-499h-338v1456h556q259 0 411 -132t152 -347t-152 -346.5t-411 -131.5h-218zM447 759h218q110 0 168 60.5t58 155.5q0 97 -57.5 159t-168.5 62h-218v-437z" glyph-name="uni048E" horiz-adv-x="1280" unicode="Ҏ"/><glyph d="M861 -135l-117 -44l-211 600l116 44zM1098 518q0 -244 -110 -391.5t-310 -147.5q-78 0 -138.5 30t-105.5 87v-512h-338v1498h319l10 -118q45 66 107.5 102t143.5 36q201 0 311.5 -155t110.5 -408v-21zM761 539q0 137 -40 220t-128 83q-57 0 -96.5 -21t-62.5 -61v-452 q24 -35 63.5 -52t97.5 -17q89 0 127.5 73.5t38.5 205.5v21z" glyph-name="uni048F" horiz-adv-x="1150" unicode="ҏ"/><glyph d="M1112 1197h-19v-1h-638v-1196h-339v1456h659v388h337v-647z" glyph-name="uni0490" horiz-adv-x="1144" unicode="Ґ"/><glyph d="M913 822h-486v-822h-337v1082h485v317h338v-577z" glyph-name="uni0491" horiz-adv-x="961" unicode="ґ"/><glyph d="M673 656h-218v-656h-339v656h-129v191h129v609h977v-260h-638v-349h218v-191z" glyph-name="uni0492" horiz-adv-x="1144" unicode="Ғ"/><glyph d="M623 446h-196v-446h-337v446h-153v191h153v445h763v-260h-426v-185h196v-191z" glyph-name="uni0493" horiz-adv-x="859" unicode="ғ"/><glyph d="M1093 1196h-638v-265h183q282 0 447.5 -123.5t165.5 -367.5q4 -132 -91 -263.5t-273 -203.5l-157 207q88 54 135 112.5t49 147.5q0 116 -71.5 173.5t-204.5 57.5h-183v-671h-339v1456h977v-260z" glyph-name="uni0494" horiz-adv-x="1097" unicode="Ҕ"/><glyph d="M853 822h-426v-93h35q282 0 447.5 -123.5t165.5 -367.5q4 -132 -91 -263t-273 -204l-157 207q88 54 135 112.5t49 147.5q0 116 -71.5 173.5t-204.5 57.5h-35v-469h-337v1082h763v-260z" glyph-name="uni0495" horiz-adv-x="1295" unicode="ҕ"/><glyph d="M1265 578h-109v-578h-338v578h-113l-288 -578h-420l441 793l-427 663h426l303 -576h78v576h338v-576h76l292 576h424l-417 -660l433 -796h-421zM2099 -356h-337v630h337v-630z" glyph-name="uni0496" horiz-adv-x="1961" unicode="Җ"/><glyph d="M1134 378h-90v-378h-336v378h-88l-173 -378h-434l322 582l14 -6l4 4l-331 502h433l192 -389h61v389h336v-389h64l192 389h432l-331 -502l4 -4l14 6l321 -582h-434zM1827 -356h-337v630h337v-630z" glyph-name="uni0497" horiz-adv-x="1755" unicode="җ"/><glyph d="M657 869q119 0 176.5 48t57.5 137q0 69 -64.5 116t-185.5 47q-93 0 -153.5 -42.5t-60.5 -114.5h-328l-1 6q-6 184 153 297.5t390 113.5q271 0 429 -108t158 -308q0 -100 -64 -183t-177 -130q128 -43 196 -129t68 -211q0 -201 -169 -315t-441 -114q-231 0 -400.5 107 t-163.5 312l2 6h329q0 -71 65.5 -118t167.5 -47q126 0 199 49.5t73 126.5q0 107 -64 155t-192 48h-204v251h204zM692 51q84 -53 124.5 -120.5t40.5 -142.5q0 -101 -74 -157.5t-186 -56.5q-61 0 -105 12.5t-79 31.5l36 168q20 -8 40.5 -13t48.5 -5q50 0 64 20t14 39 q0 47 -19 78t-64 86z" glyph-name="uni0498" horiz-adv-x="1325" unicode="Ҙ"/><glyph d="M570 652q71 0 110.5 28t39.5 75q0 44 -33.5 75t-107.5 31q-71 0 -110.5 -23.5t-39.5 -69.5h-327l-2 6q-6 148 125.5 237.5t330.5 89.5q228 0 365 -82.5t137 -232.5q0 -72 -48.5 -132.5t-133.5 -96.5q97 -33 149 -97t52 -154q0 -151 -146.5 -238.5t-374.5 -87.5 q-197 0 -338 86t-135 248l2 6h327q0 -45 41.5 -72.5t126.5 -27.5q80 0 120.5 34t40.5 82q0 61 -45.5 90.5t-125.5 29.5h-159v196h159zM607 52q84 -53 124.5 -120.5t40.5 -142.5q0 -101 -74 -157.5t-186 -56.5q-61 0 -105 12.5t-79 31.5l36 168q20 -8 40.5 -13t48.5 -5 q50 0 64 20t14 39q0 47 -19 78t-64 86z" glyph-name="uni0499" horiz-adv-x="1159" unicode="ҙ"/><glyph d="M548 584h-94v-584h-338v1456h338v-570h70l329 570h425l-458 -662l497 -794h-434zM1385 -356h-337v630h337v-630z" glyph-name="uni049A" horiz-adv-x="1306" unicode="Қ"/><glyph d="M569 378h-114v-378h-337v1082h337v-389h90l179 389h432l-323 -504l4 -5l19 9l332 -582h-457zM1281 -356h-337v630h337v-630z" glyph-name="uni049B" horiz-adv-x="1190" unicode="қ"/><glyph d="M1382 1456l-373 -650l412 -806h-433l-244 578h-42v-225h-171v225h-76v-578h-339v1456h339v-576h76v258h171v-258h23l232 576h425z" glyph-name="uni049C" horiz-adv-x="1379" unicode="Ҝ"/><glyph d="M1222 1082l-270 -504l278 -578h-434l-117 378h-25v-163h-147v163h-52v-378h-337v1082h337v-389h52v183h147v-183h31l105 389h432z" glyph-name="uni049D" horiz-adv-x="1211" unicode="ҝ"/><glyph d="M548 584h-94v-584h-338v1134h-223v191h223v131h338v-131h125v-191h-125v-248h70l329 570h425l-458 -662l497 -794h-434z" glyph-name="uni049E" horiz-adv-x="1306" unicode="Ҟ"/><glyph d="M495 430h-61v-430h-338v1207h-189v191h189v162h338v-162h159v-191h-159v-522h48l228 397h387l-333 -488l388 -594h-385z" glyph-name="uni049F" horiz-adv-x="1119" unicode="ҟ"/><glyph d="M987 584h-94v-584h-338v1195h-466v261h804v-570h70l329 570h425l-458 -662l497 -794h-434z" glyph-name="uni04A0" horiz-adv-x="1756" unicode="Ҡ"/><glyph d="M949 378h-114v-378h-337v821h-414v261h751v-389h90l179 389h432l-323 -504l4 -5l19 9l332 -582h-457z" glyph-name="uni04A1" horiz-adv-x="1530" unicode="ҡ"/><glyph d="M1330 0h-337v586h-539v-586h-338v1456h338v-610h539v610h337v-1456zM1530 -356h-337v630h337v-630z" glyph-name="uni04A2" horiz-adv-x="1446" unicode="Ң"/><glyph d="M1060 0h-338v401h-295v-401h-337v1082h337v-422h295v422h338v-1082zM1260 -356h-337v630h337v-630z" glyph-name="uni04A3" unicode="ң"/><glyph d="M453 846h539v610h962v-260h-623l-2 2v-1198h-337v586h-539v-586h-338v1456h338v-610z" glyph-name="uni04A4" horiz-adv-x="2037" unicode="Ҥ"/><glyph d="M427 660h295v422h667v-260h-329v-822h-338v401h-295v-401h-337v1082h337v-422z" glyph-name="uni04A5" horiz-adv-x="1442" unicode="ҥ"/><glyph d="M1330 936h152q282 0 447.5 -123.5t165.5 -367.5q4 -132 -90.5 -263.5t-272.5 -203.5l-158 207q89 54 136 112.5t48 147.5q1 116 -70.5 173.5t-205.5 57.5h-152v-676h-337v1196h-539v-1196h-338v1456h1214v-520z" glyph-name="uni04A6" horiz-adv-x="2134" unicode="Ҧ"/><glyph d="M1063 732h155q282 0 447.5 -123.5t165.5 -367.5q4 -132 -91 -263t-273 -204l-157 207q88 54 135 112.5t49 147.5q0 116 -71.5 173.5t-204.5 57.5h-155v-472h-338v822h-298v-822h-337v1082h973v-350z" glyph-name="uni04A7" horiz-adv-x="1766" unicode="ҧ"/><glyph d="M586 641v114q0 159 109 263.5t285 104.5q196 0 318.5 -115.5t122.5 -294.5v-95q0 -275 -185.5 -457t-479.5 -182q-296 0 -481.5 176t-185.5 442v262q0 265 178 440.5t460 172.5l6 -3v-263q-130 0 -206.5 -96.5t-76.5 -248.5v-264q0 -154 82 -250.5t224 -96.5 q17 0 33.5 1.5t32.5 4.5q-112 58 -174 158.5t-62 226.5v0zM1060 618v98q0 60 -22 98.5t-58 38.5q-37 0 -58.5 -39t-21.5 -98v-77q0 -76 30.5 -133t84.5 -79l6 1q18 36 28.5 85t10.5 105v0z" glyph-name="uni04A8" horiz-adv-x="1509" unicode="Ҩ"/><glyph d="M511 495v24q0 125 86 208.5t225 83.5q138 0 224.5 -92.5t86.5 -233.5v-34q0 -205 -137.5 -338.5t-358.5 -133.5q-261 0 -423.5 152t-162.5 383v33q0 239 162 396t418 154l6 -3v-260q-106 -14 -165.5 -89t-59.5 -196v-35q0 -104 47 -172.5t124 -69.5l5 2q-35 31 -56 90 t-21 131v0zM818 472v36q0 42 -11 67.5t-28 20.5h-6q-18 5 -29 -22.5t-11 -68.5v-28q0 -49 12.5 -86t34.5 -49h6q15 21 23.5 55t8.5 75v0z" glyph-name="uni04A9" horiz-adv-x="1185" unicode="ҩ"/><glyph d="M1234 491l2 -6q4 -249 -140.5 -377.5t-409.5 -128.5q-270 0 -433.5 165t-163.5 432v304q0 266 157.5 431.5t416.5 165.5q277 0 428.5 -129t147.5 -375l-3 -6h-329q0 134 -57 192t-187 58q-114 0 -175 -91.5t-61 -243.5v-306q0 -153 67 -245t192 -92q116 0 167.5 58 t51.5 194h329zM694 60q84 -53 124.5 -120.5t40.5 -142.5q0 -101 -74 -157.5t-186 -56.5q-61 0 -105 12.5t-79 31.5l36 168q20 -8 40.5 -13t48.5 -5q50 0 64 20t14 39q0 47 -19 78t-64 86z" glyph-name="uni04AA" horiz-adv-x="1307" unicode="Ҫ"/><glyph d="M559 239q69 0 103 37.5t34 108.5h308l2 -6q4 -177 -122.5 -288.5t-324.5 -111.5q-247 0 -380.5 152.5t-133.5 397.5v23q0 244 133 397t379 153q206 0 329.5 -114.5t119.5 -313.5l-2 -6h-308q0 77 -35 125.5t-104 48.5q-98 0 -136.5 -78.5t-38.5 -211.5v-23 q0 -136 38.5 -213t138.5 -77zM590 60q84 -53 124.5 -120.5t40.5 -142.5q0 -101 -74 -157.5t-186 -56.5q-61 0 -105 12.5t-79 31.5l36 168q20 -8 40.5 -13t48.5 -5q50 0 64 20t14 39q0 47 -19 78t-64 86z" glyph-name="uni04AB" horiz-adv-x="1048" unicode="ҫ"/><glyph d="M1129 1196h-385v-1196h-338v1196h-378v260h1101v-260zM944 -356h-337v630h337v-630z" glyph-name="uni04AC" horiz-adv-x="1150" unicode="Ҭ"/><glyph d="M1053 824h-341v-824h-339v824h-336v258h1016v-258zM912 -356h-337v630h337v-630z" glyph-name="uni04AD" horiz-adv-x="1080" unicode="ҭ"/><glyph d="M650 820h6l290 636h366l-494 -944v-512h-337v527l-486 929h366z" glyph-name="uni04AE" horiz-adv-x="1307" unicode="Ү"/><glyph d="M692 1082h355l-352 -1082h-3v-417h-338v417h-2l-352 1082h356l145 -636l20 -115l6 -1l22 116z" glyph-name="uni04AF" horiz-adv-x="1053" unicode="ү"/><glyph d="M650 820h6l290 636h366l-394 -752h98v-191h-198v-1v-512h-337v513h-151v191h58l-393 752h366z" glyph-name="uni04B0" horiz-adv-x="1307" unicode="Ұ"/><glyph d="M875 20h-174l-6 -20h-3v-417h-338v417h-2l-7 20h-156v191h94l-283 871h356l145 -636l20 -115h6l22 115l143 636h355l-284 -871h112v-191z" glyph-name="uni04B1" horiz-adv-x="1053" unicode="ұ"/><glyph d="M648 965l240 491h390l-417 -722l449 -734h-410l-248 501l-248 -501h-390l428 734l-417 722h387zM1339 -356h-337v630h337v-630z" glyph-name="uni04B2" horiz-adv-x="1307" unicode="Ҳ"/><glyph d="M524 763h6l137 319h379l-314 -535l325 -547h-379l-144 329h-6l-144 -329h-379l325 547l-315 535h377zM1092 -356h-337v630h337v-630z" glyph-name="uni04B3" horiz-adv-x="1053" unicode="ҳ"/><glyph d="M361 1195h-325v261h964v-261h-302v-935h539v1196h338v-1178h249v-630h-337v352h-1126v1195z" glyph-name="uni04B4" horiz-adv-x="1837" unicode="Ҵ"/><glyph d="M247 821h-195v261h707v-261h-175v-561h298v822h338v-822h167v-620h-337v360h-803v821z" glyph-name="uni04B5" horiz-adv-x="1416" unicode="ҵ"/><glyph d="M1316 1456v-1456h-338v543q-59 -10 -134.5 -16.5t-111.5 -6.5q-281 0 -439 122t-158 369v445h338v-445q0 -131 61.5 -181t197.5 -50q42 0 115.5 6t130.5 16v654h338zM1516 -356h-337v630h337v-630z" glyph-name="uni04B6" horiz-adv-x="1431" unicode="Ҷ"/><glyph d="M1067 0h-338v325q-30 -5 -56 -7.5t-44 -2.5q-262 0 -399.5 101t-137.5 317v349h337v-349q0 -96 42.5 -127t157.5 -31q25 0 50 2t50 8v497h338v-1082zM1267 -356h-337v630h337v-630z" glyph-name="uni04B7" horiz-adv-x="1155" unicode="ҷ"/><glyph d="M846 280h-170v785h170v-785zM1316 1456v-1456h-338v543q-59 -10 -134.5 -16.5t-111.5 -6.5q-281 0 -439 122t-158 369v445h338v-445q0 -131 61.5 -181t197.5 -50q42 0 115.5 6t130.5 16v654h338z" glyph-name="uni04B8" horiz-adv-x="1391" unicode="Ҹ"/><glyph d="M665 160h-170v681h170v-681zM1067 0h-338v325q-30 -5 -56 -7.5t-44 -2.5q-262 0 -399.5 101t-137.5 317v349h337v-349q0 -96 42.5 -127t157.5 -31q25 0 50 2t50 8v497h338v-1082z" glyph-name="uni04B9" horiz-adv-x="1156" unicode="ҹ"/><glyph d="M50 0v1456h338v-544q57 10 132.5 17t113.5 7q280 0 438.5 -122.5t158.5 -368.5v-445h-338v445q0 130 -62 180.5t-197 50.5q-43 0 -116.5 -6.5t-129.5 -16.5v-653h-338z" glyph-name="uni04BA" horiz-adv-x="1450" unicode="Һ"/><glyph d="M69.0654 1084h337.979v-324.98q29.998 5 55.9961 7.5t43.9971 2.5q261.984 0 399.476 -100.994q137.492 -100.994 137.492 -316.98v-348.979h-336.979v348.979q0 95.9941 -42.498 126.992q-42.4971 30.998 -157.49 30.998q-24.998 0 -49.9971 -2 q-24.998 -2 -49.9961 -7.99902v-496.97h-337.979v1081.93z" glyph-name="uni04BB" horiz-adv-x="1156" unicode="һ"/><glyph d="M996 -23q-343 0 -532.5 180t-207.5 485q-154 26 -238.5 141.5t-84.5 298.5h216q0 -80 28.5 -133.5t84.5 -74.5q37 269 216.5 435.5t430.5 165.5q296 0 456 -184.5t160 -504.5v-172h-920l-2 -6q14 -159 108.5 -252.5t284.5 -93.5q121 0 222.5 17t178.5 42l49 -269 q-53 -25 -172.5 -50t-277.5 -25zM909 1190q-125 0 -203 -85t-99 -221l3 -6h578v31q0 127 -67.5 204t-211.5 77z" glyph-name="uni04BC" horiz-adv-x="1651" unicode="Ҽ"/><glyph d="M687 -21q-235 0 -373.5 136.5t-150.5 350.5q-120 42 -184 145t-64 253h194q0 -57 16.5 -100t50.5 -71q36 187 162.5 298t335.5 111q219 0 339.5 -131t120.5 -359v-177h-620l-2 -6q8 -85 63 -137.5t158 -52.5q97 0 161.5 16t147.5 51l81 -206q-70 -51 -188 -86t-248 -35z M674 842q-81 0 -119.5 -51.5t-44.5 -139.5l2 -5h292v26q0 84 -29.5 127t-100.5 43z" glyph-name="uni04BD" horiz-adv-x="1230" unicode="ҽ"/><glyph d="M996 -23q-343 0 -532.5 180t-207.5 485q-154 26 -238.5 141.5t-84.5 298.5h216q0 -80 28.5 -133.5t84.5 -74.5q37 269 216.5 435.5t430.5 165.5q296 0 456 -184.5t160 -504.5v-172h-920l-2 -6q14 -159 108.5 -252.5t284.5 -93.5q121 0 222.5 17t178.5 42l49 -269 q-53 -25 -172.5 -50t-277.5 -25zM909 1190q-125 0 -203 -85t-99 -221l3 -6h578v31q0 127 -67.5 204t-211.5 77zM923 0q-44 -53 -62 -85t-18 -79q0 -19 14 -39t66 -20q28 0 49 5t42 13l36 -168q-36 -19 -80.5 -31.5t-105.5 -12.5q-115 0 -189 56.5t-74 157.5q0 75 39 142.5 t121 120.5z" glyph-name="uni04BE" horiz-adv-x="1651" unicode="Ҿ"/><glyph d="M687 -21q-235 0 -373.5 136.5t-150.5 350.5q-120 42 -184 145t-64 253h194q0 -57 16.5 -100t50.5 -71q36 187 162.5 298t335.5 111q219 0 339.5 -131t120.5 -359v-177h-620l-2 -6q8 -85 63 -137.5t158 -52.5q97 0 161.5 16t147.5 51l81 -206q-70 -51 -188 -86t-248 -35z M674 842q-81 0 -119.5 -51.5t-44.5 -139.5l2 -5h292v26q0 84 -29.5 127t-100.5 43zM712 0q-44 -53 -62 -85t-18 -79q0 -19 14 -39t66 -20q28 0 49 5t42 13l36 -168q-36 -19 -80.5 -31.5t-105.5 -12.5q-115 0 -189 56.5t-74 157.5q0 75 39 142.5t121 120.5z" glyph-name="uni04BF" horiz-adv-x="1230" unicode="ҿ"/><glyph d="M474 0h-337v1456h337v-1456z" glyph-name="uni04C0" horiz-adv-x="611" unicode="Ӏ"/><glyph d="M1265 578h-109v-578h-338v578h-113l-288 -578h-420l441 793l-427 663h426l303 -576h78v576h338v-576h76l292 576h424l-417 -660l433 -796h-421zM1342 1908l2 -6q5 -133 -95 -217t-268 -84q-169 0 -269 84t-94 217l2 6h243q0 -47 28.5 -77t89.5 -30q60 0 88.5 30t28.5 77 h244z" glyph-name="uni04C1" horiz-adv-x="1961" unicode="Ӂ"/><glyph d="M1134 378h-90v-378h-336v378h-88l-173 -378h-434l322 582l14 -6l4 4l-331 502h433l192 -389h61v389h336v-389h64l192 389h432l-331 -502l4 -4l14 6l321 -582h-434zM1239 1565l2 -6q5 -133 -95 -217t-268 -84q-169 0 -269 84t-94 217l2 6h243q0 -47 28.5 -77t89.5 -30 q60 0 88.5 30t28.5 77h244z" glyph-name="uni04C2" horiz-adv-x="1755" unicode="ӂ"/><glyph d="M848 811q192 -46 299.5 -173t107.5 -334q4 -138 -95 -275t-284 -213l-158 207q96 57 147 120.5t52 160.5q0 137 -77 204.5t-221 67.5h-164v-576h-339v1456h339v-576h90l297 576h426z" glyph-name="uni04C3" horiz-adv-x="1297" unicode="Ӄ"/><glyph d="M842 591q146 -53 226.5 -164.5t80.5 -278.5q4 -133 -91 -263.5t-273 -203.5l-158 207q89 54 136 112.5t48 147.5q1 107 -61 164.5t-177 65.5h-118v-378h-337v1082h337v-389h90l179 389h432z" glyph-name="uni04C4" horiz-adv-x="1195" unicode="ӄ"/><glyph d="M1330 1456v-1456h-337v1196h-360v-388q0 -438 -139 -623t-418 -185h-38v260h39q137 0 177 110.5t40 437.5v648h1036zM1646 -48l-163 -318h-233l70 327v263h326v-272z" glyph-name="uni04C5" horiz-adv-x="1446" unicode="Ӆ"/><glyph d="M1063 1082v-1082h-337v822h-208v-201q0 -320 -105 -470.5t-357 -150.5h-42l-7 261h26q98 0 122.5 70.5t24.5 289.5v461h883zM1379 -48l-163 -318h-233l70 327v263h326v-272z" glyph-name="uni04C6" horiz-adv-x="1157" unicode="ӆ"/><glyph d="M454 1456v-610h539v610h337v-1471q0 -202 -108 -312t-301 -110q-45 0 -82 4t-78 13l14 255q28 -6 48 -9t52 -3q56 0 87 41.5t31 120.5v601h-539v-586h-338v1456h338z" glyph-name="uni04C7" horiz-adv-x="1446" unicode="Ӈ"/><glyph d="M427 1082v-422h295v422h338v-1097q0 -202 -108.5 -312t-300.5 -110q-45 0 -82.5 4t-78.5 13l14 255q30 -6 49 -9t52 -3q56 0 86.5 41.5t30.5 120.5v416h-295v-401h-337v1082h337z" glyph-name="uni04C8" unicode="ӈ"/><glyph d="M1330 0h-337v586h-539v-586h-338v1456h338v-610h539v610h337v-1456zM1646 -48l-163 -318h-233l70 327v263h326v-272z" glyph-name="uni04C9" horiz-adv-x="1446" unicode="Ӊ"/><glyph d="M1060 0h-338v401h-295v-401h-337v1082h337v-422h295v422h338v-1082zM1376 -48l-163 -318h-233l70 327v263h326v-272z" glyph-name="uni04CA" unicode="ӊ"/><glyph d="M1316 1456v-1456h-338v543q-59 -10 -134.5 -16.5t-111.5 -6.5q-281 0 -439 122t-158 369v445h338v-445q0 -131 61.5 -181t197.5 -50q42 0 115.5 6t130.5 16v654h338zM1103 -356h-337v630h337v-630z" glyph-name="uni04CB" horiz-adv-x="1431" unicode="Ӌ"/><glyph d="M1067 0h-338v325q-30 -5 -56 -7.5t-44 -2.5q-262 0 -399.5 101t-137.5 317v349h337v-349q0 -96 42.5 -127t157.5 -31q25 0 50 2t50 8v497h338v-1082zM854 -356h-337v630h337v-630z" glyph-name="uni04CC" horiz-adv-x="1155" unicode="ӌ"/><glyph d="M885 437h6l329 1019h447v-1456h-338v938l-6 1l-321 -939h-227l-315 925l-6 -1v-924h-338v1456h443zM1983 -48l-163 -318h-233l70 327v263h326v-272z" glyph-name="uni04CD" horiz-adv-x="1783" unicode="Ӎ"/><glyph d="M770 381h6l242 701h423v-1082h-337v584l-6 1l-212 -585h-225l-200 552l-6 -1v-551h-337v1082h413zM1757 -48l-163 -318h-233l70 327v263h326v-272z" glyph-name="uni04CE" horiz-adv-x="1571" unicode="ӎ"/><glyph d="M474 0h-337v1456h337v-1456z" glyph-name="uni04CF" horiz-adv-x="611" unicode="ӏ"/><glyph d="M878 283h-433l-84 -283h-356l475 1456h181v-1l1 1h181l476 -1456h-356zM523 543h277l-136 452h-6zM1017 1908l2 -6q5 -133 -95 -217t-268 -84q-169 0 -269 84t-94 217l2 6h243q0 -47 28.5 -77t89.5 -30q60 0 88.5 30t28.5 77h244z" glyph-name="uni04D0" horiz-adv-x="1307" unicode="Ӑ"/><glyph d="M721 1q-19 34 -32.5 77t-20.5 90q-44 -86 -108.5 -137.5t-168.5 -51.5q-170 0 -264.5 87.5t-94.5 238.5q0 161 121 248.5t367 87.5h139v77q0 69 -33 106t-101 37q-59 0 -87.5 -27.5t-28.5 -85.5l-328 1l-2 6q-7 148 123.5 247.5t344.5 99.5q201 0 325.5 -100t124.5 -286 v-408q0 -86 14.5 -160t43.5 -148zM483 220q62 0 109.5 29t66.5 69v143h-136q-81 0 -117 -39t-36 -99q0 -46 31.5 -74.5t81.5 -28.5zM903 1586l2 -6q5 -133 -95 -217t-268 -84q-169 0 -269 84t-94 217l2 6h243q0 -47 28.5 -77t89.5 -30q60 0 88.5 30t28.5 77h244z" glyph-name="uni04D1" horiz-adv-x="1086" unicode="ӑ"/><glyph d="M878 283h-433l-84 -283h-356l475 1456h181v-1l1 1h181l476 -1456h-356zM523 543h277l-136 452h-6zM1058 1601h-290v204h290v-204zM543 1601h-290v204h290v-204z" glyph-name="uni04D2" horiz-adv-x="1307" unicode="Ӓ"/><glyph d="M721 1q-19 34 -32.5 77t-20.5 90q-44 -86 -108.5 -137.5t-168.5 -51.5q-170 0 -264.5 87.5t-94.5 238.5q0 161 121 248.5t367 87.5h139v77q0 69 -33 106t-101 37q-59 0 -87.5 -27.5t-28.5 -85.5l-328 1l-2 6q-7 148 123.5 247.5t344.5 99.5q201 0 325.5 -100t124.5 -286 v-408q0 -86 14.5 -160t43.5 -148zM483 220q62 0 109.5 29t66.5 69v143h-136q-81 0 -117 -39t-36 -99q0 -46 31.5 -74.5t81.5 -28.5zM945 1279h-290v204h290v-204zM430 1279h-290v204h290v-204z" glyph-name="uni04D3" horiz-adv-x="1086" unicode="ӓ"/><glyph d="M1847 0h-897l-14 329h-383l-152 -329h-390l735 1456h1040v-264h-549l13 -316h455v-264h-444l15 -348h571v-264zM678 599h247l-20 475l-6 1z" glyph-name="uni04D4" horiz-adv-x="1916" unicode="Ӕ"/><glyph d="M1275 -21q-126 0 -224.5 37.5t-165.5 107.5q-60 -64 -157 -104.5t-227 -40.5q-203 0 -313.5 92.5t-110.5 252.5q0 159 132.5 245t387.5 86h157v46q0 66 -35 103.5t-98 37.5q-70 0 -109.5 -29t-39.5 -73l-329 18l-1 6q-7 147 127 242.5t356 95.5q97 0 179 -22.5t143 -66.5 q61 43 140.5 66t176.5 23q211 0 334.5 -132.5t123.5 -357.5v-177h-620l-2 -6q4 -88 58 -139t163 -51q87 0 148.5 16t136.5 51l81 -206q-67 -51 -179.5 -86t-232.5 -35zM565 211q49 0 102.5 24t86.5 58v158h-155q-87 0 -135.5 -38.5t-48.5 -92.5q0 -52 37 -80.5t113 -28.5z M1264 842q-86 0 -124 -50.5t-42 -140.5l2 -5h293v26q0 80 -34 125t-95 45z" glyph-name="uni04D5" horiz-adv-x="1763" unicode="ӕ"/><glyph d="M967 623h-513v-363h615v-260h-953v1456h954v-260h-616v-313h513v-260zM955 1908l2 -6q5 -133 -95 -217t-268 -84q-169 0 -269 84t-94 217l2 6h243q0 -47 28.5 -77t89.5 -30q60 0 88.5 30t28.5 77h244z" glyph-name="uni04D6" horiz-adv-x="1143" unicode="Ӗ"/><glyph d="M576 -21q-246 0 -385.5 149t-139.5 377v38q0 248 131.5 404t380.5 155q219 0 339.5 -131t120.5 -359v-177h-620l-2 -6q8 -85 63 -137.5t158 -52.5q97 0 161.5 16t147.5 51l81 -206q-70 -51 -188 -86t-248 -35zM563 842q-81 0 -119.5 -51.5t-44.5 -139.5l2 -5h292v26 q0 84 -29.5 127t-100.5 43zM901 1587l2 -6q5 -133 -95 -217t-268 -84q-169 0 -269 84t-94 217l2 6h243q0 -47 28.5 -77t89.5 -30q60 0 88.5 30t28.5 77h244z" glyph-name="uni04D7" horiz-adv-x="1070" unicode="ӗ"/><glyph d="M654 1477q359 0 550 -199t191 -531v-42q0 -319 -187.5 -523t-467.5 -203q-316 0 -486 184t-170 505v172h961l2 6q-15 157 -109.5 251.5t-283.5 94.5q-122 0 -223 -17.5t-178 -41.5l-49 269q53 24 172 49.5t278 25.5zM740 264q125 0 203 84t100 222l-3 6h-619v-31 q0 -128 76.5 -204.5t242.5 -76.5z" glyph-name="uni04D8" horiz-adv-x="1546" unicode="Ә"/><glyph d="M547.035 1103q245.985 0 385.477 -148.991t139.491 -376.977v-37.998q0 -247.985 -131.492 -403.976q-131.491 -155.99 -380.477 -154.99q-218.986 0 -339.479 130.992q-120.492 130.991 -120.492 358.978v176.989h619.962l2 6q-7.99902 84.9951 -62.9961 137.491 q-54.9971 52.4971 -157.99 52.4971q-96.9941 0 -161.49 -15.999t-147.491 -50.9971l-80.9951 205.987q69.9961 50.9971 187.989 85.9951q117.992 34.998 247.984 34.998zM560.034 240.052q80.9951 0 119.493 51.4961q38.4971 51.4971 44.4971 139.492l-2 4.99902h-291.982 v-25.998q0 -83.9951 29.498 -126.992q29.499 -42.9971 100.494 -42.9971z" glyph-name="uni04D9" horiz-adv-x="1077" unicode="ә"/><glyph d="M654 1477q359 0 550 -199t191 -531v-42q0 -319 -187.5 -523t-467.5 -203q-316 0 -486 184t-170 505v172h961l2 6q-15 157 -109.5 251.5t-283.5 94.5q-122 0 -223 -17.5t-178 -41.5l-49 269q53 24 172 49.5t278 25.5zM740 264q125 0 203 84t100 222l-3 6h-619v-31 q0 -128 76.5 -204.5t242.5 -76.5zM1109 1542h-290v204h290v-204zM594 1542h-290v204h290v-204z" glyph-name="uni04DA" horiz-adv-x="1546" unicode="Ӛ"/><glyph d="M547.035 1103q245.985 0 385.477 -148.991t139.491 -376.977v-37.998q0 -247.985 -131.492 -403.976q-131.491 -155.99 -380.477 -154.99q-218.986 0 -339.479 130.992q-120.492 130.991 -120.492 358.978v176.989h619.962l2 6q-7.99902 84.9951 -62.9961 137.491 q-54.9971 52.4971 -157.99 52.4971q-96.9941 0 -161.49 -15.999t-147.491 -50.9971l-80.9951 205.987q69.9961 50.9971 187.989 85.9951q117.992 34.998 247.984 34.998zM560.034 240.052q80.9951 0 119.493 51.4961q38.4971 51.4971 44.4971 139.492l-2 4.99902h-291.982 v-25.998q0 -83.9951 29.498 -126.992q29.499 -42.9971 100.494 -42.9971zM964 1279h-290v204h290v-204zM449 1279h-290v204h290v-204z" glyph-name="uni04DB" horiz-adv-x="1077" unicode="ӛ"/><glyph d="M1265 578h-109v-578h-338v578h-113l-288 -578h-420l441 793l-427 663h426l303 -576h78v576h338v-576h76l292 576h424l-417 -660l433 -796h-421zM1383 1601h-290v204h290v-204zM868 1601h-290v204h290v-204z" glyph-name="uni04DC" horiz-adv-x="1961" unicode="Ӝ"/><glyph d="M1134 378h-90v-378h-336v378h-88l-173 -378h-434l322 582l14 -6l4 4l-331 502h433l192 -389h61v389h336v-389h64l192 389h432l-331 -502l4 -4l14 6l321 -582h-434zM1280 1258h-290v204h290v-204zM765 1258h-290v204h290v-204z" glyph-name="uni04DD" horiz-adv-x="1755" unicode="ӝ"/><glyph d="M657 869q119 0 176.5 48t57.5 137q0 69 -64.5 116t-185.5 47q-93 0 -153.5 -42.5t-60.5 -114.5h-328l-1 6q-6 184 153 297.5t390 113.5q271 0 429 -108t158 -308q0 -100 -64 -183t-177 -130q128 -43 196 -129t68 -211q0 -201 -169 -315t-441 -114q-231 0 -400.5 107 t-163.5 312l2 6h329q0 -71 65.5 -118t167.5 -47q126 0 199 49.5t73 126.5q0 107 -64 155t-192 48h-204v251h204zM1063 1622h-290v204h290v-204zM548 1622h-290v204h290v-204z" glyph-name="uni04DE" horiz-adv-x="1325" unicode="Ӟ"/><glyph d="M570 652q71 0 110.5 28t39.5 75q0 44 -33.5 75t-107.5 31q-71 0 -110.5 -23.5t-39.5 -69.5h-327l-2 6q-6 148 125.5 237.5t330.5 89.5q228 0 365 -82.5t137 -232.5q0 -72 -48.5 -132.5t-133.5 -96.5q97 -33 149 -97t52 -154q0 -151 -146.5 -238.5t-374.5 -87.5 q-197 0 -338 86t-135 248l2 6h327q0 -45 41.5 -72.5t126.5 -27.5q80 0 120.5 34t40.5 82q0 61 -45.5 90.5t-125.5 29.5h-159v196h159zM978 1278h-290v204h290v-204zM463 1278h-290v204h290v-204z" glyph-name="uni04DF" horiz-adv-x="1159" unicode="ӟ"/><glyph d="M736 1190l-2 6h-592v260h984l1 -215l-344 -369q175 -39 269 -157.5t94 -306.5q0 -201 -153 -315t-397 -114q-215 0 -369 107t-149 312l2 6h329q0 -72 50.5 -118.5t136.5 -46.5q97 0 155 50t58 126q0 139 -65.5 202t-195.5 63h-129v194z" glyph-name="uni04E0" horiz-adv-x="1181" unicode="Ӡ"/><glyph d="M739 816l-2 6h-606v260h995l1 -216l-345 -368q175 -39 269.5 -158t94.5 -307q0 -199 -153 -313.5t-397 -114.5q-215 0 -369 107.5t-149 310.5l2 6h329q0 -70 50.5 -117t136.5 -47q97 0 155 50.5t58 125.5q0 139 -65.5 202t-195.5 63h-128v193z" glyph-name="uni04E1" horiz-adv-x="1181" unicode="ӡ"/><glyph d="M976 1456h338v-1456h-338v902l-6 1l-533 -903h-338v1456h338v-901l6 -1zM1073 1601h-734v173h734v-173z" glyph-name="uni04E2" horiz-adv-x="1426" unicode="Ӣ"/><glyph d="M726 1082h337v-1082h-337v594l-6 1l-292 -595h-338v1082h338v-592l6 -1zM943 1259h-734v173h734v-173z" glyph-name="uni04E3" unicode="ӣ"/><glyph d="M976 1456h338v-1456h-338v902l-6 1l-533 -903h-338v1456h338v-901l6 -1zM1109 1601h-290v204h290v-204zM594 1601h-290v204h290v-204z" glyph-name="uni04E4" horiz-adv-x="1426" unicode="Ӥ"/><glyph d="M726 1082h337v-1082h-337v594l-6 1l-292 -595h-338v1082h338v-592l6 -1zM979 1258h-290v204h290v-204zM464 1258h-290v204h290v-204z" glyph-name="uni04E5" unicode="ӥ"/><glyph d="M1326 597q0 -269 -170.5 -443.5t-445.5 -174.5q-277 0 -449 174.5t-172 443.5v262q0 268 171.5 443t447.5 175q274 0 446 -175t172 -443v-262zM989 861q0 156 -73.5 256t-207.5 100q-137 0 -209.5 -99.5t-72.5 -256.5v-264q0 -158 73.5 -258t210.5 -100q133 0 206 100 t73 258v264zM1111 1622h-290v204h290v-204zM596 1622h-290v204h290v-204z" glyph-name="uni04E6" horiz-adv-x="1416" unicode="Ӧ"/><glyph d="M51 551q0 244 138 397.5t385 153.5q248 0 386 -153.5t138 -397.5v-21q0 -245 -138 -398t-384 -153q-249 0 -387 153t-138 398v21zM389 530q0 -136 42.5 -213.5t144.5 -77.5q99 0 142 78t43 213v21q0 132 -43 211.5t-144 79.5q-100 0 -142.5 -80t-42.5 -211v-21zM978 1279 h-290v204h290v-204zM463 1279h-290v204h290v-204z" glyph-name="uni04E7" unicode="ӧ"/><glyph d="M1326 597q0 -269 -170.5 -443.5t-445.5 -174.5q-277 0 -449 174.5t-172 443.5v262q0 268 171.5 443t447.5 175q274 0 446 -175t172 -443v-262zM880 771q24 0 55.5 19t53.5 49v22q0 156 -73.5 256t-207.5 100q-137 0 -209.5 -99.5t-72.5 -256.5v-88q26 48 69.5 76 t103.5 28q58 0 143.5 -53t137.5 -53zM989 618q-29 -34 -68 -51.5t-87 -17.5q-71 0 -149 53.5t-131 53.5q-40 0 -81 -41.5t-42 -94.5q16 -128 88 -204.5t191 -76.5q133 0 206 100t73 258v21z" glyph-name="uni04E8" horiz-adv-x="1416" unicode="Ө"/><glyph d="M51 551q0 244 138 397.5t385 153.5q248 0 386 -153.5t138 -397.5v-21q0 -245 -138 -398t-384 -153q-249 0 -387 153t-138 398v21zM700 570q18 0 33 14t24 39q-10 101 -53.5 160t-129.5 59q-94 0 -136.5 -69.5t-39.5 -176.5l4 -5q10 24 35.5 41t55.5 17q41 0 105 -39.5 t102 -39.5zM467 485q-26 0 -44 -26.5t-21 -65.5q17 -74 59 -114t115 -40q81 0 123 52.5t47 138.5l-3 5q-9 -13 -28 -21.5t-39 -8.5q-52 0 -111.5 40t-97.5 40z" glyph-name="uni04E9" horiz-adv-x="1152" unicode="ө"/><glyph d="M1326 597q0 -269 -170.5 -443.5t-445.5 -174.5q-277 0 -449 174.5t-172 443.5v262q0 268 171.5 443t447.5 175q274 0 446 -175t172 -443v-262zM880 771q24 0 55.5 19t53.5 49v22q0 156 -73.5 256t-207.5 100q-137 0 -209.5 -99.5t-72.5 -256.5v-88q26 48 69.5 76 t103.5 28q58 0 143.5 -53t137.5 -53zM989 618q-29 -34 -68 -51.5t-87 -17.5q-71 0 -149 53.5t-131 53.5q-40 0 -81 -41.5t-42 -94.5q16 -128 88 -204.5t191 -76.5q133 0 206 100t73 258v21zM1135 1596h-290v204h290v-204zM620 1596h-290v204h290v-204z" glyph-name="uni04EA" horiz-adv-x="1416" unicode="Ӫ"/><glyph d="M51 551q0 244 138 397.5t385 153.5q248 0 386 -153.5t138 -397.5v-21q0 -245 -138 -398t-384 -153q-249 0 -387 153t-138 398v21zM700 570q18 0 33 14t24 39q-10 101 -53.5 160t-129.5 59q-94 0 -136.5 -69.5t-39.5 -176.5l4 -5q10 24 35.5 41t55.5 17q41 0 105 -39.5 t102 -39.5zM467 485q-26 0 -44 -26.5t-21 -65.5q17 -74 59 -114t115 -40q81 0 123 52.5t47 138.5l-3 5q-9 -13 -28 -21.5t-39 -8.5q-52 0 -111.5 40t-97.5 40zM962 1307h-290v204h290v-204zM447 1307h-290v204h290v-204z" glyph-name="uni04EB" horiz-adv-x="1152" unicode="ӫ"/><glyph d="M47 966l-2 6q-5 249 133.5 377.5t403.5 128.5q256 0 410 -165.5t154 -431.5v-304q0 -267 -154 -432t-410 -165q-265 0 -404.5 127.5t-134.5 376.5l2 6h329q0 -137 46 -193.5t162 -56.5q112 0 168.5 90t56.5 245v23h-384v261h384v22q0 154 -56.5 245.5t-168.5 91.5 q-114 0 -160 -58t-46 -194h-329zM1021 1623h-290v204h290v-204zM506 1623h-290v204h290v-204z" glyph-name="uni04EC" horiz-adv-x="1238" unicode="Ӭ"/><glyph d="M497 842q-71 0 -103.5 -37.5t-32.5 -107.5h-308l-2 6q-5 176 121 287.5t325 111.5q246 0 380 -153t134 -397v-23q0 -245 -133.5 -397.5t-378.5 -152.5q-207 0 -330 114.5t-118 314.5l2 6h308q0 -79 34 -127t104 -48q82 0 121 56t45 151l-3 5h-231v183h231l3 5 q-6 94 -45.5 148.5t-122.5 54.5zM931 1279h-290v204h290v-204zM416 1279h-290v204h290v-204z" glyph-name="uni04ED" horiz-adv-x="1044" unicode="ӭ"/><glyph d="M671 821l7 -26h6l283 661h348l-534 -1160q-67 -150 -160 -233.5t-256 -83.5q-59 0 -103 10t-114 34l38 241q49 -14 77.5 -19.5t63.5 -5.5q84 0 124 31.5t65 104.5l15 41l-529 1040h361zM1025 1601h-734v173h734v-173z" glyph-name="uni04EE" horiz-adv-x="1317" unicode="Ӯ"/><glyph d="M515 477l1 -8h6l179 613h360l-431 -1243q-50 -120 -129 -198t-251 -78q-44 0 -72 5.5t-88 20.5l41 241l21 -4.5t18 -1.5q80 0 117 23.5t55 70.5l27 70l-374 1094h359zM895 1259h-734v173h734v-173z" glyph-name="uni04EF" horiz-adv-x="1053" unicode="ӯ"/><glyph d="M671 821l7 -26h6l283 661h348l-534 -1160q-67 -150 -160 -233.5t-256 -83.5q-59 0 -103 10t-114 34l38 241q49 -14 77.5 -19.5t63.5 -5.5q84 0 124 31.5t65 104.5l15 41l-529 1040h361zM1061 1601h-290v204h290v-204zM546 1601h-290v204h290v-204z" glyph-name="uni04F0" horiz-adv-x="1317" unicode="Ӱ"/><glyph d="M515 477l1 -8h6l179 613h360l-431 -1243q-50 -120 -129 -198t-251 -78q-44 0 -72 5.5t-88 20.5l41 241l21 -4.5t18 -1.5q80 0 117 23.5t55 70.5l27 70l-374 1094h359zM931 1258h-290v204h290v-204zM416 1258h-290v204h290v-204z" glyph-name="uni04F1" horiz-adv-x="1053" unicode="ӱ"/><glyph d="M671 821l7 -26h6l283 661h348l-534 -1160q-67 -150 -160 -233.5t-256 -83.5q-59 0 -103 10t-114 34l38 241q49 -14 77.5 -19.5t63.5 -5.5q84 0 124 31.5t65 104.5l15 41l-529 1040h361zM936 1867h302l2 -6l-278 -260h-264l-2 5zM518 1867h305l2 -5l-240 -261h-273z" glyph-name="uni04F2" horiz-adv-x="1317" unicode="Ӳ"/><glyph d="M515 477l1 -8h6l179 613h360l-431 -1243q-50 -120 -129 -198t-251 -78q-44 0 -72 5.5t-88 20.5l41 241l21 -4.5t18 -1.5q80 0 117 23.5t55 70.5l27 70l-374 1094h359zM805 1524h302l2 -6l-278 -260h-264l-2 5zM387 1524h305l2 -5l-240 -261h-273z" glyph-name="uni04F3" horiz-adv-x="1053" unicode="ӳ"/><glyph d="M1316 1456v-1456h-338v543q-59 -10 -134.5 -16.5t-111.5 -6.5q-281 0 -439 122t-158 369v445h338v-445q0 -131 61.5 -181t197.5 -50q42 0 115.5 6t130.5 16v654h338zM1195 1601h-290v204h290v-204zM680 1601h-290v204h290v-204z" glyph-name="uni04F4" horiz-adv-x="1431" unicode="Ӵ"/><glyph d="M1067 0h-338v325q-30 -5 -56 -7.5t-44 -2.5q-262 0 -399.5 101t-137.5 317v349h337v-349q0 -96 42.5 -127t157.5 -31q25 0 50 2t50 8v497h338v-1082zM983 1258h-290v204h290v-204zM468 1258h-290v204h290v-204z" glyph-name="uni04F5" horiz-adv-x="1155" unicode="ӵ"/><glyph d="M1093 1196h-638v-1196h-339v1456h977v-260zM655 -356h-337v630h337v-630z" glyph-name="uni04F6" horiz-adv-x="1144" unicode="Ӷ"/><glyph d="M853 822h-426v-822h-337v1082h763v-260zM579 -356h-337v630h337v-630z" glyph-name="uni04F7" horiz-adv-x="859" unicode="ӷ"/><glyph d="M455 977h196q259 0 416.5 -137t157.5 -351q0 -215 -157.5 -352t-416.5 -137h-535v1456h339v-479zM455 717v-457h196q111 0 174 67t63 164q0 94 -63.5 160t-173.5 66h-196zM1672 0h-337v1456h337v-1456zM1297 1601h-290v204h290v-204zM782 1601h-290v204h290v-204z" glyph-name="uni04F8" horiz-adv-x="1789" unicode="Ӹ"/><glyph d="M476 765h171q231 0 365.5 -105.5t134.5 -276.5q0 -174 -134 -278.5t-366 -104.5h-509v1082h338v-317zM476 506v-248h171q82 0 123 34.5t41 92.5q0 54 -41 87.5t-123 33.5h-171zM1544 0h-339v1082h339v-1082zM1272 1258h-290v204h290v-204zM757 1258h-290v204h290v-204z" glyph-name="uni04F9" horiz-adv-x="1744" unicode="ӹ"/><glyph d="M1186 1196h-638v-1196h-339v1456h977v-260zM764 714h-686v191h686v-191zM716 297v-312q0 -202 -108.5 -312t-301.5 -110q-44 0 -80.5 4t-78.5 13l14 255q29 -6 48.5 -9t51.5 -3q56 0 86 41.5t30 120.5v312h339z" glyph-name="uni04FA" horiz-adv-x="1237" unicode="Ӻ"/><glyph d="M951 822h-426v-822h-337v1082h763v-260zM765 539h-686v191h686v-191zM700 297v-312q0 -202 -108.5 -312t-301.5 -110q-44 0 -80.5 4t-78.5 13l14 255q29 -6 48.5 -9t51.5 -3q56 0 86 41.5t30 120.5v312h339z" glyph-name="uni04FB" horiz-adv-x="875" unicode="ӻ"/><glyph d="M648 965l240 491h390l-417 -722l449 -734h-410l-248 501l-248 -501h-390l428 734l-417 722h387zM1478 297v-312q0 -202 -108.5 -312t-301.5 -110q-44 0 -80.5 4t-78.5 13l14 255q29 -6 48.5 -9t51.5 -3q56 0 86 41.5t30 120.5v312h339z" glyph-name="uni04FC" horiz-adv-x="1307" unicode="Ӽ"/><glyph d="M524 763h6l137 319h379l-314 -535l325 -547h-379l-144 329h-6l-144 -329h-379l325 547l-315 535h377zM1231 297v-312q0 -202 -108.5 -312t-301.5 -110q-44 0 -80.5 4t-78.5 13l14 255q29 -6 48.5 -9t51.5 -3q56 0 86 41.5t30 120.5v312h339z" glyph-name="uni04FD" horiz-adv-x="1053" unicode="ӽ"/><glyph d="M1000 651h-88l398 -651h-410l-248 501l-248 -501h-390l379 651h-79v191h65l-354 614h387l236 -491l240 491h390l-355 -614h77v-191z" glyph-name="uni04FE" horiz-adv-x="1307" unicode="Ӿ"/><glyph d="M885 460h-102l274 -460h-379l-144 329h-6l-144 -329h-379l273 460h-79v191h70l-254 431h377l132 -319h6l137 319h379l-253 -431h92v-191z" glyph-name="uni04FF" horiz-adv-x="1053" unicode="ӿ"/><glyph d="M839 977v479h337v-1456h-534q-259 0 -416.5 137t-157.5 352q0 214 157.5 351t416.5 137h197zM839 260v457h-197q-111 0 -173.5 -66t-62.5 -160q0 -98 62 -164.5t174 -66.5h197z" glyph-name="uni0500" horiz-adv-x="1278" unicode="Ԁ"/><glyph d="M51 539q0 253 110.5 408t311.5 155q75 0 135.5 -34.5t108.5 -98.5v591h338v-1560h-296l-23 132q-49 -74 -114.5 -113.5t-150.5 -39.5q-200 0 -310 148t-110 391v21zM389 518q0 -132 38.5 -205.5t129.5 -73.5q53 0 93.5 19.5t66.5 57.5v437q-26 43 -66 66t-92 23 q-90 0 -130 -83t-40 -220v-21z" glyph-name="uni0501" unicode="ԁ"/><glyph d="M700 0q-260 0 -417.5 137t-157.5 352q0 214 157.5 351t417.5 137h197v479h337v-1195h63q83 1 129 44t50 120q1 75 -15 158t-45 162h330q33 -99 51 -174t16 -146q-4 -205 -153 -315t-363 -110h-597zM897 260v457h-197q-112 0 -174 -66t-62 -160q0 -98 62 -164.5t174 -66.5 h197z" glyph-name="uni0502" horiz-adv-x="1920" unicode="Ԃ"/><glyph d="M86 539q0 253 110.5 408t311.5 155q68 0 125 -29t102 -83v570h337v-1173q0 -64 26 -104t71 -40q79 1 123 76.5t48 209.5q1 97 -15 198.5t-46 204.5h331q34 -127 51.5 -219.5t15.5 -183.5q-4 -266 -149 -408t-359 -142q-139 -1 -234 43t-145 140q-50 -88 -120.5 -135.5 t-163.5 -47.5q-200 0 -310 148t-110 391v21zM735 777q-26 31 -62 48t-79 17q-90 0 -130 -83t-40 -220v-21q0 -133 38 -206t130 -73q48 0 86.5 16.5t65.5 50.5q-4 18 -6.5 38.5t-2.5 42.5v390z" glyph-name="uni0503" horiz-adv-x="1739" unicode="ԃ"/><glyph d="M625 390q0 89 -49 143.5t-132 54.5h-261v264h204q128 0 185.5 46t57.5 144q0 72 -54 111t-169 39h-337v264h337q272 0 416 -106.5t144 -309.5q0 -118 -76 -202t-222 -133q156 -31 225 -111.5t69 -201.5v-68q-1 -35 13.5 -58t39.5 -23q81 1 126 76.5t51 209.5 q1 97 -15 198.5t-46 204.5h331q34 -134 51 -223.5t16 -179.5q-4 -266 -157 -408t-379 -142q-172 -3 -266 80.5t-103 264.5v66z" glyph-name="uni0504" horiz-adv-x="1610" unicode="Ԅ"/><glyph d="M811 276q-1 -48 13 -74.5t48 -26.5q49 1 77 65.5t32 178.5q1 76 -14.5 158.5t-45.5 160.5h330q34 -102 52 -175t16 -144q-3 -215 -124 -330.5t-301 -115.5q-206 -3 -307.5 54t-113.5 187v75q0 38 -15 59.5t-43 24.5h-285l-2 243h183q60 0 88 24t28 70q0 49 -28.5 79.5 t-87.5 30.5h-262l-6 262h268q216 0 335 -85t119 -238q0 -79 -38 -134.5t-112 -91.5q104 -25 150 -82t46 -140v-35v0z" glyph-name="uni0505" horiz-adv-x="1311" unicode="ԅ"/><glyph d="M109 558l-2 260h284q100 0 154 46.5t54 133.5q0 89 -55.5 143.5t-155.5 54.5h-320l-9 260h329q253 0 400.5 -117t147.5 -320q0 -113 -59 -194t-175 -132q133 -38 192 -126.5t59 -220.5v-92q0 -57 17 -130t58 -104v-20h-348q-40 31 -52.5 110t-12.5 146v88 q0 104 -54.5 159t-161.5 55h-290zM1129 -10l-163 -318h-233l70 327v263h326v-272z" glyph-name="uni0506" horiz-adv-x="1254" unicode="Ԇ"/><glyph d="M911 725q0 -80 -38.5 -142t-113.5 -105q91 -36 131.5 -103t40.5 -159v-65q0 -30 4.5 -77t18.5 -62v-12h-348q-8 15 -10 62t-2 90v63q0 73 -42 110.5t-124 40.5h-279l-2 217h275q68 0 108.5 31t40.5 83t-41.5 89.5t-107.5 37.5h-307l-12 258h319q220 0 354.5 -97.5 t134.5 -259.5zM1113 -30l-163 -318h-233l70 327v263h326v-272z" glyph-name="uni0507" horiz-adv-x="1206" unicode="ԇ"/><glyph d="M990 1192h-337v-424q0 -398 -124 -583t-413 -185h-53v264h41q111 0 160.5 117.5t49.5 386.5v688h1013v-1069q-1 -64 25 -104t72 -40q79 1 123 76.5t48 209.5q1 97 -15 198.5t-46 204.5h331q34 -127 51.5 -219.5t15.5 -183.5q-4 -266 -149 -408t-359 -142q-202 -3 -313 96 t-121 312v805z" glyph-name="uni0508" horiz-adv-x="1973" unicode="Ԉ"/><glyph d="M1082 1082v-695q-1 -64 31.5 -104t88.5 -40q61 1 94.5 65.5t37.5 179.5q1 92 -14.5 188.5t-45.5 192.5h330q35 -126 52.5 -211t16.5 -170q-4 -246 -138.5 -377.5t-332.5 -131.5q-212 -3 -328.5 95.5t-128.5 312.5v430h-154v-195q0 -318 -105 -470t-349 -152h-80l4 279 l41 1q81 0 116 79.5t35 262.5v460h829z" glyph-name="uni0509" horiz-adv-x="1778" unicode="ԉ"/><glyph d="M1326 1456v-1069q-1 -64 25 -104t71 -40q79 1 123 76.5t49 209.5q1 97 -15 198.5t-46 204.5h331q34 -127 51.5 -219.5t15.5 -183.5q-4 -266 -149.5 -408t-359.5 -142q-201 -3 -312 96t-121 312v199h-535v-586h-338v1456h338v-610h535v610h337z" glyph-name="uni050A" horiz-adv-x="2030" unicode="Ԋ"/><glyph d="M710 415h-306v-415h-338v1082h338v-404h306v404h338v-695q-2 -64 30 -104t89 -40q62 1 95.5 65t37.5 180q1 91 -14.5 187.5t-45.5 193.5h330q34 -126 51 -211t16 -170q-4 -246 -138 -377.5t-332 -131.5q-212 -3 -328 95.5t-129 312.5v28z" glyph-name="uni050B" horiz-adv-x="1685" unicode="ԋ"/><glyph d="M702 -21q-288 0 -468.5 174.5t-180.5 443.5v262q0 268 180.5 443t468.5 175q113 0 202 -22.5t157 -66.5l-62 -243q-67 33 -139.5 50.5t-157.5 17.5q-142 0 -226 -101.5t-84 -250.5v-264q0 -152 84 -253t226 -101q102 1 157 54t59 149q1 78 -12.5 163.5t-37.5 176.5h331 q37 -159 47.5 -212.5t9.5 -127.5q-4 -226 -162 -346.5t-392 -120.5z" glyph-name="uni050C" horiz-adv-x="1308" unicode="Ԍ"/><glyph d="M621 243q56 1 78.5 25t25.5 74q0 48 -5 98.5t-14 96.5h330q12 -58 19.5 -105.5t7.5 -89.5q-4 -178 -125.5 -270.5t-316.5 -92.5q-262 0 -413.5 157t-151.5 384v42q0 226 146.5 383t398.5 157q93 0 164.5 -17.5t117.5 -48.5l-46 -256q-47 28 -107 43t-129 15 q-103 0 -155 -83t-52 -193v-42q0 -112 56.5 -194.5t170.5 -82.5z" glyph-name="uni050D" horiz-adv-x="1100" unicode="ԍ"/><glyph d="M445 1192h-415v264h1152v-264h-400v-805q-1 -64 25 -104t71 -40q79 1 123.5 76.5t48.5 209.5q1 96 -14.5 197.5t-45.5 205.5h330q33 -122 51 -216.5t16 -186.5q-4 -266 -149.5 -408t-359.5 -142q-201 -3 -312 96t-121 312v805z" glyph-name="uni050E" horiz-adv-x="1441" unicode="Ԏ"/><glyph d="M329 820h-265v262h907v-262h-305v-433q-1 -64 31 -104t88 -40q62 1 96 48t38 134q1 67 -14.5 138.5t-45.5 139.5h331q34 -87 52 -151.5t16 -126.5q-6 -215 -140.5 -330.5t-332.5 -115.5q-212 -3 -328 95.5t-128 312.5v433z" glyph-name="uni050F" horiz-adv-x="1300" unicode="ԏ"/><glyph d="M88 408q0 125 67 211t195 129q-113 47 -176.5 130t-63.5 183q0 200 157.5 308t430.5 108q230 0 389 -113.5t154 -297.5l-1 -6h-330q0 72 -60.5 114.5t-151.5 42.5q-123 0 -186.5 -46.5t-63.5 -116.5q0 -89 56 -137t176 -48h205v-251h-205q-129 0 -192 -48t-63 -155 q0 -77 73 -126.5t200 -49.5q101 0 167 47t66 118h328l2 -6q5 -204 -164 -311.5t-399 -107.5q-273 0 -441.5 114t-168.5 315z" glyph-name="uni0510" horiz-adv-x="1325" unicode="Ԑ"/><glyph d="M607 450q-84 0 -131 -27t-47 -87q0 -47 44 -81.5t125 -34.5q85 0 128.5 28t43.5 72h327l2 -6q5 -162 -138 -248t-340 -86q-229 0 -378.5 88t-149.5 238q0 90 53 154t154 97q-88 36 -138 96.5t-50 132.5q0 149 140 232t369 83q199 0 332.5 -89.5t128.5 -237.5l-2 -6h-327 q0 46 -42.5 69.5t-111.5 23.5q-76 0 -113 -31.5t-37 -74.5q0 -46 42.5 -72t115.5 -26h175v-207h-175z" glyph-name="uni0511" horiz-adv-x="1159" unicode="ԑ"/><glyph d="M1330 1456v-1456h-337v1196h-360v-388q0 -438 -139 -623t-418 -185h-38v260h39q137 0 177 110.5t40 437.5v648h1036zM1669 297v-312q0 -202 -108.5 -312t-301.5 -110q-44 0 -80.5 4t-78.5 13l14 255q29 -6 48.5 -9t51.5 -3q56 0 86 41.5t30 120.5v312h339z" glyph-name="uni0512" horiz-adv-x="1446" unicode="Ԓ"/><glyph d="M1063 1082v-1082h-337v822h-208v-201q0 -320 -105 -470.5t-357 -150.5h-42l-7 261h26q98 0 122.5 70.5t24.5 289.5v461h883zM1402 297v-312q0 -202 -108.5 -312t-301.5 -110q-44 0 -80.5 4t-78.5 13l14 255q29 -6 48.5 -9t51.5 -3q56 0 86 41.5t30 120.5v312h339z" glyph-name="uni0513" horiz-adv-x="1157" unicode="ԓ"/><glyph d="M878 283h-433l-84 -283h-356l475 1456h181v-1l1 1h181l476 -1456h-356zM523 543h277l-136 452h-6zM468 -225q0 74 56 123.5t140 49.5q82 0 137.5 -49.5t55.5 -123.5q0 -73 -55.5 -121.5t-137.5 -48.5q-84 0 -140 48.5t-56 121.5zM593 -225q0 -30 19.5 -50t51.5 -20 q30 0 48.5 19.5t18.5 50.5q0 33 -18.5 52.5t-48.5 19.5q-32 0 -51.5 -19.5t-19.5 -52.5z" glyph-name="uni1E00" horiz-adv-x="1307" unicode="Ḁ"/><glyph d="M721 1q-19 34 -32.5 77t-20.5 90q-44 -86 -108.5 -137.5t-168.5 -51.5q-170 0 -264.5 87.5t-94.5 238.5q0 161 121 248.5t367 87.5h139v77q0 69 -33 106t-101 37q-59 0 -87.5 -27.5t-28.5 -85.5l-328 1l-2 6q-7 148 123.5 247.5t344.5 99.5q201 0 325.5 -100t124.5 -286 v-408q0 -86 14.5 -160t43.5 -148zM483 220q62 0 109.5 29t66.5 69v143h-136q-81 0 -117 -39t-36 -99q0 -46 31.5 -74.5t81.5 -28.5zM267 -203q0 74 56 123.5t140 49.5q82 0 137.5 -49.5t55.5 -123.5q0 -73 -55.5 -121.5t-137.5 -48.5q-84 0 -140 48.5t-56 121.5zM392 -203 q0 -30 19.5 -50t51.5 -20q30 0 48.5 19.5t18.5 50.5q0 33 -18.5 52.5t-48.5 19.5q-32 0 -51.5 -19.5t-19.5 -52.5z" glyph-name="uni1E01" horiz-adv-x="1086" unicode="ḁ"/><glyph d="M885 437h6l329 1019h447v-1456h-338v938l-6 1l-321 -939h-227l-315 925l-6 -1v-924h-338v1456h443zM931 1867h371l2 -6l-281 -260h-298z" glyph-name="uni1E3E" horiz-adv-x="1783" unicode="Ḿ"/><glyph d="M414 1082l12 -143q51 78 128.5 120.5t177.5 42.5q101 0 174 -44t110 -134q50 85 128.5 131.5t183.5 46.5q158 0 248.5 -113.5t90.5 -349.5v-639h-339v639q0 116 -32.5 159.5t-97.5 43.5q-49 0 -86.5 -17.5t-63.5 -48.5q0 -17 1 -29.5t1 -24.5v-722h-338v639 q0 117 -32 160t-99 43q-46 0 -83.5 -17.5t-63.5 -48.5v-776h-338v1082h318zM942 1545h371l2 -6l-281 -260h-298z" glyph-name="uni1E3F" horiz-adv-x="1764" unicode="ḿ"/><glyph d="M1287 512h6l176 944h342l-334 -1456h-318l-245 899h-6l-243 -899h-318l-335 1456h343l176 -945l6 -1l247 946h255zM1081 1599h-297l-283 260l2 6h370z" glyph-name="Wgrave" horiz-adv-x="1825" unicode="Ẁ"/><glyph d="M1025 477h6l107 605h322l-254 -1082h-286l-176 554h-6l-177 -554h-285l-255 1082h322l108 -609h6l177 609h213zM910 1256h-297l-283 260l2 6h370z" glyph-name="wgrave" horiz-adv-x="1485" unicode="ẁ"/><glyph d="M1287 512h6l176 944h342l-334 -1456h-318l-245 899h-6l-243 -899h-318l-335 1456h343l176 -945l6 -1l247 946h255zM952 1867h371l2 -6l-281 -260h-298z" glyph-name="Wacute" horiz-adv-x="1825" unicode="Ẃ"/><glyph d="M1025 477h6l107 605h322l-254 -1082h-286l-176 554h-6l-177 -554h-285l-255 1082h322l108 -609h6l177 609h213zM781 1524h371l2 -6l-281 -260h-298z" glyph-name="wacute" horiz-adv-x="1485" unicode="ẃ"/><glyph d="M1287 512h6l176 944h342l-334 -1456h-318l-245 899h-6l-243 -899h-318l-335 1456h343l176 -945l6 -1l247 946h255zM1315 1601h-290v204h290v-204zM800 1601h-290v204h290v-204z" glyph-name="Wdieresis" horiz-adv-x="1825" unicode="Ẅ"/><glyph d="M1025 477h6l107 605h322l-254 -1082h-286l-176 554h-6l-177 -554h-285l-255 1082h322l108 -609h6l177 609h213zM1144 1258h-290v204h290v-204zM629 1258h-290v204h290v-204z" glyph-name="wdieresis" horiz-adv-x="1485" unicode="ẅ"/><glyph d="M878 283h-433l-84 -283h-356l475 1456h181v-1l1 1h181l476 -1456h-356zM523 543h277l-136 452h-6zM857 -362h-381v260h381v-260z" glyph-name="uni1EA0" horiz-adv-x="1307" unicode="Ạ"/><glyph d="M721 1q-19 34 -32.5 77t-20.5 90q-44 -86 -108.5 -137.5t-168.5 -51.5q-170 0 -264.5 87.5t-94.5 238.5q0 161 121 248.5t367 87.5h139v77q0 69 -33 106t-101 37q-59 0 -87.5 -27.5t-28.5 -85.5l-328 1l-2 6q-7 148 123.5 247.5t344.5 99.5q201 0 325.5 -100t124.5 -286 v-408q0 -86 14.5 -160t43.5 -148zM483 220q62 0 109.5 29t66.5 69v143h-136q-81 0 -117 -39t-36 -99q0 -46 31.5 -74.5t81.5 -28.5zM656 -340h-381v260h381v-260z" glyph-name="uni1EA1" horiz-adv-x="1086" unicode="ạ"/><glyph d="M878 283h-433l-84 -283h-356l475 1456h181v-1l1 1h181l476 -1456h-356zM523 543h277l-136 452h-6zM524 1589l-22 126q72 2 104 17t27 43v6q5 35 -29 49t-100 14l7 145q204 0 312 -52t108 -145q0 -62 -43.5 -97.5t-106.5 -43.5v-62h-257z" glyph-name="uni1EA2" horiz-adv-x="1307" unicode="Ả"/><glyph d="M721 1q-19 34 -32.5 77t-20.5 90q-44 -86 -108.5 -137.5t-168.5 -51.5q-170 0 -264.5 87.5t-94.5 238.5q0 161 121 248.5t367 87.5h139v77q0 69 -33 106t-101 37q-59 0 -87.5 -27.5t-28.5 -85.5l-328 1l-2 6q-7 148 123.5 247.5t344.5 99.5q201 0 325.5 -100t124.5 -286 v-408q0 -86 14.5 -160t43.5 -148zM483 220q62 0 109.5 29t66.5 69v143h-136q-81 0 -117 -39t-36 -99q0 -46 31.5 -74.5t81.5 -28.5zM410 1268l-22 126q72 2 104 17t27 43v6q5 35 -29 49t-100 14l7 145q204 0 312 -52t108 -145q0 -62 -43.5 -97.5t-106.5 -43.5v-62h-257z" glyph-name="uni1EA3" horiz-adv-x="1086" unicode="ả"/><glyph d="M878 283h-433l-84 -283h-356l475 1456h181v-1l1 1h181l476 -1456h-356zM523 543h277l-136 452h-6zM522 1830h280l300 -250l-2 -6h-293l-146 137l-144 -137h-294l-2 6zM1155 2018h298l-218 -275h-232z" glyph-name="uni1EA4" horiz-adv-x="1307" unicode="Ấ"/><glyph d="M721 1q-19 34 -32.5 77t-20.5 90q-44 -86 -108.5 -137.5t-168.5 -51.5q-170 0 -264.5 87.5t-94.5 238.5q0 161 121 248.5t367 87.5h139v77q0 69 -33 106t-101 37q-59 0 -87.5 -27.5t-28.5 -85.5l-328 1l-2 6q-7 148 123.5 247.5t344.5 99.5q201 0 325.5 -100t124.5 -286 v-408q0 -86 14.5 -160t43.5 -148zM483 220q62 0 109.5 29t66.5 69v143h-136q-81 0 -117 -39t-36 -99q0 -46 31.5 -74.5t81.5 -28.5zM408 1508h280l300 -250l-2 -6h-293l-146 137l-144 -137h-294l-2 6zM1041 1696h298l-218 -275h-232z" glyph-name="uni1EA5" horiz-adv-x="1086" unicode="ấ"/><glyph d="M878 283h-433l-84 -283h-356l475 1456h181v-1l1 1h181l476 -1456h-356zM523 543h277l-136 452h-6zM1095 1578l-2 -6h-294l-144 137l-146 -137h-293l-2 6l300 250h280zM313 1741h-231l-218 275h297z" glyph-name="uni1EA6" horiz-adv-x="1307" unicode="Ầ"/><glyph d="M721 1q-19 34 -32.5 77t-20.5 90q-44 -86 -108.5 -137.5t-168.5 -51.5q-170 0 -264.5 87.5t-94.5 238.5q0 161 121 248.5t367 87.5h139v77q0 69 -33 106t-101 37q-59 0 -87.5 -27.5t-28.5 -85.5l-328 1l-2 6q-7 148 123.5 247.5t344.5 99.5q201 0 325.5 -100t124.5 -286 v-408q0 -86 14.5 -160t43.5 -148zM483 220q62 0 109.5 29t66.5 69v143h-136q-81 0 -117 -39t-36 -99q0 -46 31.5 -74.5t81.5 -28.5zM981 1257l-2 -6h-294l-144 137l-146 -137h-293l-2 6l300 250h280zM199 1420h-231l-218 275h297z" glyph-name="uni1EA7" horiz-adv-x="1086" unicode="ầ"/><glyph d="M878 283h-433l-84 -283h-356l475 1456h181v-1l1 1h181l476 -1456h-356zM523 543h277l-136 452h-6zM789 1796h-275l-303 -250l2 -6h297l141 136l142 -136h297l2 6zM995 1674l-20 106q60 2 86.5 14.5t22.5 34.5v6q4 29 -25 41.5t-83 12.5l8 120q170 0 260 -43t90 -121 q0 -53 -36.5 -82.5t-87.5 -36.5v-52h-215z" glyph-name="uni1EA8" horiz-adv-x="1307" unicode="Ẩ"/></font>
</defs>
</svg>
